<?xml version="1.0" encoding="UTF-8"?>
<svg version="1.1" xmlns="http://www.w3.org/2000/svg" width="1000" height="1000">
<path d="M0 0 C330 0 660 0 1000 0 C1000 330 1000 660 1000 1000 C670 1000 340 1000 0 1000 C0 670 0 340 0 0 Z " fill="#F1FECA" transform="translate(0,0)"/>
<path d="M0 0 C330 0 660 0 1000 0 C1000 330 1000 660 1000 1000 C670 1000 340 1000 0 1000 C0 670 0 340 0 0 Z M100 100 C100 364 100 628 100 900 C364 900 628 900 900 900 C900 636 900 372 900 100 C636 100 372 100 100 100 Z " fill="#728984" transform="translate(0,0)"/>
<path d="M0 0 C33 0 66 0 100 0 C100 132 100 264 100 400 C-32 400 -164 400 -300 400 C-300 367 -300 334 -300 300 C-201 300 -102 300 0 300 C0 201 0 102 0 0 Z " fill="#3F5E44" transform="translate(700,200)"/>
<path d="M0 0 C33 0 66 0 100 0 C100 33 100 66 100 100 C67 100 34 100 0 100 C0 67 0 34 0 0 Z " fill="#3F5E44" transform="translate(400,700)"/>
<path d="M0 0 C33 0 66 0 100 0 C100 33 100 66 100 100 C67 100 34 100 0 100 C0 67 0 34 0 0 Z " fill="#3F5E44" transform="translate(300,600)"/>
<path d="M0 0 C33 0 66 0 100 0 C100 33 100 66 100 100 C67 100 34 100 0 100 C0 67 0 34 0 0 Z " fill="#F2FFCB" transform="translate(300,500)"/>
<path d="M0 0 C33 0 66 0 100 0 C100 33 100 66 100 100 C67 100 34 100 0 100 C0 67 0 34 0 0 Z " fill="#3F5E44" transform="translate(200,500)"/>
<path d="M0 0 C33 0 66 0 100 0 C100 33 100 66 100 100 C67 100 34 100 0 100 C0 67 0 34 0 0 Z " fill="#3F5E44" transform="translate(300,400)"/>
<path d="M0 0 C33 0 66 0 100 0 C100 33 100 66 100 100 C67 100 34 100 0 100 C0 67 0 34 0 0 Z " fill="#3F5E44" transform="translate(400,300)"/>
</svg>
