<?xml version="1.0" encoding="UTF-8"?>
<svg version="1.1" xmlns="http://www.w3.org/2000/svg" width="1000" height="1000">
<path d="M0 0 C112.2 0 224.4 0 340 0 C340 6.6 340 13.2 340 20 C346.6 20 353.2 20 360 20 C360 26.6 360 33.2 360 40 C366.6 40 373.2 40 380 40 C380 46.6 380 53.2 380 60 C386.6 60 393.2 60 400 60 C400 66.6 400 73.2 400 80 C406.6 80 413.2 80 420 80 C420 86.6 420 93.2 420 100 C426.6 100 433.2 100 440 100 C440 106.6 440 113.2 440 120 C446.6 120 453.2 120 460 120 C460 133.2 460 146.4 460 160 C466.6 160 473.2 160 480 160 C480 232.6 480 305.2 480 380 C473.4 380 466.8 380 460 380 C460 386.6 460 393.2 460 400 C453.4 400 446.8 400 440 400 C440 406.6 440 413.2 440 420 C433.4 420 426.8 420 420 420 C420 426.6 420 433.2 420 440 C406.8 440 393.6 440 380 440 C380 446.6 380 453.2 380 460 C366.8 460 353.6 460 340 460 C340 466.6 340 473.2 340 480 C221.2 480 102.4 480 -20 480 C-20 473.4 -20 466.8 -20 460 C-26.6 460 -33.2 460 -40 460 C-40 453.4 -40 446.8 -40 440 C-53.2 440 -66.4 440 -80 440 C-80 433.4 -80 426.8 -80 420 C-86.6 420 -93.2 420 -100 420 C-100 413.4 -100 406.8 -100 400 C-106.6 400 -113.2 400 -120 400 C-120 393.4 -120 386.8 -120 380 C-126.6 380 -133.2 380 -140 380 C-140 307.4 -140 234.8 -140 160 C-133.4 160 -126.8 160 -120 160 C-120 146.8 -120 133.6 -120 120 C-113.4 120 -106.8 120 -100 120 C-100 113.4 -100 106.8 -100 100 C-93.4 100 -86.8 100 -80 100 C-80 93.4 -80 86.8 -80 80 C-73.4 80 -66.8 80 -60 80 C-60 73.4 -60 66.8 -60 60 C-53.4 60 -46.8 60 -40 60 C-40 53.4 -40 46.8 -40 40 C-33.4 40 -26.8 40 -20 40 C-20 33.4 -20 26.8 -20 20 C-13.4 20 -6.8 20 0 20 C0 13.4 0 6.8 0 0 Z " fill="#F6F7F7" transform="translate(320,300)"/>
<path d="M0 0 C19.8 0 39.6 0 60 0 C60 6.6 60 13.2 60 20 C66.6 20 73.2 20 80 20 C80 26.6 80 33.2 80 40 C139.4 40 198.8 40 260 40 C260 33.4 260 26.8 260 20 C266.6 20 273.2 20 280 20 C280 13.4 280 6.8 280 0 C299.8 0 319.6 0 340 0 C340 6.6 340 13.2 340 20 C346.6 20 353.2 20 360 20 C360 39.8 360 59.6 360 80 C353.4 80 346.8 80 340 80 C340 86.6 340 93.2 340 100 C320.2 100 300.4 100 280 100 C280 93.4 280 86.8 280 80 C273.4 80 266.8 80 260 80 C260 73.4 260 66.8 260 60 C200.6 60 141.2 60 80 60 C80 66.6 80 73.2 80 80 C73.4 80 66.8 80 60 80 C60 86.6 60 93.2 60 100 C40.2 100 20.4 100 0 100 C0 93.4 0 86.8 0 80 C-6.6 80 -13.2 80 -20 80 C-20 60.2 -20 40.4 -20 20 C-13.4 20 -6.8 20 0 20 C0 13.4 0 6.8 0 0 Z " fill="#72746D" transform="translate(320,540)"/>
<path d="M0 0 C6.6 0 13.2 0 20 0 C20 13.2 20 26.4 20 40 C26.6 40 33.2 40 40 40 C40 112.6 40 185.2 40 260 C33.4 260 26.8 260 20 260 C20 266.6 20 273.2 20 280 C13.4 280 6.8 280 0 280 C0 266.8 0 253.6 0 240 C6.6 240 13.2 240 20 240 C20 180.6 20 121.2 20 60 C13.4 60 6.8 60 0 60 C0 40.2 0 20.4 0 0 Z " fill="#E6EBEB" transform="translate(760,420)"/>
<path d="M0 0 C6.6 0 13.2 0 20 0 C20 6.6 20 13.2 20 20 C13.4 20 6.8 20 0 20 C0 13.4 0 6.8 0 0 Z " fill="#E6EBEB" transform="translate(300,760)"/>
</svg>
