<?xml version="1.0" encoding="UTF-8"?>
<svg version="1.1" xmlns="http://www.w3.org/2000/svg" width="1000" height="1000">
<path d="M0 0 C2.7446198 1.41389505 3.11148673 3.19656839 4.16308594 5.98974609 C5.16017036 8.28758724 6.3990539 10.17045001 7.828125 12.2265625 C10.95329027 16.83493666 13.71817457 21.58173168 16.4375 26.4375 C21.14985783 34.76944065 25.97768899 43.02549919 30.875 51.25 C36.17207833 60.14900315 41.4050271 69.08157144 46.5625 78.0625 C52.14311468 87.78005827 57.81702811 97.43748836 63.54443359 107.06884766 C67.70782906 114.07101158 71.8170597 121.09323718 75.828125 128.18359375 C79.08032142 133.87493748 82.46191008 139.49128096 85.8125 145.125 C91.19548211 154.17685104 96.49899176 163.26806739 101.69873047 172.42675781 C105.74456802 179.54010813 109.89522143 186.58804282 114.06933594 193.62670898 C118.07363696 200.38114493 122.04645608 207.15323404 126 213.9375 C126.58193115 214.93571777 127.1638623 215.93393555 127.76342773 216.96240234 C130.68990285 221.98441308 133.61240206 227.00870902 136.53125 232.03515625 C144.91356995 246.45637722 153.44579754 260.78027013 162.0625 275.0625 C162.59875 274.24652344 163.135 273.43054688 163.6875 272.58984375 C170.9271252 261.62743535 178.43120582 250.85421452 185.95263672 240.08398438 C189.38898769 235.16286894 192.82056207 230.23843499 196.25 225.3125 C197.25087646 223.87487305 197.25087646 223.87487305 198.27197266 222.40820312 C202.39586648 216.47789201 206.49159459 210.52928782 210.5625 204.5625 C218.66585834 192.68528473 226.90124328 180.90015294 235.12402344 169.10546875 C242.55026239 158.45119719 249.95396765 147.78382702 257.27026367 137.05371094 C261.73921966 130.51000574 266.28311917 124.02047902 270.83691406 117.53564453 C274.74273896 111.96654776 278.60544317 106.37007409 282.4375 100.75 C288.58580648 91.73543809 294.8028465 82.76998819 301.05078125 73.82421875 C303.71513149 70.0075774 306.35648862 66.17652869 308.98046875 62.33203125 C309.6051001 61.42316162 310.22973145 60.51429199 310.87329102 59.57788086 C312.04599378 57.87114147 313.21231056 56.15998878 314.37084961 54.44360352 C317.51850567 49.88316341 320.5092966 46.26397114 325.0625 43.0625 C327.4375 43.25 327.4375 43.25 329.0625 44.0625 C329.96855967 47.74075732 330.05272435 50.628488 329.5167942 54.37018776 C329.36961594 55.42679497 329.22243768 56.48340219 329.07079947 57.5720278 C328.81648722 59.30387511 328.81648722 59.30387511 328.55703735 61.07070923 C328.38300459 62.30201392 328.20897183 63.5333186 328.02966535 64.80193555 C327.54514969 68.21764905 327.05311326 71.63212551 326.55787611 75.04629087 C326.02552954 78.72913903 325.50287395 82.41336355 324.97901917 86.09742737 C323.95142684 93.31311494 322.91490417 100.52749277 321.87541915 107.7414756 C320.66583051 116.13848492 319.46525688 124.53677548 318.26511542 132.93513934 C316.12397101 147.91639687 313.97491556 162.89650875 311.82128906 177.87597656 C309.73030463 192.41980673 307.64442024 206.96435565 305.56445312 221.50976562 C305.37224593 222.85387939 305.37224593 222.85387939 305.17615576 224.22514696 C304.91803167 226.03024524 304.6599079 227.83534355 304.40178444 229.64044192 C304.27446072 230.53082973 304.14713699 231.42121754 304.01595497 232.33858681 C303.82546184 233.67074281 303.82546184 233.67074281 303.63112036 235.02981106 C301.65030509 248.88072249 299.66520025 262.73101952 297.67950261 276.58123172 C296.95922081 281.60545205 296.23949957 286.62975231 295.52016474 291.6541083 C294.37936513 299.62199136 293.23670082 307.58960218 292.09021355 315.55666901 C291.56619903 319.19830869 291.04305698 322.84006783 290.52230644 326.48217583 C289.95856569 330.42464453 289.39048982 334.36648128 288.82192993 338.30825806 C288.57430985 340.04679753 288.57430985 340.04679753 288.32168734 341.82045901 C288.09309671 343.39754659 288.09309671 343.39754659 287.85988808 345.00649452 C287.72910193 345.91701155 287.59831578 346.82752858 287.46356642 347.76563704 C287.0625 350.0625 287.0625 350.0625 286.0625 353.0625 C287.0525 352.7325 288.0425 352.4025 289.0625 352.0625 C290.72161621 351.89198559 292.38581678 351.76907541 294.05095768 351.67395687 C295.08736552 351.6127481 296.12377337 351.55153932 297.19158751 351.48847574 C298.33396437 351.42524246 299.47634123 351.36200918 300.65333557 351.29685974 C301.86418082 351.22658493 303.07502606 351.15631011 304.32256359 351.08390576 C307.68994715 350.88933028 311.05750504 350.69848412 314.42518795 350.50920355 C318.05554007 350.3042693 321.68561867 350.09459284 325.31573486 349.88552856 C332.43392371 349.4763709 339.55236257 349.07173125 346.67090232 348.66872936 C352.46356758 348.34072289 358.25614326 348.01117593 364.04865837 347.68052864 C364.8728879 347.63348299 365.69711743 347.58643734 366.54632361 347.53796606 C368.22087898 347.44238101 369.89543422 347.34679354 371.56998932 347.25120366 C387.29205111 346.35393484 403.01440634 345.46189491 418.73686033 344.57152862 C432.19909531 343.80902242 445.66104528 343.04164098 459.12280273 342.27075195 C474.76499911 341.37499987 490.40738403 340.48265071 506.0500645 339.5953899 C507.72307837 339.5004841 509.39609192 339.40557269 511.06910515 339.31065559 C511.89215634 339.26396071 512.71520752 339.21726582 513.56319966 339.16915594 C519.33473662 338.84147246 525.10613189 338.51136423 530.87747383 338.18026543 C537.93235533 337.77558247 544.98743435 337.37456977 552.04278237 336.97810035 C555.63598259 336.77608965 559.22907491 336.57252435 562.82192802 336.36442375 C587.53974555 334.93499133 587.53974555 334.93499133 598.7776947 334.84095764 C599.50717082 334.83000106 600.23664693 334.81904448 600.98822838 334.80775589 C605.82028858 334.82028858 605.82028858 334.82028858 608.0625 337.0625 C608.4375 339.98046875 608.4375 339.98046875 608.0625 343.0625 C606.4375 344.86328125 606.4375 344.86328125 604.0625 346.375 C603.14210938 346.96539062 602.22171875 347.55578125 601.2734375 348.1640625 C597.09630107 350.6337563 592.88538146 353.03422314 588.63916016 355.38305664 C583.16734466 358.41211983 577.79151093 361.58022679 572.4375 364.8125 C565.43779236 369.03668193 558.41936116 373.22567709 551.375 377.375 C543.55916946 381.98123809 535.77237316 386.63334579 528 391.3125 C518.68317202 396.91900249 509.32358858 402.44814121 499.9375 407.9375 C490.96998484 413.18256052 482.01628554 418.44547542 473.12402344 423.81738281 C458.71528232 432.51996212 444.26359756 441.1413821 429.72994995 449.63323975 C419.95487469 455.34611333 410.22585262 461.12986391 400.53125 466.97851562 C393.74469796 471.06999659 386.91706512 475.08602411 380.0625 479.0625 C386.03798107 483.55651542 392.07281415 487.77064762 398.4375 491.6875 C407.35187107 497.18517254 416.03974164 502.99907129 424.73583984 508.83398438 C430.8481894 512.9317899 436.97545472 517.00731824 443.09939575 521.08776855 C445.26752965 522.53253341 447.4354507 523.97761694 449.60327148 525.42285156 C450.63115028 526.10809906 450.63115028 526.10809906 451.67979431 526.80718994 C453.01115097 527.69487484 454.34242165 528.58268869 455.67359924 529.47064209 C458.45005727 531.32243395 461.22783047 533.17206293 464.00976562 535.015625 C465.23469727 535.82773438 465.23469727 535.82773438 466.484375 536.65625 C467.1659668 537.10677734 467.84755859 537.55730469 468.54980469 538.02148438 C470.0625 539.0625 470.0625 539.0625 471.0625 540.0625 C471.375 543.4375 471.375 543.4375 471.0625 547.0625 C468.18867557 549.89772491 465.66770808 550.55442637 461.73124695 551.06864929 C460.11003433 551.28939621 460.11003433 551.28939621 458.45606995 551.51460266 C457.27520309 551.66277939 456.09433624 551.81095612 454.87768555 551.96362305 C453.63013489 552.12987183 452.38258423 552.29612061 451.097229 552.46740723 C447.67906671 552.92251008 444.25910763 553.36245903 440.83859229 553.79947639 C437.25466826 554.25973064 433.67247259 554.73307564 430.09004211 555.20478821 C424.07124363 555.99536932 418.05130814 556.77674498 412.03051758 557.55200195 C405.07988804 558.44703782 398.13082926 559.35350087 391.18258256 560.26683968 C383.77507974 561.24053133 376.36668544 562.20728651 368.95790887 563.17123437 C366.82870699 563.44863401 364.69965419 563.7271557 362.5706234 564.0058651 C358.59296012 564.52603852 354.61431207 565.03826375 350.63549805 565.54956055 C348.87330681 565.78093468 348.87330681 565.78093468 347.07551575 566.01698303 C341.69315416 566.70236192 336.48908484 567.25155506 331.0625 567.0625 C331.13017547 567.74823247 331.19785093 568.43396494 331.26757717 569.14047718 C332.23070253 580.03337783 332.31986876 590.91598633 332.45141602 601.84448242 C332.48077825 604.03172763 332.51049192 606.21896815 332.54052734 608.40620422 C332.62082896 614.33578728 332.69586246 620.26542603 332.76968122 626.19509292 C332.83258048 631.20667106 332.89813842 636.21821305 332.96368736 641.22975713 C333.12830562 653.81757997 333.28792737 666.40546004 333.4451515 678.99337671 C333.57111653 689.06847784 333.70172034 699.1435075 333.83569336 709.21850586 C335.19269713 811.3779878 335.19269713 811.3779878 335.27195239 856.09618974 C335.2772954 858.46682997 335.28613817 860.83743365 335.29593086 863.20805931 C335.31261971 867.44776553 335.31214768 871.68726432 335.30834961 875.92700195 C335.31409689 877.15127962 335.31984417 878.37555729 335.32576561 879.63693428 C335.32134264 880.7334374 335.31691967 881.82994053 335.31236267 882.95967102 C335.3124681 883.9054366 335.31257353 884.85120218 335.31268215 885.82562733 C335.0625 888.0625 335.0625 888.0625 333.0625 890.0625 C330.60875921 889.84557776 329.3980062 889.38266878 327.60986328 887.67626953 C323.47077224 881.99454867 320.14157658 875.9775209 316.88699341 869.75320435 C315.91195985 867.88865989 314.92868243 866.02867386 313.94311523 864.16967773 C312.93494951 862.26792616 311.92720172 860.36597059 310.92192078 858.46269226 C308.03279079 852.99292632 305.09286406 847.55236057 302.125 842.125 C301.65167236 841.25842773 301.17834473 840.39185547 300.69067383 839.49902344 C296.18251658 831.25886871 291.63668858 823.03943947 287.09216309 814.81930542 C282.47462408 806.46597883 277.90237825 798.0901593 273.375 789.6875 C269.25882598 782.04947259 265.04940964 774.47379504 260.75 766.9375 C255.32650402 757.42592926 250.15673685 747.79438543 245.03356934 738.11938477 C240.63780552 729.82330169 236.15809095 721.59042278 231.5 713.4375 C226.81830596 705.23584646 222.25317397 696.97789618 217.77883911 688.66168213 C217.09673624 687.39426932 216.41321861 686.12761681 215.72824097 684.86175537 C214.77666131 683.10161783 213.83153655 681.33799519 212.88671875 679.57421875 C212.34104248 678.55803467 211.79536621 677.54185059 211.2331543 676.49487305 C210.0625 674.0625 210.0625 674.0625 210.0625 672.0625 C205.80995904 675.74335503 203.35363174 680.32487437 200.5625 685.125 C196.51389726 691.98179575 192.40058655 698.78223591 188.125 705.5 C183.78526205 712.32511354 179.49945911 719.18079474 175.25 726.0625 C174.1615071 727.81904064 173.07296731 729.57555222 171.984375 731.33203125 C170.25003337 734.13284864 168.52826331 736.94002737 166.828125 739.76171875 C166.22484375 740.74785156 165.6215625 741.73398437 165 742.75 C164.27103516 743.96236328 164.27103516 743.96236328 163.52734375 745.19921875 C161.87028857 747.30699294 160.5576482 748.12744446 158.0625 749.0625 C155.9375 749.0625 155.9375 749.0625 154.0625 748.0625 C152.53098613 744.10484799 151.58992355 740.14475394 150.79696655 735.98374939 C150.45206932 734.1900013 150.45206932 734.1900013 150.10020447 732.36001587 C149.85236329 731.04853886 149.60460923 729.73704539 149.35693359 728.42553711 C149.09097375 727.03370238 148.82466305 725.64193465 148.55802917 724.25022888 C147.83733444 720.48250792 147.1218787 716.71381002 146.40762663 712.94486308 C145.81032435 709.79578617 145.21038741 706.64721365 144.61043322 703.49864107 C143.19524979 696.07165256 141.78423536 688.64388057 140.37597656 681.21557617 C138.92364588 673.55512206 137.46498868 665.89589245 136.00310075 658.23725694 C134.74705539 651.65600872 133.49458201 645.07408791 132.24504912 638.4916001 C131.49919593 634.56255297 130.75207368 630.63375855 130.00165939 626.70557976 C129.29655633 623.01358968 128.59593676 619.3207764 127.89875221 615.6272831 C127.64234104 614.27291368 127.38437072 612.91883837 127.12471962 611.56508636 C126.77025308 609.71562248 126.42200686 607.86496966 126.07406616 606.01426697 C125.77930169 604.46213454 125.77930169 604.46213454 125.47858238 602.8786459 C125.08620936 600.22297068 124.9829003 597.74174056 125.0625 595.0625 C123.4495245 595.32578118 121.84652404 595.65054624 120.25 596 C119.35667969 596.17402344 118.46335937 596.34804688 117.54296875 596.52734375 C114.16459145 598.61821348 113.96559265 600.59783613 112.91040039 604.31713867 C111.20729236 609.831521 108.58267613 615.00858279 106.1875 620.25 C105.00345137 622.86190271 103.82359211 625.47568621 102.64453125 628.08984375 C102.34393295 628.75569489 102.04333466 629.42154602 101.73362732 630.10757446 C98.71247599 636.81307775 95.78649005 643.55872605 92.875 650.3125 C87.00587252 663.91625778 81.06605344 677.48825966 75.09838867 691.04907227 C74.32987038 692.79571588 73.56139738 694.54237943 72.79296875 696.2890625 C72.21690132 697.59843025 72.21690132 697.59843025 71.62919617 698.93424988 C69.17543559 704.51648428 66.73587843 710.10472647 64.30601501 715.69740295 C62.66482159 719.47410498 61.01946873 723.2489886 59.37387085 727.02377319 C58.58975816 728.82562886 57.80767744 730.62837029 57.02774048 732.43203735 C55.94299756 734.94007802 54.85115882 737.44491914 53.7578125 739.94921875 C53.28393852 741.05268143 53.28393852 741.05268143 52.80049133 742.17843628 C50.91614269 746.47203888 48.7775364 750.23649439 46.0625 754.0625 C44.18800354 753.77243042 44.18800354 753.77243042 42.0625 753.0625 C38.44697917 747.01479962 36.36441105 740.47968663 34.19140625 733.8046875 C33.83226639 732.7188739 33.47312653 731.6330603 33.10310364 730.51434326 C32.33547664 728.19167631 31.57053009 725.86812204 30.80804443 723.54376221 C28.81486342 717.46796898 26.80259507 711.39849425 24.79296875 705.328125 C24.39265442 704.11706085 23.99234009 702.9059967 23.57989502 701.65823364 C19.93528185 690.64400235 16.20700983 679.65953144 12.4375 668.6875 C12.15810577 667.87359802 11.87871155 667.05969604 11.59085083 666.22113037 C10.0844822 661.83385488 8.57519235 657.44759902 7.0625 653.0625 C3.81592501 653.0625 2.52536331 653.63764173 -0.34082031 655.0559082 C-1.23721222 655.49580078 -2.13360413 655.93569336 -3.05715942 656.38891602 C-4.03345306 656.87545654 -5.0097467 657.36199707 -6.015625 657.86328125 C-7.03792206 658.36682129 -8.06021912 658.87036133 -9.11349487 659.38916016 C-12.47414056 661.04580802 -15.83073958 662.71049585 -19.1875 664.375 C-21.50992113 665.521101 -23.83267761 666.66652271 -26.15576172 667.8112793 C-30.85257734 670.12604317 -35.54824928 672.44310216 -40.24316406 674.76171875 C-49.50118413 679.33048316 -58.77976172 683.85672727 -68.0625 688.375 C-69.65805108 689.1525659 -71.25359159 689.93015349 -72.84912109 690.70776367 C-82.80724991 695.5577289 -92.78944002 700.3544055 -102.79614258 705.10351562 C-109.60043659 708.35465809 -116.27773894 711.80569394 -122.81787109 715.56298828 C-127.41680616 718.11980124 -127.41680616 718.11980124 -130.38671875 717.79296875 C-130.89847656 717.55191406 -131.41023437 717.31085937 -131.9375 717.0625 C-133.27901308 713.05365931 -132.67662204 710.70104423 -130.89215088 706.92483521 C-130.57195984 706.28319427 -130.2517688 705.64155334 -129.921875 704.98046875 C-129.59539978 704.29854462 -129.26892456 703.61662048 -128.93255615 702.91403198 C-127.86309449 700.68655913 -126.77518152 698.46862444 -125.6875 696.25 C-124.93918249 694.69729018 -124.19244966 693.14381569 -123.44726562 691.58959961 C-121.96111869 688.49133951 -120.46980248 685.39566153 -118.97460938 682.30175781 C-116.39101619 676.94185935 -113.90036933 671.54129654 -111.4375 666.125 C-111.01186768 665.19268555 -110.58623535 664.26037109 -110.14770508 663.29980469 C-109.24369392 661.31903715 -108.3404825 659.33790447 -107.43798828 657.35644531 C-104.42190355 650.7353885 -101.39838589 644.11772528 -98.375 637.5 C-98.03969269 636.76582855 -97.70438538 636.0316571 -97.35891724 635.27523804 C-91.51788627 622.48801275 -85.63059175 609.72249275 -79.7305603 596.96240234 C-74.50613249 585.66102911 -69.32497738 574.34114693 -64.1875 563 C-47.6237913 526.43508259 -47.6237913 526.43508259 -41.9375 515.0625 C-42.54367661 514.88767593 -43.14985321 514.71285187 -43.7743988 514.5327301 C-49.91196708 512.73149325 -55.91514489 510.69120406 -61.91015625 508.46484375 C-62.84900162 508.11900238 -63.78784698 507.77316101 -64.75514221 507.4168396 C-67.83777561 506.28062128 -70.91886055 505.14026258 -74 504 C-76.19763364 503.18937115 -78.39538993 502.37907474 -80.59326172 501.5690918 C-85.1445364 499.89147049 -89.695286 498.21243696 -94.24560547 496.53222656 C-103.36462181 493.16571445 -112.48795632 489.81097482 -121.61227417 486.4588623 C-123.59289502 485.73121622 -125.57346481 485.00343111 -127.5539856 484.2755127 C-140.03846821 479.68726838 -152.52803828 475.11311611 -165.0234375 470.5546875 C-165.6702951 470.31870598 -166.31715271 470.08272446 -166.98361206 469.83959198 C-172.30294359 467.89912176 -177.6223964 465.95898405 -182.94190979 464.01901245 C-198.12215165 458.48280184 -213.2990894 452.93798269 -228.4609375 447.3515625 C-229.08710968 447.1208713 -229.71328186 446.89018009 -230.35842896 446.65249825 C-237.05337826 444.18565474 -243.7468573 441.71487581 -250.43847656 439.23901367 C-260.4889528 435.52301076 -270.54243182 431.82435014 -280.6484375 428.26171875 C-282.2209003 427.70411722 -283.7933302 427.14642289 -285.36572266 426.58862305 C-288.12838494 425.60919482 -290.89633181 424.64788944 -293.66943359 423.69848633 C-294.84586426 423.28236084 -296.02229492 422.86623535 -297.234375 422.4375 C-298.22791992 422.09460938 -299.22146484 421.75171875 -300.24511719 421.3984375 C-303.51399751 419.77644683 -305.55994835 417.81238724 -307.9375 415.0625 C-308.0625 412.875 -308.0625 412.875 -306.9375 411.0625 C-302.82821337 409.00565829 -298.61986523 408.4570945 -294.11204529 407.91758728 C-293.33063693 407.81857874 -292.54922856 407.7195702 -291.74414116 407.6175614 C-289.13023663 407.28801952 -286.51524191 406.96813655 -283.90014648 406.64819336 C-282.02407604 406.41365815 -280.14808084 406.17852043 -278.27215576 405.94282532 C-274.23481594 405.43688827 -270.19697497 404.93523533 -266.1586895 404.436903 C-259.77561538 403.64921117 -253.39373251 402.85215169 -247.01197815 402.05384827 C-236.92046094 400.79263661 -226.82815118 399.53789564 -216.73549658 398.2858215 C-198.65460093 396.04255749 -180.57499605 393.78892949 -162.49579674 391.53203875 C-156.14898767 390.74001221 -149.80181165 389.95101165 -143.45431697 389.16449916 C-139.50974371 388.67533322 -135.56541444 388.18422072 -131.62113953 387.69265556 C-129.78944661 387.46482676 -127.9576467 387.23785633 -126.12573433 387.01179886 C-123.6288611 386.70358878 -121.13237975 386.39237614 -118.63597107 386.08042908 C-117.90786191 385.9913234 -117.17975275 385.90221772 -116.42957968 385.81041187 C-113.20593904 385.40465268 -110.06434318 384.96087314 -106.9375 384.0625 C-113.00111616 376.52606751 -119.25900681 369.18499171 -125.609375 361.890625 C-128.75691579 358.27515713 -131.8828653 354.64169443 -135 351 C-135.49089111 350.42660889 -135.98178223 349.85321777 -136.48754883 349.26245117 C-137.47635203 348.10719482 -138.46504049 346.95184024 -139.45361328 345.79638672 C-141.94645524 342.88355954 -144.44212766 339.97315939 -146.9375 337.0625 C-147.9375134 335.89584482 -148.93751341 334.72917816 -149.9375 333.5625 C-150.4325 332.985 -150.9275 332.4075 -151.4375 331.8125 C-152.9375 330.0625 -154.4375 328.3125 -155.9375 326.5625 C-156.68012085 325.69612915 -156.68012085 325.69612915 -157.43774414 324.81225586 C-158.43698396 323.64644896 -159.43617023 322.48059614 -160.43530273 321.31469727 C-162.94649461 318.38449602 -165.45863393 315.45511709 -167.97265625 312.52734375 C-172.81326612 306.88828276 -177.64236835 301.24030898 -182.4375 295.5625 C-186.44321621 290.82035278 -190.4641795 286.09156131 -194.5 281.375 C-195.01304687 280.77429688 -195.52609375 280.17359375 -196.0546875 279.5546875 C-197.96295478 277.32751841 -199.86277649 275.13722351 -201.9375 273.0625 C-201.5625 270.9375 -201.5625 270.9375 -200.9375 269.0625 C-198.26743815 268.02320003 -197.0991291 268.00811188 -194.34155273 268.93603516 C-193.36130127 269.40315918 -192.3810498 269.8702832 -191.37109375 270.3515625 C-189.70433594 271.13563477 -189.70433594 271.13563477 -188.00390625 271.93554688 C-186.79415283 272.51928675 -185.5845207 273.10327807 -184.375 273.6875 C-183.11504792 274.28548507 -181.85462323 274.88247527 -180.59375 275.47851562 C-176.70056055 277.32379544 -172.81840923 279.19156411 -168.9375 281.0625 C-167.78008301 281.61905273 -166.62266602 282.17560547 -165.43017578 282.74902344 C-160.98049551 284.8895722 -156.53207321 287.03264392 -152.08764648 289.18408203 C-144.07406296 293.05759476 -136.01832069 296.83151065 -127.9375 300.5625 C-117.59810728 305.33629287 -107.32251493 310.22791439 -97.07324219 315.19189453 C-89.14774658 319.02144073 -81.18050765 322.75118601 -73.1875 326.4375 C-62.05643762 331.57299574 -51.00585682 336.85565933 -39.99707031 342.24755859 C-31.1828467 346.54732862 -22.30194987 350.69524239 -13.40429688 354.81835938 C-12.09419415 355.42595375 -10.78411503 356.03359904 -9.47406006 356.64129639 C-6.29547848 358.11561752 -3.11657865 359.58925094 0.0625 361.0625 C0.05403612 360.42765139 0.04557224 359.79280278 0.03685188 359.13871634 C-0.46798224 321.26634243 -0.96929906 283.39392342 -1.46622908 245.52144495 C-1.52628926 240.94430933 -1.58637798 236.36717408 -1.64648438 231.79003906 C-1.65844683 230.87905462 -1.67040929 229.96807018 -1.68273425 229.02948014 C-1.87490167 214.40038511 -2.06936518 199.77132149 -2.26472163 185.14226873 C-2.46606534 170.06091375 -2.66483882 154.97952637 -2.86136818 139.89810789 C-2.9714375 131.45689581 -3.0826025 123.01570145 -3.19671631 114.574543 C-4.01495455 53.94784155 -4.01495455 53.94784155 -4.10519028 25.96178126 C-4.11310148 23.7830143 -4.12419108 21.60425623 -4.13867569 19.42552304 C-4.1568897 16.49937398 -4.16232768 13.57350677 -4.16357422 10.64730835 C-4.17111095 9.79440145 -4.17864769 8.94149456 -4.18641281 8.06274199 C-4.15931068 0.13417131 -4.15931068 0.13417131 0 0 Z M29.0625 113.0625 C29.72060509 126.60790499 30.9512651 140.07124785 32.28735352 153.56469727 C32.51438197 155.8824186 32.74111931 158.20016847 32.96759033 160.51794434 C33.57820502 166.75876564 34.19285022 172.99918394 34.80826306 179.23953366 C35.45258786 185.78021946 36.09314518 192.32127422 36.7341156 198.86228943 C37.80871081 209.82434721 38.88581504 220.78615648 39.96459961 231.74780273 C41.07488045 243.02955125 42.18375577 254.31143647 43.29077148 265.59350586 C43.39342875 266.63972235 43.39342875 266.63972235 43.49815989 267.70707453 C43.84154563 271.20672826 44.18490405 274.70638467 44.52824891 278.20604241 C47.36876667 307.1586112 50.21410068 336.11070556 53.0625 365.0625 C53.81298615 364.97882172 54.56347229 364.89514343 55.33670044 364.80892944 C58.81037072 364.4217954 62.28409132 364.03511458 65.7578125 363.6484375 C66.93770752 363.51687256 68.11760254 363.38530762 69.33325195 363.24975586 C78.19539955 362.26372437 87.05881482 361.28815511 95.92951965 360.38179016 C100.10932821 359.92472821 102.49393468 359.49737776 105.88671875 356.90234375 C108.36863162 353.66293503 110.74028144 350.39766651 113 347 C116.23161972 342.18730065 119.50563008 337.42364102 122.92578125 332.7421875 C123.5710376 331.85023682 124.21629395 330.95828613 124.88110352 330.03930664 C126.15261831 328.28528807 127.43542173 326.53938877 128.73022461 324.80249023 C129.30909424 323.99755127 129.88796387 323.1926123 130.484375 322.36328125 C131.00612305 321.65341064 131.52787109 320.94354004 132.06542969 320.2121582 C133.43530445 317.2587431 133.09918831 316.1578524 132.0625 313.0625 C130.7449163 310.11004834 129.27117865 307.24939429 127.77734375 304.3828125 C127.33391632 303.51966431 126.89048889 302.65651611 126.43362427 301.76721191 C124.96136474 298.90437751 123.48059266 296.04603231 122 293.1875 C120.95758141 291.16359392 119.91584519 289.13933626 118.87475586 287.11474609 C116.69724839 282.88123287 114.51699653 278.64914972 112.33496094 274.41796875 C107.73353137 265.48908112 103.1701739 256.54080578 98.60671997 247.59246826 C96.10533751 242.68841298 93.60132155 237.78570259 91.09765625 232.8828125 C90.0912957 230.91179044 89.08494804 228.94076179 88.07861328 226.96972656 C84.07143501 219.12134301 80.06380973 211.27318773 76.05615234 203.42504883 C74.070687 199.53692332 72.08534231 195.64873624 70.10009766 191.76049805 C65.44387551 182.64116918 60.78683369 173.52226155 56.12704468 164.40475464 C53.94303247 160.13132117 51.7594639 155.8576611 49.57592773 151.58398438 C48.54196896 149.56059673 47.5077965 147.53731827 46.47338867 145.51416016 C40.95489884 134.72062992 35.45492558 123.91967877 30.0625 113.0625 C29.7325 113.0625 29.4025 113.0625 29.0625 113.0625 Z M297.0625 113.0625 C289.59129342 126.42853596 282.1619339 139.81098141 274.9375 153.3125 C269.98206108 162.57237467 264.88209704 171.73677082 259.68188477 180.86108398 C255.86594501 187.57950206 252.21954899 194.3703942 248.65258789 201.22363281 C245.5407285 207.19185818 242.30436776 213.08107967 239.01611328 218.95361328 C235.53233928 225.18625022 232.13632834 231.46398318 228.75 237.75 C224.38510222 245.84665972 219.92751123 253.88239539 215.375 261.875 C211.06015209 269.45171693 206.88738701 277.07865265 202.89453125 284.82983398 C200.54823101 289.35039161 198.08803232 293.78103541 195.51953125 298.1796875 C194.91560547 299.21931641 194.31167969 300.25894531 193.68945312 301.33007812 C192.50139033 303.36474757 191.30128207 305.39244253 190.08789062 307.41210938 C189.28061523 308.7975293 189.28061523 308.7975293 188.45703125 310.2109375 C187.72770386 311.43562744 187.72770386 311.43562744 186.98364258 312.68505859 C185.8366475 315.64541855 186.10299077 317.0650792 187.0625 320.0625 C188.00114129 322.13183393 188.00114129 322.13183393 189.21484375 324.109375 C189.65715332 324.86428223 190.09946289 325.61918945 190.55517578 326.39697266 C191.03196777 327.19409668 191.50875977 327.9912207 192 328.8125 C192.48710449 329.63927246 192.97420898 330.46604492 193.47607422 331.31787109 C194.49107622 333.03947443 195.50902169 334.75934551 196.52978516 336.47753906 C198.02382435 338.99727257 199.50450973 341.52432864 200.98046875 344.0546875 C201.88263106 345.59906434 202.78496719 347.14333965 203.6875 348.6875 C204.11281006 349.41549805 204.53812012 350.14349609 204.97631836 350.89355469 C206.76500481 354.16484392 206.76500481 354.16484392 209.0625 357.0625 C211.03124289 357.09163013 213.00111692 357.04879279 214.96875 356.9765625 C216.18820312 356.93273437 217.40765625 356.88890625 218.6640625 356.84375 C219.95054687 356.7921875 221.23703125 356.740625 222.5625 356.6875 C223.81804688 356.64367187 225.07359375 356.59984375 226.3671875 356.5546875 C232.97931224 356.30517336 239.49892538 355.90434979 246.0625 355.0625 C247.89355924 349.97805725 249.06454706 344.86254091 250.18774414 339.58959961 C250.39221098 338.64291444 250.59667782 337.69622927 250.80734062 336.72085667 C251.49068198 333.55287316 252.16916196 330.38386862 252.84765625 327.21484375 C253.33716786 324.9405728 253.82696692 322.6663637 254.31703186 320.39221191 C255.64681824 314.21667286 256.97222946 308.04020276 258.2964859 301.8634758 C259.54174444 296.05666303 260.78919534 290.25032147 262.03640223 284.44392693 C263.91481483 275.69849127 265.79215183 266.95282582 267.66711426 258.20664978 C270.97322275 242.78560226 274.28837057 227.36655217 277.6163168 211.95020199 C279.96898743 201.0513498 282.31634417 190.15136247 284.6594553 179.25045109 C286.06199945 172.72617564 287.46732793 166.202519 288.87869263 159.68014526 C290.2051053 153.54959622 291.52413236 147.41750521 292.83743095 141.28413391 C293.32199423 139.0275156 293.80928001 136.77148 294.29942513 134.5160675 C294.96612235 131.44637341 295.62320825 128.37477795 296.27783203 125.30249023 C296.47597535 124.40122375 296.67411867 123.49995726 296.87826633 122.57137966 C297.05106082 121.75069531 297.2238553 120.93001097 297.40188599 120.0844574 C297.55469591 119.3750875 297.70750584 118.6657176 297.86494637 117.93485165 C298.21703155 115.83605124 298.21703155 115.83605124 297.0625 113.0625 Z M-91.9375 349.0625 C-85.81410876 356.41056949 -79.26648221 363.12681539 -71.91015625 369.25 C-69.9375 371.0625 -69.9375 371.0625 -68.18359375 373.3125 C-66.2123071 375.76489981 -64.64163369 377.43485265 -61.9375 379.0625 C-56.7939308 379.58616655 -52.01658443 378.91599563 -46.9375 378.0625 C-45.24753906 377.79373047 -45.24753906 377.79373047 -43.5234375 377.51953125 C-40.98123075 377.0826921 -38.45946903 376.60254742 -35.9375 376.0625 C-39.45415658 373.15580124 -43.36940998 371.25558277 -47.45703125 369.296875 C-48.56047127 368.76214569 -48.56047127 368.76214569 -49.686203 368.21661377 C-52.03888392 367.07789068 -54.39443335 365.94523942 -56.75 364.8125 C-58.29119473 364.0667763 -59.83221204 363.32068579 -61.37304688 362.57421875 C-65.88808038 360.39007646 -70.41092499 358.22260758 -74.9375 356.0625 C-75.67256775 355.71098877 -76.4076355 355.35947754 -77.16497803 354.99731445 C-79.25755859 353.99877021 -81.3528054 353.00609273 -83.44921875 352.015625 C-84.07770218 351.715495 -84.70618561 351.41536499 -85.35371399 351.10614014 C-88.5090028 349.55237939 -88.5090028 349.55237939 -91.9375 349.0625 Z M158.0625 367.0625 C157.11890625 368.76792969 157.11890625 368.76792969 156.15625 370.5078125 C150.86113027 380.06604924 145.54244948 389.60863796 140.0625 399.0625 C139.57652344 399.99449219 139.09054687 400.92648437 138.58984375 401.88671875 C137.0625 404.0625 137.0625 404.0625 135.29925537 404.69799805 C132.73188288 405.11637741 130.34855201 405.12471023 127.74707031 405.0703125 C120.50670104 405.01116945 113.33135317 405.45738318 106.109375 405.9375 C104.71407186 406.02751591 103.31874666 406.11719054 101.92340088 406.20654297 C98.29341417 406.43989413 94.663741 406.67780519 91.03411865 406.91674805 C87.31329251 407.1608573 83.59218141 407.40054117 79.87109375 407.640625 C72.60128055 408.11031296 65.3317936 408.58483044 58.0625 409.0625 C57.7325 411.7025 57.4025 414.3425 57.0625 417.0625 C55.50390625 417.77734375 55.50390625 417.77734375 53.0625 418.0625 C49.98690799 416.72035699 47.09128469 415.2351432 44.16601562 413.59960938 C35.42262842 409.10585194 25.00235815 411.09012834 15.48828125 411.71875 C14.43843552 411.78533813 13.38858978 411.85192627 12.30693054 411.92053223 C8.9960694 412.13126983 5.68554114 412.3467997 2.375 412.5625 C0.11265059 412.70734999 -2.14971906 412.85188415 -4.41210938 412.99609375 C-9.920812 413.34791533 -15.42925045 413.70365826 -20.9375 414.0625 C-21.2691795 417.33216866 -21.2691795 417.33216866 -18.375 419.953125 C-17.23741821 421.08129834 -16.09102841 422.20063687 -14.9375 423.3125 C-14.04164185 424.19192261 -14.04164185 424.19192261 -13.12768555 425.08911133 C-9.49162967 428.63459806 -5.7674371 432.03836389 -1.89453125 435.32421875 C1.42059665 438.26879343 4.47884161 441.47163595 7.59375 444.625 C10.44851162 447.44362539 13.41678137 450.08582182 16.46875 452.6875 C20.03245708 455.76207082 20.03245708 455.76207082 20.40625 459.5 C20.26682497 465.00728886 18.39927723 469.92094212 16.5625 475.0625 C16.22863281 476.02800781 15.89476562 476.99351562 15.55078125 477.98828125 C14.73222571 480.35039866 13.90266314 482.70800025 13.0625 485.0625 C13.97773438 485.25585938 14.89296875 485.44921875 15.8359375 485.6484375 C17.02445312 485.90882813 18.21296875 486.16921875 19.4375 486.4375 C20.62085938 486.69273437 21.80421875 486.94796875 23.0234375 487.2109375 C26.0625 488.0625 26.0625 488.0625 28.0625 490.0625 C30.10239974 494.15459714 30.55908543 498.20368485 30.93212891 502.69848633 C31.00069595 503.45024139 31.069263 504.20199646 31.13990784 504.97653198 C31.3635698 507.44860764 31.57637355 509.92148942 31.7890625 512.39453125 C31.94247607 514.11380399 32.0965689 515.83301624 32.25131226 517.5521698 C32.65591424 522.06756458 33.0513015 526.58372034 33.44476318 531.10009766 C33.84822892 535.71241001 34.26042086 540.32394152 34.671875 544.93554688 C35.47728329 553.97712246 36.2729571 563.01952616 37.0625 572.0625 C38.80472611 570.96187877 40.54589295 569.85958066 42.28662109 568.7565918 C43.74121231 567.83610298 43.74121231 567.83610298 45.22518921 566.89701843 C49.14988973 564.35942704 52.92284349 561.6420983 56.6875 558.875 C58.25074882 557.73621929 59.81456464 556.59821658 61.37890625 555.4609375 C62.1589502 554.89342773 62.93899414 554.32591797 63.74267578 553.74121094 C67.34935944 551.13128073 70.98475646 548.56282606 74.625 546 C75.32262451 545.50854492 76.02024902 545.01708984 76.73901367 544.51074219 C79.54742421 542.5335277 82.35723728 540.55831115 85.16699219 538.58300781 C93.16693349 532.95671623 101.14154066 527.29960355 109.0625 521.5625 C117.08873639 515.75057801 125.15177389 509.99446037 133.27539062 504.31933594 C134.85488409 503.20851184 136.42072581 502.07833103 137.984375 500.9453125 C138.77328125 500.38585937 139.5621875 499.82640625 140.375 499.25 C141.01050781 498.78980469 141.64601563 498.32960938 142.30078125 497.85546875 C144.0625 497.0625 144.0625 497.0625 146.08203125 497.109375 C148.98301554 498.50550945 149.82050878 500.34831146 151.4375 503.125 C151.76927246 503.68662842 152.10104492 504.24825684 152.44287109 504.8269043 C153.21453543 506.13832411 153.97981729 507.45351107 154.74023438 508.77148438 C156.21609032 511.32861736 157.70890182 513.87543239 159.203125 516.421875 C162.2131008 521.55937009 165.20750376 526.70577993 168.19824219 531.85449219 C171.23079092 537.07289061 174.2714583 542.28654771 177.3125 547.5 C177.89765381 548.50353516 178.48280762 549.50707031 179.08569336 550.54101562 C182.84919757 556.99243375 186.63088366 563.432848 190.42431641 569.86669922 C195.35280591 578.23672238 200.20654904 586.65025448 205.0625 595.0625 C208.23126893 592.14817977 210.25952835 589.27879541 212.3125 585.50390625 C212.91489502 584.4061084 213.51729004 583.30831055 214.13793945 582.17724609 C214.45171539 581.59803406 214.76549133 581.01882202 215.08877563 580.42205811 C216.41160129 577.98071571 217.74976436 575.5479043 219.0872345 573.11456299 C219.76699772 571.87762231 220.44602221 570.64027538 221.12431335 569.40252686 C225.97804891 560.5512119 231.00898316 551.80090957 236.0625 543.0625 C236.54154785 542.23347168 237.0205957 541.40444336 237.51416016 540.55029297 C238.90071786 538.15584155 240.29271887 535.76466889 241.6875 533.375 C242.30878784 532.30451416 242.30878784 532.30451416 242.94262695 531.21240234 C244.49151481 528.57403975 245.88946863 526.23553137 248.0625 524.0625 C250.08731079 523.82199097 250.08731079 523.82199097 252.60400391 523.83544922 C254.01524033 523.83567581 254.01524033 523.83567581 255.45498657 523.83590698 C256.47273163 523.84622955 257.49047668 523.85655212 258.5390625 523.8671875 C259.57944672 523.8700174 260.61983093 523.87284729 261.69174194 523.87576294 C265.02377694 523.88698296 268.35554586 523.91209085 271.6875 523.9375 C273.94270446 523.94752744 276.19791312 523.9566537 278.453125 523.96484375 C283.98967454 523.98692822 289.52606827 524.02042361 295.0625 524.0625 C295.03220703 523.08192627 295.00191406 522.10135254 294.97070312 521.09106445 C294.41915761 503.07987752 293.87212657 485.08451775 294.0625 467.0625 C289.77220979 464.68500686 285.48034947 462.31036786 281.1875 459.9375 C280.54011871 459.57957367 279.89273743 459.22164734 279.22573853 458.85287476 C268.70854359 453.04121413 258.15182293 447.30964731 247.54150391 441.66943359 C241.90600828 438.65868935 236.43491979 435.52215862 231.0625 432.0625 C231.77977032 425.65991861 232.89117445 419.38422104 234.125 413.0625 C234.31126953 412.09699219 234.49753906 411.13148438 234.68945312 410.13671875 C235.14481343 407.77818591 235.60254287 405.42013989 236.0625 403.0625 C229.0617255 403.51258736 222.10146323 404.12900346 215.14453125 405.03515625 C214.46929413 405.12300385 213.79405701 405.21085144 213.09835815 405.30136108 C210.32311351 405.66541432 207.54853401 406.03410462 204.7746582 406.40844727 C196.85226268 407.47209794 189.07198879 408.39687788 181.0625 408.0625 C168.51351868 385.32847373 168.51351868 385.32847373 163.5625 374.90039062 C162.04705581 371.76510498 160.59415972 369.43595861 158.0625 367.0625 Z M484.40257263 371.04283142 C483.55552971 371.14829822 482.7084868 371.25376501 481.83577591 371.36242777 C479.01034697 371.71529476 476.18573618 372.07432196 473.36108398 372.43334961 C471.33044984 372.68824971 469.29976823 372.94277197 467.26904297 373.19694519 C461.76253269 373.88728042 456.25671305 374.58298711 450.7510097 375.27972484 C444.98729706 376.00825399 439.22299153 376.732062 433.45875549 377.45643616 C423.78016328 378.67340008 414.10198137 379.89358283 404.42407227 381.1159668 C392.00352817 382.68475002 379.58234787 384.24843431 367.16094875 385.81043148 C356.47900085 387.15371196 345.79732052 388.49911548 335.11569715 389.8449738 C331.68331283 390.27737914 328.25089722 390.7095355 324.81847954 391.14167595 C319.4248958 391.8208832 314.03147984 392.50140819 308.63819122 393.18295479 C306.65892482 393.432895 304.67960735 393.68243117 302.70023537 393.93153381 C299.99849493 394.27162807 297.29694678 394.61321092 294.59544373 394.95518494 C293.81226932 395.05343675 293.0290949 395.15168857 292.22218794 395.25291771 C288.15175063 395.76994934 284.10455221 396.3565798 280.0625 397.0625 C279.29946229 399.733132 278.63747007 402.34993957 278.0625 405.0625 C277.82273437 406.08537109 277.82273437 406.08537109 277.578125 407.12890625 C277.27076233 409.43864635 277.35696808 410.83401255 278.0625 413.0625 C279.79144121 414.71632079 279.79144121 414.71632079 282.1171875 416.15625 C283.02597656 416.76154541 283.93476562 417.36684082 284.87109375 417.99047852 C285.92425781 418.67424561 286.97742188 419.3580127 288.0625 420.0625 C289.272841 420.8621329 290.48244171 421.66288715 291.69140625 422.46459961 C295.76316436 425.15884095 299.8496962 427.83019161 303.9375 430.5 C306.02291296 431.86365129 308.10801888 433.22776495 310.19244385 434.59292603 C311.54928771 435.48039152 312.90746656 436.36581959 314.26702881 437.24911499 C317.40701589 439.29410673 320.51565558 441.3646055 323.56738281 443.53955078 C324.62022461 444.28060059 325.67306641 445.02165039 326.7578125 445.78515625 C327.66805176 446.44394775 328.57829102 447.10273926 329.51611328 447.78149414 C331.95903038 449.27656466 331.95903038 449.27656466 334.54882812 448.91821289 C337.32133719 447.97438575 339.93177707 446.88926764 342.5859375 445.6484375 C343.67326172 445.14248047 344.76058594 444.63652344 345.88085938 444.11523438 C347.05455078 443.56158203 348.22824219 443.00792969 349.4375 442.4375 C350.68282701 441.85457047 351.92827223 441.27189342 353.17382812 440.68945312 C362.99987369 436.08264691 372.76721987 431.35531919 382.52563477 426.60733032 C391.6197411 422.18307522 400.75128524 417.85590805 409.9375 413.625 C420.20829431 408.89364208 430.39871015 404.01837076 440.5625 399.0625 C454.3449289 392.34313428 468.20760855 385.82450268 482.13574219 379.41210938 C486.20070704 377.5376411 490.25756754 375.64605177 494.3125 373.75 C496.02179688 372.95142578 496.02179688 372.95142578 497.765625 372.13671875 C498.90257812 371.60498047 498.90257812 371.60498047 500.0625 371.0625 C500.0625 370.7325 500.0625 370.4025 500.0625 370.0625 C494.74873377 369.95246105 489.66965074 370.36512652 484.40257263 371.04283142 Z M-86.84110641 418.20838547 C-90.47903655 418.40803773 -94.1151036 418.63050542 -97.75146484 418.85693359 C-99.14986214 418.94251578 -100.54826941 419.02793524 -101.94668579 419.11320496 C-106.51413653 419.39257995 -111.08129353 419.67659878 -115.6484375 419.9609375 C-117.22313941 420.05873297 -118.79784264 420.15650739 -120.37254715 420.25426102 C-126.91651495 420.66077937 -133.46041112 421.06841748 -140.00411034 421.47923851 C-149.37945329 422.06782662 -158.75515445 422.64975819 -168.13148725 423.22236955 C-174.72989346 423.62585294 -181.32781838 424.03666221 -187.92542422 424.45302641 C-191.8659781 424.70152284 -195.80667255 424.94677562 -199.74790573 425.18427658 C-203.44698003 425.40735932 -207.14537574 425.63946053 -210.84344101 425.87867165 C-212.85500438 426.00642588 -214.86717033 426.12457701 -216.8793335 426.24250793 C-218.06540192 426.32098465 -219.25147034 426.39946136 -220.47348022 426.48031616 C-221.51062353 426.54484167 -222.54776684 426.60936718 -223.61633873 426.67584801 C-224.38232195 426.80344316 -225.14830517 426.93103832 -225.9375 427.0625 C-226.2675 427.7225 -226.5975 428.3825 -226.9375 429.0625 C-199.08876643 435.59127866 -171.2377018 442.11006032 -143.38463211 448.62031555 C-137.55446446 449.98306541 -131.72437888 451.34616456 -125.89447021 452.71002197 C-113.18368459 455.68356112 -100.47228771 458.65444106 -87.75912762 461.61781406 C-82.23679372 462.90510365 -76.71481948 464.19389053 -71.19369507 465.48635864 C-65.99059411 466.70430121 -60.7865365 467.91806604 -55.58170509 469.12859154 C-53.66507344 469.57511775 -51.7487941 470.02315922 -49.83289146 470.47280312 C-47.21879032 471.0860524 -44.60348272 471.69386128 -41.98779297 472.30029297 C-41.22392367 472.48084512 -40.46005438 472.66139727 -39.67303753 472.84742069 C-36.3018805 473.6233652 -33.420688 474.0625 -29.9375 474.0625 C-31.43756391 470.61470914 -33.44159262 468.23889467 -36 465.5 C-39.17535117 462.03689841 -42.23578184 458.53054744 -45.1875 454.875 C-49.85303789 449.11407495 -54.70232941 443.52679789 -59.5703125 437.9375 C-63.46164164 433.46825069 -67.31209039 428.96432063 -71.15551758 424.45385742 C-73.03018831 422.2591603 -74.89560376 420.10439624 -76.9375 418.0625 C-80.27035412 417.8517221 -83.50731146 418.0408861 -86.84110641 418.20838547 Z M339.125 500.6875 C338.35808838 501.12175293 337.59117676 501.55600586 336.80102539 502.00341797 C333.64795112 504.10406752 331.49642209 505.74486521 330.28808594 509.4140625 C329.56732474 515.0424544 330.18620756 520.48401086 331.0625 526.0625 C368.5328886 528.46344021 368.5328886 528.46344021 406.0625 529.0625 C403.24262952 526.8495808 400.39285222 525.06629608 397.23046875 523.3828125 C396.277771 522.87218262 395.32507324 522.36155273 394.34350586 521.83544922 C392.81222046 521.01971436 392.81222046 521.01971436 391.25 520.1875 C381.63013476 515.0289896 372.09792483 509.73847231 362.6394043 504.28955078 C360.12784741 502.85327472 357.59785934 501.45613116 355.0625 500.0625 C354.43931885 499.6804541 353.8161377 499.2984082 353.17407227 498.90478516 C347.77169502 495.93947172 344.06294044 497.87384363 339.125 500.6875 Z M281.6875 573.25 C280.6459375 573.35119141 279.604375 573.45238281 278.53125 573.55664062 C274.06174998 574.08532189 270.91359639 574.45789601 267.203125 577.09375 C264.3291044 581.07961799 261.7150781 585.16197796 259.1875 589.375 C258.04242564 591.25567066 256.89655976 593.13585955 255.75 595.015625 C255.151875 595.99982422 254.55375 596.98402344 253.9375 597.99804688 C250.13404021 604.21432648 246.23661893 610.37252113 242.35205078 616.53833008 C238.11164452 623.29869277 234.04639837 630.14801379 230.0625 637.0625 C238.53103804 652.01893606 247.09457906 666.89738024 255.97900391 681.61157227 C259.67725139 687.73977376 263.28476601 693.90057056 266.8046875 700.1328125 C270.33306176 706.32347489 274.0143619 712.4260267 277.65847778 718.54898071 C281.60391467 725.18097881 285.5207719 731.827266 289.36328125 738.51953125 C289.70833206 739.12024445 290.05338287 739.72095764 290.40888977 740.33987427 C292.06626807 743.22791037 293.71847987 746.11871618 295.36547852 749.01269531 C296.24804321 750.55521973 296.24804321 750.55521973 297.1484375 752.12890625 C297.6645459 753.03584229 298.1806543 753.94277832 298.71240234 754.87719727 C300.00754015 757.16081484 300.00754015 757.16081484 302.0625 759.0625 C301.02421179 719.01635194 299.90894523 678.97264867 298.69790649 638.93133545 C298.56616565 634.57545372 298.43565967 630.21953784 298.3062439 625.86358643 C298.15184054 620.67129351 297.99459496 615.47909393 297.83522797 610.28695107 C297.77686991 608.3727625 297.71939657 606.45854671 297.66291046 604.54430199 C297.34191776 593.69628351 296.88328295 582.88537312 296.0625 572.0625 C291.23375949 572.0625 286.48041323 572.69946267 281.6875 573.25 Z M-18.9375 575.0625 C-23.32348896 585.15566465 -27.04605347 595.45499699 -30.75 605.8125 C-31.35323765 607.49228735 -31.95675138 609.17197558 -32.56054688 610.8515625 C-34.02271099 614.92074132 -35.48115188 618.99123622 -36.9375 623.0625 C-33.42387989 623.0625 -32.53770288 622.35598511 -29.69921875 620.39453125 C-28.87873047 619.83056641 -28.05824219 619.26660156 -27.21289062 618.68554688 C-25.93188477 617.78932617 -25.93188477 617.78932617 -24.625 616.875 C-23.78259766 616.29685547 -22.94019531 615.71871094 -22.07226562 615.12304688 C-17.50329197 611.96156002 -13.13722953 608.70043863 -8.9375 605.0625 C-10.33597468 598.17607167 -12.28764777 591.64423303 -14.5625 585 C-15.04976563 583.55850586 -15.04976563 583.55850586 -15.546875 582.08789062 C-16.33961192 579.74465356 -17.13654576 577.40293824 -17.9375 575.0625 C-18.2675 575.0625 -18.5975 575.0625 -18.9375 575.0625 Z M152.0625 580.0625 C153.47354241 589.74150635 155.18609796 599.34921383 157.03125 608.953125 C157.17034286 609.67913658 157.30943573 610.40514816 157.45274353 611.1531601 C158.18495266 614.97390306 158.92008639 618.79406927 159.65771484 622.61376953 C160.4185039 626.55665669 161.16878288 630.50147172 161.91689301 634.44678116 C162.49619029 637.49153003 163.08314645 640.53476511 163.67225647 643.57762909 C163.95265368 645.03318632 164.23012304 646.4893107 164.50462341 647.94599152 C164.88624237 649.96728967 165.27862568 651.98620333 165.67382812 654.00488281 C165.8942981 655.15369934 166.11476807 656.30251587 166.34191895 657.48614502 C166.57971069 658.33634216 166.81750244 659.18653931 167.0625 660.0625 C167.7225 660.3925 168.3825 660.7225 169.0625 661.0625 C169.47089111 660.33135986 169.87928223 659.60021973 170.30004883 658.84692383 C171.82579278 656.11626892 173.35223854 653.38600786 174.87915039 650.65600586 C175.86072596 648.90052811 176.84150173 647.14460323 177.82226562 645.38867188 C178.44423828 644.27685547 179.06621094 643.16503906 179.70703125 642.01953125 C180.56325073 640.48776245 180.56325073 640.48776245 181.43676758 638.92504883 C183.0625 636.0625 183.0625 636.0625 184.8972168 633.56518555 C186.36852522 631.05950231 186.36852522 631.05950231 185.44311523 628.12768555 C184.04642756 625.02681663 182.58138616 622.01629631 180.97265625 619.01953125 C180.35801514 617.87129883 179.74337402 616.72306641 179.11010742 615.54003906 C178.44887384 614.31810553 177.78716235 613.09643049 177.125 611.875 C176.79190826 611.25765991 176.45881653 610.64031982 176.1156311 610.00427246 C171.74020649 601.896138 167.3155996 593.81539638 162.75 585.8125 C162.30084229 585.01561768 161.85168457 584.21873535 161.38891602 583.39770508 C160.33903138 581.5838958 159.20951344 579.81650172 158.0625 578.0625 C155.59971199 578.0625 154.21025881 578.91702863 152.0625 580.0625 Z M74.0625 618.0625 C71.66832488 619.04691572 69.39762515 620.09237659 67.0859375 621.24609375 C66.40069 621.58044937 65.7154425 621.91480499 65.00942993 622.2592926 C62.81506599 623.33212297 60.62631446 624.41589928 58.4375 625.5 C56.95348076 626.22793926 55.46910996 626.9551623 53.984375 627.68164062 C50.3396142 629.46696588 46.69985042 631.26212831 43.0625 633.0625 C43.53544964 643.45246392 44.1289859 653.82226181 45 664.1875 C45.07460449 665.15316895 45.14920898 666.11883789 45.22607422 667.11376953 C45.30486816 668.00692871 45.38366211 668.90008789 45.46484375 669.8203125 C45.53179443 670.6158252 45.59874512 671.41133789 45.66772461 672.23095703 C45.79800049 672.83536621 45.92827637 673.43977539 46.0625 674.0625 C46.7225 674.3925 47.3825 674.7225 48.0625 675.0625 C57.3025 656.5825 66.5425 638.1025 76.0625 619.0625 C75.4025 618.7325 74.7425 618.4025 74.0625 618.0625 Z " fill="#315B79" transform="translate(343.9375,50.9375)"/>
<path d="M0 0 C2.7446198 1.41389505 3.11148673 3.19656839 4.16308594 5.98974609 C5.16017036 8.28758724 6.3990539 10.17045001 7.828125 12.2265625 C10.95329027 16.83493666 13.71817457 21.58173168 16.4375 26.4375 C21.14985783 34.76944065 25.97768899 43.02549919 30.875 51.25 C36.17207833 60.14900315 41.4050271 69.08157144 46.5625 78.0625 C52.14311468 87.78005827 57.81702811 97.43748836 63.54443359 107.06884766 C67.70782906 114.07101158 71.8170597 121.09323718 75.828125 128.18359375 C79.08032142 133.87493748 82.46191008 139.49128096 85.8125 145.125 C91.19548211 154.17685104 96.49899176 163.26806739 101.69873047 172.42675781 C105.74456802 179.54010813 109.89522143 186.58804282 114.06933594 193.62670898 C119.86239185 203.39840819 125.5801809 213.21348276 131.29638672 223.03027344 C133.63491291 227.04527141 135.97594163 231.05880448 138.31835938 235.0715332 C139.47399124 237.05328656 140.62766291 239.03618439 141.77929688 241.02026367 C144.83841036 246.28493562 147.93597081 251.52192589 151.08984375 256.73046875 C151.74404297 257.82166016 152.39824219 258.91285156 153.07226562 260.03710938 C154.33124717 262.13541196 155.60162097 264.2269327 156.88476562 266.31054688 C157.44744141 267.25349609 158.01011719 268.19644531 158.58984375 269.16796875 C159.09249756 269.99449951 159.59515137 270.82103027 160.11303711 271.67260742 C161.29293715 274.64253323 161.05679582 276.05444435 160.0625 279.0625 C159.02197266 280.93676758 159.02197266 280.93676758 157.7265625 282.70703125 C157.24445313 283.37645752 156.76234375 284.04588379 156.265625 284.7355957 C155.74484375 285.44159912 155.2240625 286.14760254 154.6875 286.875 C153.59523828 288.38460991 152.50412039 289.89504799 151.4140625 291.40625 C150.85750977 292.17453125 150.30095703 292.9428125 149.72753906 293.734375 C146.63628802 298.05668731 143.67371177 302.46870931 140.71728516 306.8840332 C138.41097543 310.28190234 136.10663993 313.26499177 133.0625 316.0625 C123.82234122 299.76551109 115.47301564 283.04882538 107.15771484 266.26660156 C102.404547 256.68344636 97.57386709 247.15475243 92.56344604 237.70332336 C88.94878964 230.87785573 85.48587557 223.98613545 82.0625 217.0625 C78.14964429 209.18229496 74.20021531 201.3276124 70.0625 193.5625 C65.6032299 185.19393644 61.37085814 176.71637268 57.14950562 168.22625732 C53.10175277 160.08941889 48.97186676 152.00556283 44.70166016 143.9831543 C40.45681917 135.98149666 36.42650343 127.87398815 32.39707947 119.76228333 C31.95947768 118.8813693 31.5218759 118.00045527 31.07101345 117.09284687 C30.73820401 116.4228324 30.40539457 115.75281794 30.0625 115.0625 C31.59769654 137.72967087 33.90136051 160.31831785 36.16307449 182.92199516 C36.86416962 189.92916901 37.56021095 196.93683961 38.25546265 203.94459534 C40.23102957 223.84948644 42.21356379 243.75368105 44.20019531 263.6574707 C45.302148 274.69823332 46.40020675 285.73937654 47.49414861 296.78093582 C48.18381931 303.73961312 48.87832465 310.6977851 49.57651162 317.65561283 C50.00932742 321.98021608 50.43761766 326.30525878 50.86465645 330.63043594 C51.06271495 332.62721056 51.26261206 334.62380383 51.46453285 336.62019157 C53.42081297 355.9807729 53.42081297 355.9807729 53.0625 365.0625 C33.16852242 367.80916666 13.26308917 370.47496707 -6.65722656 373.02386475 C-8.79775619 373.2990235 -10.93789897 373.57720907 -13.07763672 373.85845947 C-16.10153227 374.25515456 -19.12666109 374.64064464 -22.15234375 375.0234375 C-23.5048246 375.20425873 -23.5048246 375.20425873 -24.8846283 375.38873291 C-33.17042101 376.41400002 -38.68272598 374.98495835 -46.0546875 371.2734375 C-46.8295047 370.89192535 -47.6043219 370.51041321 -48.40261841 370.11734009 C-50.87629475 368.89807686 -53.344657 367.66852157 -55.8125 366.4375 C-59.03671402 364.83636409 -62.26333263 363.2401935 -65.4921875 361.6484375 C-66.27905945 361.26016785 -67.0659314 360.87189819 -67.87664795 360.47186279 C-75.45889136 356.75723763 -83.16807703 353.36426998 -90.9375 350.0625 C-81.63069988 359.52740582 -81.63069988 359.52740582 -71.79296875 368.4296875 C-68.34107604 371.46735309 -65.14882043 374.77431285 -61.9375 378.0625 C-62.2675 378.7225 -62.5975 379.3825 -62.9375 380.0625 C-65.85352706 380.61242311 -68.7026874 381.03605037 -71.64453125 381.38671875 C-72.52147141 381.49724075 -73.39841156 381.60776276 -74.30192566 381.72163391 C-76.16174972 381.95374387 -78.02215372 382.18124549 -79.88305664 382.40454102 C-82.72907308 382.74747836 -85.57246438 383.10795368 -88.41601562 383.47070312 C-90.22122378 383.69376607 -92.02655885 383.91580477 -93.83203125 384.13671875 C-94.68320023 384.24497482 -95.5343692 384.3532309 -96.41133118 384.46476746 C-97.60728157 384.60535332 -97.60728157 384.60535332 -98.82739258 384.7487793 C-99.52608963 384.83379196 -100.22478668 384.91880463 -100.94465637 385.00639343 C-103.16377247 385.06887048 -104.84058926 384.78677612 -106.9375 384.0625 C-108.83984375 382.0859375 -108.83984375 382.0859375 -110.875 379.4375 C-114.55853972 374.76967016 -118.33861662 370.22867884 -122.25 365.75 C-123.36997925 364.46370497 -124.4897699 363.17724571 -125.609375 361.890625 C-126.44178711 360.93446289 -126.44178711 360.93446289 -127.29101562 359.95898438 C-129.87387409 356.98394811 -132.43806914 353.9930594 -135 351 C-135.49089111 350.42660889 -135.98178223 349.85321777 -136.48754883 349.26245117 C-137.47635203 348.10719482 -138.46504049 346.95184024 -139.45361328 345.79638672 C-141.94645524 342.88355954 -144.44212766 339.97315939 -146.9375 337.0625 C-147.9375134 335.89584482 -148.93751341 334.72917816 -149.9375 333.5625 C-150.68 332.69625 -150.68 332.69625 -151.4375 331.8125 C-152.9375 330.0625 -154.4375 328.3125 -155.9375 326.5625 C-156.68012085 325.69612915 -156.68012085 325.69612915 -157.43774414 324.81225586 C-158.43698396 323.64644896 -159.43617023 322.48059614 -160.43530273 321.31469727 C-162.94649461 318.38449602 -165.45863393 315.45511709 -167.97265625 312.52734375 C-172.81326612 306.88828276 -177.64236835 301.24030898 -182.4375 295.5625 C-186.44321621 290.82035278 -190.4641795 286.09156131 -194.5 281.375 C-195.26957031 280.47394531 -195.26957031 280.47394531 -196.0546875 279.5546875 C-197.96295478 277.32751841 -199.86277649 275.13722351 -201.9375 273.0625 C-201.5625 270.9375 -201.5625 270.9375 -200.9375 269.0625 C-198.26743815 268.02320003 -197.0991291 268.00811188 -194.34155273 268.93603516 C-193.36130127 269.40315918 -192.3810498 269.8702832 -191.37109375 270.3515625 C-189.70433594 271.13563477 -189.70433594 271.13563477 -188.00390625 271.93554688 C-186.79415283 272.51928675 -185.5845207 273.10327807 -184.375 273.6875 C-183.11504792 274.28548507 -181.85462323 274.88247527 -180.59375 275.47851562 C-176.70056055 277.32379544 -172.81840923 279.19156411 -168.9375 281.0625 C-167.78008301 281.61905273 -166.62266602 282.17560547 -165.43017578 282.74902344 C-160.98049551 284.8895722 -156.53207321 287.03264392 -152.08764648 289.18408203 C-144.07406296 293.05759476 -136.01832069 296.83151065 -127.9375 300.5625 C-117.59810728 305.33629287 -107.32251493 310.22791439 -97.07324219 315.19189453 C-89.14774658 319.02144073 -81.18050765 322.75118601 -73.1875 326.4375 C-62.05643762 331.57299574 -51.00585682 336.85565933 -39.99707031 342.24755859 C-31.1828467 346.54732862 -22.30194987 350.69524239 -13.40429688 354.81835938 C-12.09419415 355.42595375 -10.78411503 356.03359904 -9.47406006 356.64129639 C-6.29547848 358.11561752 -3.11657865 359.58925094 0.0625 361.0625 C0.05403612 360.42765139 0.04557224 359.79280278 0.03685188 359.13871634 C-0.46798224 321.26634243 -0.96929906 283.39392342 -1.46622908 245.52144495 C-1.52628926 240.94430933 -1.58637798 236.36717408 -1.64648438 231.79003906 C-1.65844683 230.87905462 -1.67040929 229.96807018 -1.68273425 229.02948014 C-1.87490167 214.40038511 -2.06936518 199.77132149 -2.26472163 185.14226873 C-2.46606534 170.06091375 -2.66483882 154.97952637 -2.86136818 139.89810789 C-2.9714375 131.45689581 -3.0826025 123.01570145 -3.19671631 114.574543 C-4.01495455 53.94784155 -4.01495455 53.94784155 -4.10519028 25.96178126 C-4.11310148 23.7830143 -4.12419108 21.60425623 -4.13867569 19.42552304 C-4.1568897 16.49937398 -4.16232768 13.57350677 -4.16357422 10.64730835 C-4.17111095 9.79440145 -4.17864769 8.94149456 -4.18641281 8.06274199 C-4.15931068 0.13417131 -4.15931068 0.13417131 0 0 Z " fill="#5B89AC" transform="translate(343.9375,50.9375)"/>
<path d="M0 0 C1.09421417 -0.01643487 1.09421417 -0.01643487 2.21053368 -0.03320175 C7.04259388 -0.02066906 7.04259388 -0.02066906 9.2848053 2.22154236 C9.6598053 5.13951111 9.6598053 5.13951111 9.2848053 8.22154236 C7.6598053 10.02232361 7.6598053 10.02232361 5.2848053 11.53404236 C4.36441467 12.12443298 3.44402405 12.71482361 2.4957428 13.32310486 C-1.68139363 15.79279866 -5.89231324 18.1932655 -10.13853455 20.542099 C-15.61035004 23.57116219 -20.98618377 26.73926914 -26.3401947 29.97154236 C-33.33990234 34.19572428 -40.35833354 38.38471945 -47.4026947 42.53404236 C-55.21852525 47.14028045 -63.00532154 51.79238815 -70.7776947 56.47154236 C-80.09452268 62.07804485 -89.45410612 67.60718357 -98.8401947 73.09654236 C-107.80770986 78.34160288 -116.76140916 83.60451778 -125.65367126 88.97642517 C-140.06241238 97.67900448 -154.51409715 106.30042446 -169.04774475 114.7922821 C-178.82282001 120.50515569 -188.55184208 126.28890627 -198.2464447 132.13755798 C-200.11693383 133.2652397 -201.99070986 134.38749073 -203.86802673 135.50376892 C-205.90275495 136.73137548 -207.91742431 137.99247966 -209.91783142 139.2752533 C-210.97373474 139.93557556 -212.02963806 140.59589783 -213.11753845 141.27622986 C-214.07007507 141.88708435 -215.02261169 142.49793884 -216.00401306 143.12730408 C-218.7151947 144.22154236 -218.7151947 144.22154236 -221.40245056 143.50132751 C-224.1210861 141.9969374 -226.73520451 140.41781504 -229.3401947 138.72154236 C-229.90560974 138.35424011 -230.47102478 137.98693787 -231.05357361 137.60850525 C-242.33699099 130.24298083 -253.51584656 122.71402987 -264.7151947 115.22154236 C-262.27276597 112.42347965 -259.75426728 111.13243616 -256.3870697 109.61216736 C-255.29330017 109.11265564 -254.19953064 108.61314392 -253.07261658 108.09849548 C-251.88216736 107.56160095 -250.69171814 107.02470642 -249.4651947 106.47154236 C-246.90587728 105.30406969 -244.34935343 104.13055939 -241.7933197 102.95591736 C-241.13066101 102.65185974 -240.46800232 102.34780212 -239.78526306 102.03453064 C-232.54424047 98.70165249 -225.37980354 95.21483843 -218.2151947 91.72154236 C-208.46823778 86.97507292 -198.68775674 82.31954808 -188.8401947 77.78404236 C-178.56939945 73.052684 -168.37899807 68.17738684 -158.2151947 63.22154236 C-144.51145477 56.5407044 -130.73240573 50.04773624 -116.88121033 43.67759705 C-111.48983868 41.19809824 -106.10299581 38.70878821 -100.7151947 36.22154236 C-111.6606894 36.90317494 -122.48966132 38.2427803 -133.36338806 39.62998962 C-135.31610118 39.87672052 -137.26885086 40.12316223 -139.22163391 40.36933899 C-143.40141132 40.89683319 -147.58093918 41.42624825 -151.76028252 41.95717049 C-158.37009503 42.79673385 -164.98052881 43.63133172 -171.59106445 44.46517944 C-187.99868602 46.53561166 -204.40544681 48.61283675 -220.81211853 50.69078064 C-233.58832849 52.30882136 -246.36475343 53.92512474 -259.14182001 55.53638881 C-265.71296928 56.365251 -272.28365911 57.19764059 -278.85402191 58.03271306 C-282.9358794 58.55074541 -287.0181212 59.06569703 -291.10047531 59.57979965 C-292.99288717 59.81875858 -294.88513772 60.05899907 -296.77721214 60.30061531 C-299.35983381 60.63023469 -301.94299368 60.95526458 -304.52633667 61.2791748 C-305.27429078 61.37576639 -306.02224488 61.47235798 -306.79286426 61.57187659 C-310.79320263 62.06806028 -314.68475649 62.31694666 -318.7151947 62.22154236 C-318.09090036 53.32534801 -317.00491089 44.54394873 -315.7151947 35.72154236 C-315.53730408 34.47372986 -315.35941345 33.22591736 -315.1761322 31.94029236 C-314.19639504 25.15524696 -314.19639504 25.15524696 -313.7151947 22.22154236 C-313.59273376 21.45648376 -313.47027283 20.69142517 -313.34410095 19.90318298 C-313.13656189 19.34824158 -312.92902283 18.79330017 -312.7151947 18.22154236 C-309.84769604 17.26570947 -307.72099415 17.00404143 -304.72673702 16.83299923 C-303.69032918 16.77179046 -302.65392134 16.71058168 -301.58610719 16.6475181 C-300.44373033 16.58428482 -299.30135347 16.52105154 -298.12435913 16.4559021 C-296.91351389 16.38562728 -295.70266864 16.31535247 -294.45513111 16.24294811 C-291.08774755 16.04837264 -287.72018966 15.85752648 -284.35250676 15.66824591 C-280.72215464 15.46331166 -277.09207603 15.2536352 -273.46195984 15.04457092 C-266.34377099 14.63541325 -259.22533213 14.23077361 -252.10679238 13.82777172 C-246.31412712 13.49976525 -240.52155144 13.17021829 -234.72903633 12.839571 C-233.9048068 12.79252535 -233.08057727 12.7454797 -232.23137109 12.69700842 C-230.55681572 12.60142337 -228.88226048 12.5058359 -227.20770539 12.41024602 C-211.4856436 11.51297719 -195.76328836 10.62093727 -180.04083437 9.73057098 C-166.57859939 8.96806477 -153.11664943 8.20068334 -139.65489197 7.42979431 C-124.01269559 6.53404223 -108.37031067 5.64169306 -92.7276302 4.75443226 C-91.05461633 4.65952646 -89.38160278 4.56461504 -87.70858955 4.46969795 C-86.88553837 4.42300307 -86.06248718 4.37630818 -85.21449504 4.3281983 C-79.44295808 4.00051482 -73.67156281 3.67040659 -67.90022087 3.33930779 C-60.84533937 2.93462482 -53.79026035 2.53361213 -46.73491233 2.13714271 C-43.14171211 1.935132 -39.54861979 1.73156671 -35.95576668 1.52346611 C-11.23794915 0.09403369 -11.23794915 0.09403369 0 0 Z " fill="#5B89AC" transform="translate(942.7151947021484,385.77845764160156)"/>
<path d="M0 0 C1.23277642 11.20032805 1.25368749 22.41369657 1.38891602 33.66845703 C1.41827248 35.85555482 1.44798619 38.04264784 1.47802734 40.22973633 C1.55838959 46.16351007 1.63339712 52.09734023 1.70718122 58.03119898 C1.77004793 63.0452127 1.83562017 68.05918961 1.90118736 73.07316864 C2.0658635 85.66777839 2.22547465 98.26244604 2.3826515 110.8571509 C2.50858953 120.93851712 2.63919138 131.01981142 2.77319336 141.10107422 C4.1301531 243.29802959 4.1301531 243.29802959 4.20945239 288.03778601 C4.21479542 290.40824528 4.22363817 292.778668 4.23343086 295.1491127 C4.25011932 299.38836689 4.24964777 303.62741362 4.24584961 307.86669922 C4.25159689 309.09077862 4.25734417 310.31485802 4.26326561 311.57603073 C4.25884264 312.67233433 4.25441967 313.76863792 4.24986267 314.89816284 C4.25002081 316.31652844 4.25002081 316.31652844 4.25018215 317.7635479 C4 320 4 320 2 322 C-0.45374079 321.78307776 -1.6644938 321.32016878 -3.45263672 319.61376953 C-7.59172776 313.93204867 -10.92092342 307.9150209 -14.17550659 301.69070435 C-15.15054015 299.82615989 -16.13381757 297.96617386 -17.11938477 296.10717773 C-18.12755049 294.20542616 -19.13529828 292.30347059 -20.14057922 290.40019226 C-23.02970921 284.93042632 -25.96963594 279.48986057 -28.9375 274.0625 C-29.41082764 273.19592773 -29.88415527 272.32935547 -30.37182617 271.43652344 C-34.87998342 263.19636871 -39.42581142 254.97693947 -43.97033691 246.75680542 C-48.58787592 238.40347883 -53.16012175 230.0276593 -57.6875 221.625 C-61.80367402 213.98697259 -66.01309036 206.41129504 -70.3125 198.875 C-75.7363639 189.36278403 -80.90665178 179.73065361 -86.02993774 170.05487061 C-90.40348262 161.80015037 -94.86350056 153.61115774 -99.5 145.5 C-101.67537208 141.6715391 -103.8412717 137.83787045 -106 134 C-106.34407898 133.38846069 -106.68815796 132.77692139 -107.04266357 132.14685059 C-109.32651995 128.08007535 -111.58613879 124.00095503 -113.82177734 119.9074707 C-114.56058493 118.56161224 -115.30579433 117.21924664 -116.05761719 115.88061523 C-117.10661951 114.01011355 -118.13183738 112.12834962 -119.15234375 110.2421875 C-120.0494104 108.61579346 -120.0494104 108.61579346 -120.96459961 106.95654297 C-122 104 -122 104 -121.40014648 101.48706055 C-118.78152949 96.83564794 -116.03752614 92.27496735 -113.23291016 87.73413086 C-112.12870148 85.94350246 -111.03475758 84.14688241 -109.94140625 82.34960938 C-109.23498967 81.20014285 -108.52797804 80.05104177 -107.8203125 78.90234375 C-106.86535889 77.34761353 -106.86535889 77.34761353 -105.89111328 75.76147461 C-104.12255084 73.17895334 -102.29043609 71.12120925 -100 69 C-99.59386475 69.71728271 -99.18772949 70.43456543 -98.76928711 71.17358398 C-90.70320942 85.40085626 -82.53747795 99.5477706 -74.08349609 113.54907227 C-70.38524861 119.67727376 -66.77773399 125.83807056 -63.2578125 132.0703125 C-59.47149405 138.71354745 -55.51974562 145.26271579 -51.59985352 151.82763672 C-44.26947194 164.14237891 -37.14672575 176.57812828 -30 189 C-30.42299336 174.24176042 -30.84699099 159.48354985 -31.27148056 144.72535324 C-31.37455718 141.14040091 -31.47752655 137.55544552 -31.58047485 133.9704895 C-32.58617261 98.94735407 -32.58617261 98.94735407 -33.64453125 63.92578125 C-33.69242762 62.37514254 -33.74031996 60.82450371 -33.78820801 59.27386475 C-33.9621404 53.65136061 -34.13614045 48.02886233 -34.31634521 42.40655518 C-35.15171634 16.3045842 -35.15171634 16.3045842 -35 4 C-31.81256234 3.52041808 -28.62503862 3.04141041 -25.4375 2.5625 C-24.54224609 2.42779297 -23.64699219 2.29308594 -22.72460938 2.15429688 C-20.96168269 1.88953499 -19.19858257 1.62592506 -17.43530273 1.36352539 C-15.33111706 1.0494269 -13.22795622 0.72847716 -11.125 0.40625 C-7.35357404 -0.08403538 -3.79726706 -0.06661872 0 0 Z " fill="#5B89AC" transform="translate(675,619)"/>
<path d="M0 0 C1.89625549 0.27255249 1.89625549 0.27255249 4 1 C5.30781321 3.86722515 6.32312789 6.55302785 7.27734375 9.5390625 C7.57057022 10.41211029 7.86379669 11.28515808 8.16590881 12.18466187 C9.10523795 14.99323523 10.02160349 17.80870849 10.9375 20.625 C11.54992949 22.46924972 12.16384594 24.31300637 12.77929688 26.15625 C13.97867946 29.75371494 15.16225921 33.35582952 16.33544922 36.96191406 C17.37353986 40.13887026 18.45163903 43.29426216 19.59033203 46.43652344 C19.83062637 47.11186127 20.07092072 47.7871991 20.3184967 48.48300171 C20.95247218 50.25470059 21.60167328 52.02093132 22.25219727 53.78662109 C23.93987694 61.0387399 20.90684523 67.58053703 18.40234375 74.30859375 C18.04862198 75.27531509 17.69490021 76.24203644 17.33045959 77.23805237 C16.20589232 80.30693722 15.07185308 83.37222056 13.9375 86.4375 C13.17059473 88.52515958 12.40431187 90.61304792 11.63867188 92.70117188 C9.7663128 97.80345186 7.88617714 102.90281315 6 108 C13.25958081 103.47726863 20.22192554 98.73979837 27.02929688 93.56835938 C31.79535801 90 31.79535801 90 34 90 C38.95 104.85 43.9 119.7 49 135 C46.35784849 137.64215151 44.83535677 138.75899812 41.59667969 140.33398438 C40.70028778 140.77365036 39.80389587 141.21331635 38.88034058 141.66630554 C37.90404694 142.13736221 36.9277533 142.60841888 35.921875 143.09375 C34.89957794 143.5930452 33.87728088 144.09234039 32.82400513 144.60676575 C29.46882747 146.24371312 26.10947579 147.87189431 22.75 149.5 C20.42697729 150.63120271 18.10422531 151.76296156 15.78173828 152.89526367 C11.08754772 155.18268963 6.3917001 157.46665707 1.69433594 159.74755859 C-4.26753974 162.64282569 -10.22475021 165.54752525 -16.1796875 168.45703125 C-31.04259482 175.71581209 -45.91524236 182.94898378 -60.85864258 190.04101562 C-67.66293659 193.29215809 -74.34023894 196.74319394 -80.88037109 200.50048828 C-85.47930616 203.05730124 -85.47930616 203.05730124 -88.44921875 202.73046875 C-88.96097656 202.48941406 -89.47273437 202.24835938 -90 202 C-91.34151308 197.99115931 -90.73912204 195.63854423 -88.95465088 191.86233521 C-88.63445984 191.22069427 -88.3142688 190.57905334 -87.984375 189.91796875 C-87.65789978 189.23604462 -87.33142456 188.55412048 -86.99505615 187.85153198 C-85.92559449 185.62405913 -84.83768152 183.40612444 -83.75 181.1875 C-83.00168249 179.63479018 -82.25494966 178.08131569 -81.50976562 176.52709961 C-80.02361869 173.42883951 -78.53230248 170.33316153 -77.03710938 167.23925781 C-74.45351619 161.87935935 -71.96286933 156.47879654 -69.5 151.0625 C-69.07436768 150.13018555 -68.64873535 149.19787109 -68.21020508 148.23730469 C-67.30619392 146.25653715 -66.4029825 144.27540447 -65.50048828 142.29394531 C-62.48440355 135.6728885 -59.46088589 129.05522528 -56.4375 122.4375 C-56.10219269 121.70332855 -55.76688538 120.9691571 -55.42141724 120.21273804 C-49.58038627 107.42551275 -43.69309175 94.65999275 -37.7930603 81.89990234 C-32.56863249 70.59852911 -27.38747738 59.27864693 -22.25 47.9375 C-5.6862913 11.37258259 -5.6862913 11.37258259 0 0 Z " fill="#5B89AC" transform="translate(302,566)"/>
<path d="M0 0 C7.04207467 3.16403355 11.11917628 14.6404586 14.70507812 21.22143555 C18.49105863 28.13310018 22.51580576 34.88765324 26.58984375 41.6328125 C31.03705751 48.99897098 35.43288651 56.37438839 39.65625 63.87109375 C41.70019264 67.45904304 43.81431746 71.00467481 45.9296875 74.55078125 C46.28878708 75.15343811 46.64788666 75.75609497 47.01786804 76.37701416 C48.84320238 79.43949173 50.67250024 82.49949775 52.50756836 85.55615234 C53.51895874 87.25118896 53.51895874 87.25118896 54.55078125 88.98046875 C55.15970215 89.99633057 55.76862305 91.01219238 56.39599609 92.05883789 C59.28825081 97.2649864 59.28825081 97.2649864 59.96484375 99.8828125 C59.09375 102.40307617 59.09375 102.40307617 57.52734375 105.05078125 C56.96144531 106.02724609 56.39554688 107.00371094 55.8125 108.00976562 C55.20277344 109.01974609 54.59304688 110.02972656 53.96484375 111.0703125 C53.38605469 112.06095703 52.80726563 113.05160156 52.2109375 114.07226562 C51.05241376 116.0484946 49.88321066 118.01850393 48.703125 119.98193359 C47.53721651 121.92762525 46.38890008 123.88395943 45.2578125 125.85009766 C44.72800781 126.76452637 44.19820312 127.67895508 43.65234375 128.62109375 C43.18183594 129.44262939 42.71132813 130.26416504 42.2265625 131.1105957 C41.81019531 131.69542725 41.39382813 132.28025879 40.96484375 132.8828125 C40.30484375 132.8828125 39.64484375 132.8828125 38.96484375 132.8828125 C38.50223145 132.0077002 38.03961914 131.13258789 37.56298828 130.23095703 C24.98494693 106.43689629 24.98494693 106.43689629 11.96484375 82.8828125 C9.98484375 83.2128125 8.00484375 83.5428125 5.96484375 83.8828125 C3.8761775 75.11449773 2.03495167 66.32673495 0.37109375 57.46875 C-0.10621364 54.97254964 -0.58409438 52.47645886 -1.0625 49.98046875 C-1.80521283 46.09493918 -2.54536904 42.209007 -3.27392578 38.32080078 C-3.98586538 34.53468423 -4.71234452 30.75160139 -5.44140625 26.96875 C-5.6571228 25.80008392 -5.87283936 24.63141785 -6.09509277 23.42733765 C-6.30541138 22.34836212 -6.51572998 21.2693866 -6.73242188 20.15771484 C-6.91212524 19.20875336 -7.09182861 18.25979187 -7.27697754 17.28207397 C-8.10056628 14.67582204 -8.86962627 13.5227255 -11.03515625 11.8828125 C-13.11460726 11.75220522 -13.11460726 11.75220522 -15.03515625 12.8828125 C-16.61488546 14.96312162 -16.61488546 14.96312162 -17.8828125 17.640625 C-18.65878784 19.15088257 -18.65878784 19.15088257 -19.45043945 20.69165039 C-20.26581177 22.33315063 -20.26581177 22.33315063 -21.09765625 24.0078125 C-21.66766357 25.12986084 -22.2376709 26.25190918 -22.82495117 27.40795898 C-27.46330518 36.59121676 -31.92590158 45.85857383 -36.3046875 55.16796875 C-38.05691883 58.87756097 -39.8704301 62.55036487 -41.72387695 66.21040344 C-44.84719258 72.38023106 -47.83634964 78.58665277 -50.67906189 84.89143372 C-52.41654427 88.72364036 -54.20301465 92.53209258 -55.99438477 96.33935547 C-56.89722938 98.28642465 -57.77978003 100.24303188 -58.6418457 102.20849609 C-64.978166 116.58867875 -71.03573545 124.16654585 -85.83015442 130.00015259 C-89.17004776 131.33710838 -92.36585118 132.92897568 -95.59765625 134.5078125 C-100.74786343 136.8828125 -100.74786343 136.8828125 -103.03515625 136.8828125 C-103.14327637 136.06901123 -103.25139648 135.25520996 -103.36279297 134.41674805 C-103.59893311 132.64231323 -103.59893311 132.64231323 -103.83984375 130.83203125 C-103.926362 130.17071701 -104.01288025 129.50940277 -104.10202026 128.82804871 C-104.64277517 124.72131852 -105.21888468 120.62231576 -105.83300781 116.52587891 C-106.56217767 111.61162528 -107.19024977 106.6906075 -107.77392578 101.75708008 C-108.03261414 99.70637799 -108.32268697 97.65940513 -108.64306641 95.61743164 C-111.2075804 79.06165823 -111.2075804 79.06165823 -107.62347412 73.81713867 C-103.96344897 70.12997675 -99.75448156 67.5457284 -95.20405579 65.09373474 C-91.59351505 63.07792718 -88.28011599 60.64615761 -84.91015625 58.2578125 C-83.57478974 57.34491033 -82.2377743 56.43441103 -80.8984375 55.52734375 C-76.68133442 52.65333396 -72.5302243 49.69222514 -68.38525391 46.71557617 C-63.8701296 43.47425767 -59.33095514 40.26843774 -54.78515625 37.0703125 C-48.83797121 32.88265765 -42.9254384 28.65009938 -37.03515625 24.3828125 C-29.00899251 18.57079295 -20.94588016 12.81477133 -12.82226562 7.13964844 C-11.24277216 6.02882434 -9.67693044 4.89864353 -8.11328125 3.765625 C-7.324375 3.20617187 -6.53546875 2.64671875 -5.72265625 2.0703125 C-5.08714844 1.61011719 -4.45164062 1.14992188 -3.796875 0.67578125 C-2.03515625 -0.1171875 -2.03515625 -0.1171875 0 0 Z " fill="#5B89AC" transform="translate(490.03515625,547.1171875)"/>
<path d="M0 0 C2.2639021 2.10665831 3.82338248 4.16613657 5.34765625 6.8515625 C5.78360107 7.61299561 6.2195459 8.37442871 6.66870117 9.15893555 C7.12865479 9.97273682 7.5886084 10.78653809 8.0625 11.625 C9.03848735 13.33236015 10.01506351 15.03938384 10.9921875 16.74609375 C11.4881543 17.61476074 11.98412109 18.48342773 12.49511719 19.37841797 C14.86106855 23.50002499 17.27244394 27.59453456 19.6875 31.6875 C21.8221875 35.3071875 21.8221875 35.3071875 24 39 C36.21 38.67 48.42 38.34 61 38 C59.87475889 47.00192888 59.87475889 47.00192888 59.16796875 50.36474609 C58.93267456 51.49533951 58.93267456 51.49533951 58.69262695 52.64877319 C58.52593506 53.43241241 58.35924316 54.21605164 58.1875 55.0234375 C58.01371826 55.85082428 57.83993652 56.67821106 57.66088867 57.53067017 C57.29602686 59.26378426 56.9295507 60.99655923 56.56152344 62.72900391 C55.99736819 65.38740153 55.43975554 68.04711435 54.8828125 70.70703125 C54.52642841 72.39591499 54.16967099 74.08472 53.8125 75.7734375 C53.64580811 76.56922211 53.47911621 77.36500671 53.30737305 78.18490601 C52.11519313 83.76961374 52.11519313 83.76961374 51 86 C48.3480987 86.52532793 45.76794439 86.92421317 43.08984375 87.25390625 C42.28897842 87.35968491 41.4881131 87.46546356 40.66297913 87.57444763 C38.08885302 87.91237545 35.51329381 88.2375537 32.9375 88.5625 C31.2271052 88.78497591 29.51681703 89.00827333 27.80664062 89.23242188 C21.74753925 90.02320529 15.68559373 90.79032599 9.62207031 91.54638672 C7.4825055 91.81433707 5.34373612 92.0890316 3.20703125 92.37890625 C0.64024745 92.57570697 -1.48445626 92.56873163 -4 92 C-6.53189775 89.8259438 -7.61109683 86.98850683 -9 84 C-9.92539913 82.29234627 -10.85140649 80.58500045 -11.78637695 78.88256836 C-13.56912803 75.6118585 -15.28405003 72.30611538 -17 69 C-17.5573584 67.92830566 -17.5573584 67.92830566 -18.12597656 66.83496094 C-19.23840995 64.68592007 -20.3399438 62.53167172 -21.4375 60.375 C-21.77950439 59.71242188 -22.12150879 59.04984375 -22.47387695 58.3671875 C-24.21512286 54.90861511 -25.66855391 51.86876975 -26 48 C-24.91113281 45.17944336 -24.91113281 45.17944336 -23.203125 42.08984375 C-22.57865479 40.94354492 -21.95418457 39.79724609 -21.31079102 38.61621094 C-20.62416734 37.38980222 -19.93723095 36.16356853 -19.25 34.9375 C-18.56113159 33.68462606 -17.87355754 32.4310396 -17.18725586 31.17675781 C-15.46520295 28.03649458 -13.72750891 24.90519865 -11.98577881 21.77581787 C-10.49617122 19.09238447 -9.02340368 16.39981413 -7.55078125 13.70703125 C-5.04678568 9.13077715 -2.52845465 4.56278302 0 0 Z " fill="#5B89AC" transform="translate(529,368)"/>
<path d="M0 0 C9.0607398 -0.91813024 9.0607398 -0.91813024 13.14355469 1.81640625 C17.06351013 5.16533656 20.43447338 8.98355836 23.78662109 12.88916016 C25.54917817 14.88516074 27.45396145 16.60413355 29.50390625 18.30078125 C33.49802329 21.68041875 37.11418626 25.39701232 40.7890625 29.1171875 C43.61022308 31.9025806 46.54237366 34.51196337 49.5625 37.078125 C50.39974609 37.80708984 50.39974609 37.80708984 51.25390625 38.55078125 C51.82238281 38.94394531 52.39085937 39.33710938 52.9765625 39.7421875 C55.13748922 42.80184827 54.74638007 46.00259641 54.25390625 49.55078125 C53.30449652 53.13744024 52.06034147 56.58040507 50.75390625 60.05078125 C50.42003906 60.96859375 50.08617187 61.88640625 49.7421875 62.83203125 C48.92405489 65.07605211 48.09451997 67.31510645 47.25390625 69.55078125 C8.38457112 66.61076278 8.38457112 66.61076278 -1.7277832 55.69335938 C-3.49489613 53.34628588 -5.07903648 50.94084169 -6.57128906 48.41064453 C-8.66335097 45.09864794 -11.33162636 42.27873868 -13.93359375 39.36328125 C-17.50178851 35.22957856 -20.99596202 31.04410791 -24.43359375 26.80078125 C-27.97559995 22.4310236 -31.67757261 18.2515827 -35.5078125 14.1328125 C-38.44554279 10.74391247 -41.09256001 7.16416315 -43.74609375 3.55078125 C-35.4137557 2.87133719 -27.08035272 2.20622573 -18.74609375 1.55078125 C-17.94929199 1.48713379 -17.15249023 1.42348633 -16.33154297 1.35791016 C-13.27077487 1.11609858 -10.21536207 0.90615643 -7.1484375 0.7578125 C-3.67826106 0.59509148 -3.67826106 0.59509148 0 0 Z " fill="#5B89AC" transform="translate(310.74609375,465.44921875)"/>
<path d="M0 0 C6.11608173 1.68114894 11.41556616 4.77470498 16.9375 7.8125 C17.97914307 8.38202393 19.02078613 8.95154785 20.09399414 9.53833008 C23.40024466 11.35129098 26.70087339 13.17411071 30 15 C31.10601563 15.61069336 32.21203125 16.22138672 33.3515625 16.85058594 C36.55136656 18.62163588 39.74559229 20.40226417 42.9375 22.1875 C43.93193115 22.73962158 44.9263623 23.29174316 45.95092773 23.8605957 C46.86302002 24.37452881 47.7751123 24.88846191 48.71484375 25.41796875 C49.52042725 25.86938232 50.32601074 26.3207959 51.15600586 26.78588867 C53 28 53 28 54 30 C51.54481265 31.50537035 49.0861548 33.00444426 46.625 34.5 C45.92632813 34.92925781 45.22765625 35.35851562 44.5078125 35.80078125 C39.2265625 39 39.2265625 39 37 39 C37 45.27 37 51.54 37 58 C32.19431835 57.88024017 27.38888735 57.75765239 22.58349609 57.62768555 C20.94812347 57.58432462 19.31270523 57.54265039 17.67724609 57.50268555 C15.32896159 57.44501088 12.98090696 57.38130871 10.6328125 57.31640625 C9.89942657 57.29969376 9.16604065 57.28298126 8.41043091 57.26576233 C3.22774341 57.11387171 3.22774341 57.11387171 1 56 C-0.1428603 52.57141909 -0.21002831 49.77169725 -0.31640625 46.15625 C-0.33727798 45.47852539 -0.35814972 44.80080078 -0.37965393 44.10253906 C-0.44568032 41.90180604 -0.50455802 39.70095968 -0.5625 37.5 C-0.60464621 35.99674455 -0.64680117 34.49348934 -0.68896484 32.99023438 C-0.91071731 24.82788458 -1.09803179 16.66564818 -1.125 8.5 C-1.12959229 7.73107422 -1.13418457 6.96214844 -1.13891602 6.16992188 C-1.12408229 1.12408229 -1.12408229 1.12408229 0 0 Z " fill="#5B89AC" transform="translate(638,519)"/>
<path d="M0 0 C0.69287109 0.00451172 1.38574219 0.00902344 2.09960938 0.01367188 C3.79561068 0.02536844 5.49156703 0.04330076 7.1875 0.0625 C7.3125 3.4375 7.3125 3.4375 7.1875 7.0625 C6.5275 7.7225 5.8675 8.3825 5.1875 9.0625 C0.86690022 8.7018105 -2.74742743 6.84086779 -6.625 5 C-7.78644531 4.45214844 -8.94789063 3.90429688 -10.14453125 3.33984375 C-11.02496094 2.91832031 -11.90539062 2.49679687 -12.8125 2.0625 C-12.8125 1.7325 -12.8125 1.4025 -12.8125 1.0625 C-8.52952469 0.00630997 -4.38264354 -0.05452092 0 0 Z " fill="#5B89AC" transform="translate(394.8125,460.9375)"/>
<path d="M0 0 C0.66 0 1.32 0 2 0 C2.33 3.63 2.66 7.26 3 11 C-1.455 12.485 -1.455 12.485 -6 14 C-4.02 9.38 -2.04 4.76 0 0 Z " fill="#5B89AC" transform="translate(465,635)"/>
</svg>
