<?xml version="1.0" encoding="UTF-8"?>
<svg version="1.1" xmlns="http://www.w3.org/2000/svg" width="1000" height="1000">
<path d="M0 0 C6.6 0 13.2 0 20 0 C20 19.8 20 39.6 20 60 C26.6 60 33.2 60 40 60 C40 73.2 40 86.4 40 100 C33.4 100 26.8 100 20 100 C20 106.6 20 113.2 20 120 C13.4 120 6.8 120 0 120 C0 126.6 0 133.2 0 140 C6.6 140 13.2 140 20 140 C20 225.8 20 311.6 20 400 C53 400 86 400 120 400 C120 406.6 120 413.2 120 420 C133.2 420 146.4 420 160 420 C160 426.6 160 433.2 160 440 C173.2 440 186.4 440 200 440 C200 446.6 200 453.2 200 460 C213.2 460 226.4 460 240 460 C240 466.6 240 473.2 240 480 C246.6 480 253.2 480 260 480 C260 486.6 260 493.2 260 500 C266.6 500 273.2 500 280 500 C280 506.6 280 513.2 280 520 C286.6 520 293.2 520 300 520 C300 526.6 300 533.2 300 540 C306.6 540 313.2 540 320 540 C320 546.6 320 553.2 320 560 C333.2 560 346.4 560 360 560 C360 566.6 360 573.2 360 580 C366.6 580 373.2 580 380 580 C380 606.4 380 632.8 380 660 C386.6 660 393.2 660 400 660 C400 666.6 400 673.2 400 680 C406.6 680 413.2 680 420 680 C420 686.6 420 693.2 420 700 C426.6 700 433.2 700 440 700 C440 706.6 440 713.2 440 720 C446.6 720 453.2 720 460 720 C460 739.8 460 759.6 460 780 C453.4 780 446.8 780 440 780 C440 786.6 440 793.2 440 800 C433.4 800 426.8 800 420 800 C420 806.6 420 813.2 420 820 C406.8 820 393.6 820 380 820 C380 826.6 380 833.2 380 840 C360.2 840 340.4 840 320 840 C320 846.6 320 853.2 320 860 C300.2 860 280.4 860 260 860 C260 866.6 260 873.2 260 880 C75.2 880 -109.6 880 -300 880 C-300 873.4 -300 866.8 -300 860 C-333 860 -366 860 -400 860 C-400 853.4 -400 846.8 -400 840 C-413.2 840 -426.4 840 -440 840 C-440 833.4 -440 826.8 -440 820 C-453.2 820 -466.4 820 -480 820 C-480 806.8 -480 793.6 -480 780 C-486.6 780 -493.2 780 -500 780 C-500 760.2 -500 740.4 -500 720 C-493.4 720 -486.8 720 -480 720 C-480 706.8 -480 693.6 -480 680 C-473.4 680 -466.8 680 -460 680 C-460 673.4 -460 666.8 -460 660 C-446.8 660 -433.6 660 -420 660 C-420 633.6 -420 607.2 -420 580 C-413.4 580 -406.8 580 -400 580 C-400 573.4 -400 566.8 -400 560 C-393.4 560 -386.8 560 -380 560 C-380 553.4 -380 546.8 -380 540 C-373.4 540 -366.8 540 -360 540 C-360 533.4 -360 526.8 -360 520 C-353.4 520 -346.8 520 -340 520 C-340 513.4 -340 506.8 -340 500 C-333.4 500 -326.8 500 -320 500 C-320 493.4 -320 486.8 -320 480 C-306.8 480 -293.6 480 -280 480 C-280 473.4 -280 466.8 -280 460 C-260.2 460 -240.4 460 -220 460 C-220 453.4 -220 446.8 -220 440 C-200.2 440 -180.4 440 -160 440 C-160 433.4 -160 426.8 -160 420 C-140.2 420 -120.4 420 -100 420 C-100 413.4 -100 406.8 -100 400 C-80.2 400 -60.4 400 -40 400 C-40 314.2 -40 228.4 -40 140 C-33.4 140 -26.8 140 -20 140 C-20 133.4 -20 126.8 -20 120 C-33.2 120 -46.4 120 -60 120 C-60 100.2 -60 80.4 -60 60 C-53.4 60 -46.8 60 -40 60 C-40 53.4 -40 46.8 -40 40 C-33.4 40 -26.8 40 -20 40 C-20 33.4 -20 26.8 -20 20 C-13.4 20 -6.8 20 0 20 C0 13.4 0 6.8 0 0 Z " fill="#FCB168" transform="translate(520,60)"/>
<path d="M0 0 C13.2 0 26.4 0 40 0 C40 26.4 40 52.8 40 80 C46.6 80 53.2 80 60 80 C60 86.6 60 93.2 60 100 C126 100 192 100 260 100 C260 93.4 260 86.8 260 80 C385.4 80 510.8 80 640 80 C640 86.6 640 93.2 640 100 C692.8 100 745.6 100 800 100 C800 93.4 800 86.8 800 80 C813.2 80 826.4 80 840 80 C840 53.6 840 27.2 840 0 C846.6 0 853.2 0 860 0 C860 6.6 860 13.2 860 20 C866.6 20 873.2 20 880 20 C880 26.6 880 33.2 880 40 C886.6 40 893.2 40 900 40 C900 46.6 900 53.2 900 60 C906.6 60 913.2 60 920 60 C920 79.8 920 99.6 920 120 C913.4 120 906.8 120 900 120 C900 126.6 900 133.2 900 140 C893.4 140 886.8 140 880 140 C880 146.6 880 153.2 880 160 C866.8 160 853.6 160 840 160 C840 166.6 840 173.2 840 180 C820.2 180 800.4 180 780 180 C780 186.6 780 193.2 780 200 C760.2 200 740.4 200 720 200 C720 206.6 720 213.2 720 220 C535.2 220 350.4 220 160 220 C160 213.4 160 206.8 160 200 C127 200 94 200 60 200 C60 193.4 60 186.8 60 180 C46.8 180 33.6 180 20 180 C20 173.4 20 166.8 20 160 C6.8 160 -6.4 160 -20 160 C-20 146.8 -20 133.6 -20 120 C-26.6 120 -33.2 120 -40 120 C-40 100.2 -40 80.4 -40 60 C-33.4 60 -26.8 60 -20 60 C-20 46.8 -20 33.6 -20 20 C-13.4 20 -6.8 20 0 20 C0 13.4 0 6.8 0 0 Z " fill="#D2C8C8" transform="translate(60,720)"/>
<path d="M0 0 C19.8 0 39.6 0 60 0 C60 13.2 60 26.4 60 40 C66.6 40 73.2 40 80 40 C80 46.6 80 53.2 80 60 C86.6 60 93.2 60 100 60 C100 66.6 100 73.2 100 80 C106.6 80 113.2 80 120 80 C120 99.8 120 119.6 120 140 C113.4 140 106.8 140 100 140 C100 133.4 100 126.8 100 120 C93.4 120 86.8 120 80 120 C80 113.4 80 106.8 80 100 C73.4 100 66.8 100 60 100 C60 86.8 60 73.6 60 60 C46.8 60 33.6 60 20 60 C20 66.6 20 73.2 20 80 C6.8 80 -6.4 80 -20 80 C-20 86.6 -20 93.2 -20 100 C-33.2 100 -46.4 100 -60 100 C-60 106.6 -60 113.2 -60 120 C-73.2 120 -86.4 120 -100 120 C-100 126.6 -100 133.2 -100 140 C-106.6 140 -113.2 140 -120 140 C-120 146.6 -120 153.2 -120 160 C-139.8 160 -159.6 160 -180 160 C-180 199.6 -180 239.2 -180 280 C-173.4 280 -166.8 280 -160 280 C-160 286.6 -160 293.2 -160 300 C-153.4 300 -146.8 300 -140 300 C-140 293.4 -140 286.8 -140 280 C-126.8 280 -113.6 280 -100 280 C-100 286.6 -100 293.2 -100 300 C-93.4 300 -86.8 300 -80 300 C-80 293.4 -80 286.8 -80 280 C-14 280 52 280 120 280 C120 273.4 120 266.8 120 260 C126.6 260 133.2 260 140 260 C140 253.4 140 246.8 140 240 C192.8 240 245.6 240 300 240 C300 246.6 300 253.2 300 260 C319.8 260 339.6 260 360 260 C360 266.6 360 273.2 360 280 C399.6 280 439.2 280 480 280 C480 286.6 480 293.2 480 300 C499.8 300 519.6 300 540 300 C540 293.4 540 286.8 540 280 C553.2 280 566.4 280 580 280 C580 266.8 580 253.6 580 240 C573.4 240 566.8 240 560 240 C560 226.8 560 213.6 560 200 C553.4 200 546.8 200 540 200 C540 193.4 540 186.8 540 180 C533.4 180 526.8 180 520 180 C520 166.8 520 153.6 520 140 C513.4 140 506.8 140 500 140 C500 133.4 500 126.8 500 120 C486.8 120 473.6 120 460 120 C460 113.4 460 106.8 460 100 C440.2 100 420.4 100 400 100 C400 80.2 400 60.4 400 40 C406.6 40 413.2 40 420 40 C420 33.4 420 26.8 420 20 C433.2 20 446.4 20 460 20 C460 26.6 460 33.2 460 40 C466.6 40 473.2 40 480 40 C480 46.6 480 53.2 480 60 C486.6 60 493.2 60 500 60 C500 66.6 500 73.2 500 80 C506.6 80 513.2 80 520 80 C520 86.6 520 93.2 520 100 C526.6 100 533.2 100 540 100 C540 106.6 540 113.2 540 120 C553.2 120 566.4 120 580 120 C580 126.6 580 133.2 580 140 C586.6 140 593.2 140 600 140 C600 192.8 600 245.6 600 300 C586.8 300 573.6 300 560 300 C560 306.6 560 313.2 560 320 C507.2 320 454.4 320 400 320 C400 313.4 400 306.8 400 300 C274.6 300 149.2 300 20 300 C20 306.6 20 313.2 20 320 C-46 320 -112 320 -180 320 C-180 313.4 -180 306.8 -180 300 C-186.6 300 -193.2 300 -200 300 C-200 247.2 -200 194.4 -200 140 C-193.4 140 -186.8 140 -180 140 C-180 133.4 -180 126.8 -180 120 C-173.4 120 -166.8 120 -160 120 C-160 113.4 -160 106.8 -160 100 C-153.4 100 -146.8 100 -140 100 C-140 93.4 -140 86.8 -140 80 C-133.4 80 -126.8 80 -120 80 C-120 73.4 -120 66.8 -120 60 C-113.4 60 -106.8 60 -100 60 C-100 53.4 -100 46.8 -100 40 C-86.8 40 -73.6 40 -60 40 C-60 33.4 -60 26.8 -60 20 C-40.2 20 -20.4 20 0 20 C0 13.4 0 6.8 0 0 Z " fill="#944C3D" transform="translate(300,500)"/>
<path d="M0 0 C6.6 0 13.2 0 20 0 C20 19.8 20 39.6 20 60 C26.6 60 33.2 60 40 60 C40 73.2 40 86.4 40 100 C33.4 100 26.8 100 20 100 C20 106.6 20 113.2 20 120 C13.4 120 6.8 120 0 120 C0 126.6 0 133.2 0 140 C6.6 140 13.2 140 20 140 C20 225.8 20 311.6 20 400 C53 400 86 400 120 400 C120 406.6 120 413.2 120 420 C133.2 420 146.4 420 160 420 C160 426.6 160 433.2 160 440 C173.2 440 186.4 440 200 440 C200 446.6 200 453.2 200 460 C173.6 460 147.2 460 120 460 C120 466.6 120 473.2 120 480 C126.6 480 133.2 480 140 480 C140 486.6 140 493.2 140 500 C146.6 500 153.2 500 160 500 C160 526.4 160 552.8 160 580 C166.6 580 173.2 580 180 580 C180 586.6 180 593.2 180 600 C160.2 600 140.4 600 120 600 C120 606.6 120 613.2 120 620 C113.4 620 106.8 620 100 620 C100 600.2 100 580.4 100 560 C93.4 560 86.8 560 80 560 C80 553.4 80 546.8 80 540 C66.8 540 53.6 540 40 540 C40 533.4 40 526.8 40 520 C13.6 520 -12.8 520 -40 520 C-40 526.6 -40 533.2 -40 540 C-46.6 540 -53.2 540 -60 540 C-60 520.2 -60 500.4 -60 480 C-66.6 480 -73.2 480 -80 480 C-80 473.4 -80 466.8 -80 460 C-86.6 460 -93.2 460 -100 460 C-100 453.4 -100 446.8 -100 440 C-119.8 440 -139.6 440 -160 440 C-160 433.4 -160 426.8 -160 420 C-140.2 420 -120.4 420 -100 420 C-100 413.4 -100 406.8 -100 400 C-80.2 400 -60.4 400 -40 400 C-40 314.2 -40 228.4 -40 140 C-33.4 140 -26.8 140 -20 140 C-20 133.4 -20 126.8 -20 120 C-33.2 120 -46.4 120 -60 120 C-60 100.2 -60 80.4 -60 60 C-53.4 60 -46.8 60 -40 60 C-40 53.4 -40 46.8 -40 40 C-33.4 40 -26.8 40 -20 40 C-20 33.4 -20 26.8 -20 20 C-13.4 20 -6.8 20 0 20 C0 13.4 0 6.8 0 0 Z " fill="#FCA64C" transform="translate(520,60)"/>
<path d="M0 0 C13.2 0 26.4 0 40 0 C40 13.2 40 26.4 40 40 C46.6 40 53.2 40 60 40 C60 46.6 60 53.2 60 60 C66.6 60 73.2 60 80 60 C80 66.6 80 73.2 80 80 C93.2 80 106.4 80 120 80 C120 106.4 120 132.8 120 160 C113.4 160 106.8 160 100 160 C100 166.6 100 173.2 100 180 C93.4 180 86.8 180 80 180 C80 193.2 80 206.4 80 220 C20.6 220 -38.8 220 -100 220 C-100 226.6 -100 233.2 -100 240 C-106.6 240 -113.2 240 -120 240 C-120 233.4 -120 226.8 -120 220 C-133.2 220 -146.4 220 -160 220 C-160 226.6 -160 233.2 -160 240 C-166.6 240 -173.2 240 -180 240 C-180 233.4 -180 226.8 -180 220 C-186.6 220 -193.2 220 -200 220 C-200 180.4 -200 140.8 -200 100 C-180.2 100 -160.4 100 -140 100 C-140 93.4 -140 86.8 -140 80 C-133.4 80 -126.8 80 -120 80 C-120 73.4 -120 66.8 -120 60 C-106.8 60 -93.6 60 -80 60 C-80 53.4 -80 46.8 -80 40 C-66.8 40 -53.6 40 -40 40 C-40 33.4 -40 26.8 -40 20 C-26.8 20 -13.6 20 0 20 C0 13.4 0 6.8 0 0 Z " fill="#FCB168" transform="translate(320,560)"/>
<path d="M0 0 C13.2 0 26.4 0 40 0 C40 13.2 40 26.4 40 40 C33.4 40 26.8 40 20 40 C20 53.2 20 66.4 20 80 C13.4 80 6.8 80 0 80 C0 93.2 0 106.4 0 120 C13.2 120 26.4 120 40 120 C40 126.6 40 133.2 40 140 C53.2 140 66.4 140 80 140 C80 146.6 80 153.2 80 160 C106.4 160 132.8 160 160 160 C160 166.6 160 173.2 160 180 C338.2 180 516.4 180 700 180 C700 173.4 700 166.8 700 160 C719.8 160 739.6 160 760 160 C760 153.4 760 146.8 760 140 C779.8 140 799.6 140 820 140 C820 133.4 820 126.8 820 120 C833.2 120 846.4 120 860 120 C860 113.4 860 106.8 860 100 C866.6 100 873.2 100 880 100 C880 93.4 880 86.8 880 80 C873.4 80 866.8 80 860 80 C860 73.4 860 66.8 860 60 C853.4 60 846.8 60 840 60 C840 40.2 840 20.4 840 0 C846.6 0 853.2 0 860 0 C860 6.6 860 13.2 860 20 C866.6 20 873.2 20 880 20 C880 26.6 880 33.2 880 40 C886.6 40 893.2 40 900 40 C900 46.6 900 53.2 900 60 C906.6 60 913.2 60 920 60 C920 79.8 920 99.6 920 120 C913.4 120 906.8 120 900 120 C900 126.6 900 133.2 900 140 C893.4 140 886.8 140 880 140 C880 146.6 880 153.2 880 160 C866.8 160 853.6 160 840 160 C840 166.6 840 173.2 840 180 C820.2 180 800.4 180 780 180 C780 186.6 780 193.2 780 200 C760.2 200 740.4 200 720 200 C720 206.6 720 213.2 720 220 C535.2 220 350.4 220 160 220 C160 213.4 160 206.8 160 200 C127 200 94 200 60 200 C60 193.4 60 186.8 60 180 C46.8 180 33.6 180 20 180 C20 173.4 20 166.8 20 160 C6.8 160 -6.4 160 -20 160 C-20 146.8 -20 133.6 -20 120 C-26.6 120 -33.2 120 -40 120 C-40 100.2 -40 80.4 -40 60 C-33.4 60 -26.8 60 -20 60 C-20 46.8 -20 33.6 -20 20 C-13.4 20 -6.8 20 0 20 C0 13.4 0 6.8 0 0 Z " fill="#D2C8C8" transform="translate(60,720)"/>
<path d="M0 0 C6.6 0 13.2 0 20 0 C20 19.8 20 39.6 20 60 C26.6 60 33.2 60 40 60 C40 73.2 40 86.4 40 100 C33.4 100 26.8 100 20 100 C20 106.6 20 113.2 20 120 C13.4 120 6.8 120 0 120 C0 126.6 0 133.2 0 140 C6.6 140 13.2 140 20 140 C20 225.8 20 311.6 20 400 C53 400 86 400 120 400 C120 406.6 120 413.2 120 420 C87 420 54 420 20 420 C20 426.6 20 433.2 20 440 C13.4 440 6.8 440 0 440 C0 446.6 0 453.2 0 460 C-6.6 460 -13.2 460 -20 460 C-20 453.4 -20 446.8 -20 440 C-26.6 440 -33.2 440 -40 440 C-40 433.4 -40 426.8 -40 420 C-59.8 420 -79.6 420 -100 420 C-100 413.4 -100 406.8 -100 400 C-80.2 400 -60.4 400 -40 400 C-40 314.2 -40 228.4 -40 140 C-33.4 140 -26.8 140 -20 140 C-20 133.4 -20 126.8 -20 120 C-33.2 120 -46.4 120 -60 120 C-60 100.2 -60 80.4 -60 60 C-53.4 60 -46.8 60 -40 60 C-40 53.4 -40 46.8 -40 40 C-33.4 40 -26.8 40 -20 40 C-20 33.4 -20 26.8 -20 20 C-13.4 20 -6.8 20 0 20 C0 13.4 0 6.8 0 0 Z " fill="#659A69" transform="translate(520,60)"/>
<path d="M0 0 C19.8 0 39.6 0 60 0 C60 6.6 60 13.2 60 20 C73.2 20 86.4 20 100 20 C100 26.6 100 33.2 100 40 C106.6 40 113.2 40 120 40 C120 53.2 120 66.4 120 80 C126.6 80 133.2 80 140 80 C140 86.6 140 93.2 140 100 C146.6 100 153.2 100 160 100 C160 113.2 160 126.4 160 140 C166.6 140 173.2 140 180 140 C180 153.2 180 166.4 180 180 C166.8 180 153.6 180 140 180 C140 186.6 140 193.2 140 200 C120.2 200 100.4 200 80 200 C80 193.4 80 186.8 80 180 C40.4 180 0.8 180 -40 180 C-40 173.4 -40 166.8 -40 160 C-59.8 160 -79.6 160 -100 160 C-100 153.4 -100 146.8 -100 140 C-93.4 140 -86.8 140 -80 140 C-80 133.4 -80 126.8 -80 120 C-60.2 120 -40.4 120 -20 120 C-20 133.2 -20 146.4 -20 160 C-13.4 160 -6.8 160 0 160 C0 153.4 0 146.8 0 140 C6.6 140 13.2 140 20 140 C20 100.4 20 60.8 20 20 C13.4 20 6.8 20 0 20 C0 13.4 0 6.8 0 0 Z " fill="#FCAF64" transform="translate(700,600)"/>
<path d="M0 0 C13.2 0 26.4 0 40 0 C40 13.2 40 26.4 40 40 C46.6 40 53.2 40 60 40 C60 46.6 60 53.2 60 60 C66.6 60 73.2 60 80 60 C80 66.6 80 73.2 80 80 C93.2 80 106.4 80 120 80 C120 106.4 120 132.8 120 160 C113.4 160 106.8 160 100 160 C100 166.6 100 173.2 100 180 C93.4 180 86.8 180 80 180 C80 193.2 80 206.4 80 220 C53.6 220 27.2 220 0 220 C0 193.6 0 167.2 0 140 C13.2 140 26.4 140 40 140 C40 133.4 40 126.8 40 120 C33.4 120 26.8 120 20 120 C20 106.8 20 93.6 20 80 C6.8 80 -6.4 80 -20 80 C-20 73.4 -20 66.8 -20 60 C-39.8 60 -59.6 60 -80 60 C-80 53.4 -80 46.8 -80 40 C-66.8 40 -53.6 40 -40 40 C-40 33.4 -40 26.8 -40 20 C-26.8 20 -13.6 20 0 20 C0 13.4 0 6.8 0 0 Z " fill="#FCA64C" transform="translate(320,560)"/>
<path d="M0 0 C19.8 0 39.6 0 60 0 C60 13.2 60 26.4 60 40 C66.6 40 73.2 40 80 40 C80 46.6 80 53.2 80 60 C86.6 60 93.2 60 100 60 C100 66.6 100 73.2 100 80 C106.6 80 113.2 80 120 80 C120 99.8 120 119.6 120 140 C113.4 140 106.8 140 100 140 C100 133.4 100 126.8 100 120 C93.4 120 86.8 120 80 120 C80 113.4 80 106.8 80 100 C73.4 100 66.8 100 60 100 C60 86.8 60 73.6 60 60 C46.8 60 33.6 60 20 60 C20 66.6 20 73.2 20 80 C6.8 80 -6.4 80 -20 80 C-20 86.6 -20 93.2 -20 100 C-33.2 100 -46.4 100 -60 100 C-60 106.6 -60 113.2 -60 120 C-73.2 120 -86.4 120 -100 120 C-100 126.6 -100 133.2 -100 140 C-106.6 140 -113.2 140 -120 140 C-120 146.6 -120 153.2 -120 160 C-139.8 160 -159.6 160 -180 160 C-180 146.8 -180 133.6 -180 120 C-173.4 120 -166.8 120 -160 120 C-160 113.4 -160 106.8 -160 100 C-153.4 100 -146.8 100 -140 100 C-140 93.4 -140 86.8 -140 80 C-133.4 80 -126.8 80 -120 80 C-120 73.4 -120 66.8 -120 60 C-113.4 60 -106.8 60 -100 60 C-100 53.4 -100 46.8 -100 40 C-86.8 40 -73.6 40 -60 40 C-60 33.4 -60 26.8 -60 20 C-40.2 20 -20.4 20 0 20 C0 13.4 0 6.8 0 0 Z " fill="#E8832F" transform="translate(300,500)"/>
<path d="M0 0 C46.2 0 92.4 0 140 0 C140 6.6 140 13.2 140 20 C153.2 20 166.4 20 180 20 C180 26.6 180 33.2 180 40 C153.6 40 127.2 40 100 40 C100 46.6 100 53.2 100 60 C106.6 60 113.2 60 120 60 C120 66.6 120 73.2 120 80 C126.6 80 133.2 80 140 80 C140 106.4 140 132.8 140 160 C146.6 160 153.2 160 160 160 C160 166.6 160 173.2 160 180 C146.8 180 133.6 180 120 180 C120 166.8 120 153.6 120 140 C113.4 140 106.8 140 100 140 C100 126.8 100 113.6 100 100 C93.4 100 86.8 100 80 100 C80 93.4 80 86.8 80 80 C53.6 80 27.2 80 0 80 C0 66.8 0 53.6 0 40 C-6.6 40 -13.2 40 -20 40 C-20 33.4 -20 26.8 -20 20 C-13.4 20 -6.8 20 0 20 C0 13.4 0 6.8 0 0 Z " fill="#E8822E" transform="translate(540,480)"/>
<path d="M0 0 C13.2 0 26.4 0 40 0 C40 6.6 40 13.2 40 20 C46.6 20 53.2 20 60 20 C60 26.6 60 33.2 60 40 C66.6 40 73.2 40 80 40 C80 46.6 80 53.2 80 60 C86.6 60 93.2 60 100 60 C100 66.6 100 73.2 100 80 C106.6 80 113.2 80 120 80 C120 86.6 120 93.2 120 100 C133.2 100 146.4 100 160 100 C160 139.6 160 179.2 160 220 C153.4 220 146.8 220 140 220 C140 206.8 140 193.6 140 180 C133.4 180 126.8 180 120 180 C120 173.4 120 166.8 120 160 C113.4 160 106.8 160 100 160 C100 146.8 100 133.6 100 120 C93.4 120 86.8 120 80 120 C80 113.4 80 106.8 80 100 C66.8 100 53.6 100 40 100 C40 93.4 40 86.8 40 80 C20.2 80 0.4 80 -20 80 C-20 60.2 -20 40.4 -20 20 C-13.4 20 -6.8 20 0 20 C0 13.4 0 6.8 0 0 Z " fill="#E8832F" transform="translate(720,520)"/>
<path d="M0 0 C19.8 0 39.6 0 60 0 C60 6.6 60 13.2 60 20 C66.6 20 73.2 20 80 20 C80 26.6 80 33.2 80 40 C86.6 40 93.2 40 100 40 C100 106 100 172 100 240 C93.4 240 86.8 240 80 240 C80 246.6 80 253.2 80 260 C73.4 260 66.8 260 60 260 C60 266.6 60 273.2 60 280 C53.4 280 46.8 280 40 280 C40 266.8 40 253.6 40 240 C46.6 240 53.2 240 60 240 C60 233.4 60 226.8 60 220 C66.6 220 73.2 220 80 220 C80 193.6 80 167.2 80 140 C73.4 140 66.8 140 60 140 C60 120.2 60 100.4 60 80 C53.4 80 46.8 80 40 80 C40 73.4 40 66.8 40 60 C33.4 60 26.8 60 20 60 C20 53.4 20 46.8 20 40 C13.4 40 6.8 40 0 40 C0 26.8 0 13.6 0 0 Z " fill="#FCDE93" transform="translate(360,500)"/>
<path d="M0 0 C178.2 0 356.4 0 540 0 C540 6.6 540 13.2 540 20 C361.8 20 183.6 20 0 20 C0 13.4 0 6.8 0 0 Z " fill="#A19C9C" transform="translate(220,880)"/>
<path d="M0 0 C6.6 0 13.2 0 20 0 C20 46.2 20 92.4 20 140 C26.6 140 33.2 140 40 140 C40 146.6 40 153.2 40 160 C46.6 160 53.2 160 60 160 C60 153.4 60 146.8 60 140 C73.2 140 86.4 140 100 140 C100 146.6 100 153.2 100 160 C139.6 160 179.2 160 220 160 C220 166.6 220 173.2 220 180 C154 180 88 180 20 180 C20 173.4 20 166.8 20 160 C13.4 160 6.8 160 0 160 C0 107.2 0 54.4 0 0 Z " fill="#944C3D" transform="translate(100,640)"/>
<path d="M0 0 C52.8 0 105.6 0 160 0 C160 6.6 160 13.2 160 20 C179.8 20 199.6 20 220 20 C220 26.6 220 33.2 220 40 C140.8 40 61.6 40 -20 40 C-20 33.4 -20 26.8 -20 20 C-13.4 20 -6.8 20 0 20 C0 13.4 0 6.8 0 0 Z " fill="#C87631" transform="translate(440,740)"/>
<path d="M0 0 C6.6 0 13.2 0 20 0 C20 13.2 20 26.4 20 40 C26.6 40 33.2 40 40 40 C40 46.6 40 53.2 40 60 C106 60 172 60 240 60 C240 66.6 240 73.2 240 80 C180.6 80 121.2 80 60 80 C60 86.6 60 93.2 60 100 C46.8 100 33.6 100 20 100 C20 93.4 20 86.8 20 80 C6.8 80 -6.4 80 -20 80 C-20 66.8 -20 53.6 -20 40 C-13.4 40 -6.8 40 0 40 C0 26.8 0 13.6 0 0 Z " fill="#D2C8C8" transform="translate(80,760)"/>
<path d="M0 0 C6.6 0 13.2 0 20 0 C20 19.8 20 39.6 20 60 C26.6 60 33.2 60 40 60 C40 73.2 40 86.4 40 100 C33.4 100 26.8 100 20 100 C20 106.6 20 113.2 20 120 C-6.4 120 -32.8 120 -60 120 C-60 100.2 -60 80.4 -60 60 C-53.4 60 -46.8 60 -40 60 C-40 53.4 -40 46.8 -40 40 C-33.4 40 -26.8 40 -20 40 C-20 33.4 -20 26.8 -20 20 C-13.4 20 -6.8 20 0 20 C0 13.4 0 6.8 0 0 Z " fill="#FCCF64" transform="translate(520,60)"/>
<path d="M0 0 C125.4 0 250.8 0 380 0 C380 6.6 380 13.2 380 20 C254.6 20 129.2 20 0 20 C0 13.4 0 6.8 0 0 Z " fill="#978F8F" transform="translate(320,800)"/>
<path d="M0 0 C6.6 0 13.2 0 20 0 C20 6.6 20 13.2 20 20 C26.6 20 33.2 20 40 20 C40 26.6 40 33.2 40 40 C33.4 40 26.8 40 20 40 C20 46.6 20 53.2 20 60 C6.8 60 -6.4 60 -20 60 C-20 66.6 -20 73.2 -20 80 C-39.8 80 -59.6 80 -80 80 C-80 73.4 -80 66.8 -80 60 C-119.6 60 -159.2 60 -200 60 C-200 53.4 -200 46.8 -200 40 C-147.2 40 -94.4 40 -40 40 C-40 33.4 -40 26.8 -40 20 C-26.8 20 -13.6 20 0 20 C0 13.4 0 6.8 0 0 Z " fill="#D2C8C8" transform="translate(900,780)"/>
<path d="M0 0 C6.6 0 13.2 0 20 0 C20 52.8 20 105.6 20 160 C6.8 160 -6.4 160 -20 160 C-20 166.6 -20 173.2 -20 180 C-72.8 180 -125.6 180 -180 180 C-180 173.4 -180 166.8 -180 160 C-133.8 160 -87.6 160 -40 160 C-40 153.4 -40 146.8 -40 140 C-26.8 140 -13.6 140 0 140 C0 93.8 0 47.6 0 0 Z " fill="#944C3D" transform="translate(880,640)"/>
<path d="M0 0 C26.4 0 52.8 0 80 0 C80 6.6 80 13.2 80 20 C73.4 20 66.8 20 60 20 C60 46.4 60 72.8 60 100 C66.6 100 73.2 100 80 100 C80 139.6 80 179.2 80 220 C73.4 220 66.8 220 60 220 C60 226.6 60 233.2 60 240 C53.4 240 46.8 240 40 240 C40 226.8 40 213.6 40 200 C46.6 200 53.2 200 60 200 C60 173.6 60 147.2 60 120 C53.4 120 46.8 120 40 120 C40 93.6 40 67.2 40 40 C33.4 40 26.8 40 20 40 C20 33.4 20 26.8 20 20 C13.4 20 6.8 20 0 20 C0 13.4 0 6.8 0 0 Z " fill="#FCDE93" transform="translate(640,520)"/>
<path d="M0 0 C6.6 0 13.2 0 20 0 C20 52.8 20 105.6 20 160 C26.6 160 33.2 160 40 160 C40 166.6 40 173.2 40 180 C46.6 180 53.2 180 60 180 C60 186.6 60 193.2 60 200 C53.4 200 46.8 200 40 200 C40 206.6 40 213.2 40 220 C33.4 220 26.8 220 20 220 C20 213.4 20 206.8 20 200 C13.4 200 6.8 200 0 200 C0 193.4 0 186.8 0 180 C-19.8 180 -39.6 180 -60 180 C-60 173.4 -60 166.8 -60 160 C-40.2 160 -20.4 160 0 160 C0 107.2 0 54.4 0 0 Z " fill="#507F4F" transform="translate(480,300)"/>
<path d="M0 0 C39.6 0 79.2 0 120 0 C120 6.6 120 13.2 120 20 C126.6 20 133.2 20 140 20 C140 26.6 140 33.2 140 40 C146.6 40 153.2 40 160 40 C160 53.2 160 66.4 160 80 C153.4 80 146.8 80 140 80 C140 73.4 140 66.8 140 60 C133.4 60 126.8 60 120 60 C120 66.6 120 73.2 120 80 C113.4 80 106.8 80 100 80 C100 73.4 100 66.8 100 60 C93.4 60 86.8 60 80 60 C80 53.4 80 46.8 80 40 C73.4 40 66.8 40 60 40 C60 33.4 60 26.8 60 20 C40.2 20 20.4 20 0 20 C0 13.4 0 6.8 0 0 Z " fill="#E8832F" transform="translate(360,480)"/>
<path d="M0 0 C6.6 0 13.2 0 20 0 C20 6.6 20 13.2 20 20 C26.6 20 33.2 20 40 20 C40 26.6 40 33.2 40 40 C33.4 40 26.8 40 20 40 C20 53.2 20 66.4 20 80 C13.4 80 6.8 80 0 80 C0 86.6 0 93.2 0 100 C-19.8 100 -39.6 100 -60 100 C-60 86.8 -60 73.6 -60 60 C-53.4 60 -46.8 60 -40 60 C-40 53.4 -40 46.8 -40 40 C-33.4 40 -26.8 40 -20 40 C-20 33.4 -20 26.8 -20 20 C-13.4 20 -6.8 20 0 20 C0 13.4 0 6.8 0 0 Z " fill="#C87631" transform="translate(180,560)"/>
<path d="M0 0 C19.8 0 39.6 0 60 0 C60 6.6 60 13.2 60 20 C66.6 20 73.2 20 80 20 C80 26.6 80 33.2 80 40 C86.6 40 93.2 40 100 40 C100 59.8 100 79.6 100 100 C93.4 100 86.8 100 80 100 C80 86.8 80 73.6 80 60 C60.2 60 40.4 60 20 60 C20 53.4 20 46.8 20 40 C13.4 40 6.8 40 0 40 C0 26.8 0 13.6 0 0 Z " fill="#FCF3A6" transform="translate(360,500)"/>
<path d="M0 0 C19.8 0 39.6 0 60 0 C60 6.6 60 13.2 60 20 C46.8 20 33.6 20 20 20 C20 26.6 20 33.2 20 40 C13.4 40 6.8 40 0 40 C0 46.6 0 53.2 0 60 C-33 60 -66 60 -100 60 C-100 53.4 -100 46.8 -100 40 C-86.8 40 -73.6 40 -60 40 C-60 33.4 -60 26.8 -60 20 C-40.2 20 -20.4 20 0 20 C0 13.4 0 6.8 0 0 Z " fill="#944C3D" transform="translate(300,500)"/>
<path d="M0 0 C39.6 0 79.2 0 120 0 C120 6.6 120 13.2 120 20 C106.8 20 93.6 20 80 20 C80 26.6 80 33.2 80 40 C66.8 40 53.6 40 40 40 C40 46.6 40 53.2 40 60 C26.8 60 13.6 60 0 60 C0 53.4 0 46.8 0 40 C6.6 40 13.2 40 20 40 C20 33.4 20 26.8 20 20 C13.4 20 6.8 20 0 20 C0 13.4 0 6.8 0 0 Z " fill="#E8822E" transform="translate(200,560)"/>
<path d="M0 0 C6.6 0 13.2 0 20 0 C20 6.6 20 13.2 20 20 C26.6 20 33.2 20 40 20 C40 46.4 40 72.8 40 100 C46.6 100 53.2 100 60 100 C60 106.6 60 113.2 60 120 C46.8 120 33.6 120 20 120 C20 106.8 20 93.6 20 80 C13.4 80 6.8 80 0 80 C0 66.8 0 53.6 0 40 C-6.6 40 -13.2 40 -20 40 C-20 33.4 -20 26.8 -20 20 C-13.4 20 -6.8 20 0 20 C0 13.4 0 6.8 0 0 Z " fill="#C87631" transform="translate(640,540)"/>
<path d="M0 0 C6.6 0 13.2 0 20 0 C20 72.6 20 145.2 20 220 C13.4 220 6.8 220 0 220 C0 147.4 0 74.8 0 0 Z " fill="#7FBC86" transform="translate(520,220)"/>
<path d="M0 0 C52.8 0 105.6 0 160 0 C160 6.6 160 13.2 160 20 C113.8 20 67.6 20 20 20 C20 26.6 20 33.2 20 40 C6.8 40 -6.4 40 -20 40 C-20 33.4 -20 26.8 -20 20 C-13.4 20 -6.8 20 0 20 C0 13.4 0 6.8 0 0 Z " fill="#E8832F" transform="translate(440,740)"/>
<path d="M0 0 C6.6 0 13.2 0 20 0 C20 46.2 20 92.4 20 140 C26.6 140 33.2 140 40 140 C40 153.2 40 166.4 40 180 C33.4 180 26.8 180 20 180 C20 173.4 20 166.8 20 160 C13.4 160 6.8 160 0 160 C0 107.2 0 54.4 0 0 Z " fill="#944C3D" transform="translate(100,640)"/>
<path d="M0 0 C59.4 0 118.8 0 180 0 C180 6.6 180 13.2 180 20 C120.6 20 61.2 20 0 20 C0 13.4 0 6.8 0 0 Z " fill="#978F8F" transform="translate(140,820)"/>
<path d="M0 0 C19.8 0 39.6 0 60 0 C60 13.2 60 26.4 60 40 C66.6 40 73.2 40 80 40 C80 46.6 80 53.2 80 60 C66.8 60 53.6 60 40 60 C40 53.4 40 46.8 40 40 C20.2 40 0.4 40 -20 40 C-20 33.4 -20 26.8 -20 20 C-13.4 20 -6.8 20 0 20 C0 13.4 0 6.8 0 0 Z " fill="#FCA64C" transform="translate(620,720)"/>
<path d="M0 0 C19.8 0 39.6 0 60 0 C60 6.6 60 13.2 60 20 C73.2 20 86.4 20 100 20 C100 26.6 100 33.2 100 40 C67 40 34 40 0 40 C0 26.8 0 13.6 0 0 Z " fill="#FDF7F3" transform="translate(620,480)"/>
<path d="M0 0 C46.2 0 92.4 0 140 0 C140 6.6 140 13.2 140 20 C93.8 20 47.6 20 0 20 C0 13.4 0 6.8 0 0 Z " fill="#944C3D" transform="translate(700,800)"/>
<path d="M0 0 C6.6 0 13.2 0 20 0 C20 19.8 20 39.6 20 60 C26.6 60 33.2 60 40 60 C40 73.2 40 86.4 40 100 C33.4 100 26.8 100 20 100 C20 93.4 20 86.8 20 80 C13.4 80 6.8 80 0 80 C0 66.8 0 53.6 0 40 C-6.6 40 -13.2 40 -20 40 C-20 33.4 -20 26.8 -20 20 C-13.4 20 -6.8 20 0 20 C0 13.4 0 6.8 0 0 Z " fill="#FCB264" transform="translate(520,60)"/>
<path d="M0 0 C39.6 0 79.2 0 120 0 C120 6.6 120 13.2 120 20 C80.4 20 40.8 20 0 20 C0 13.4 0 6.8 0 0 Z " fill="#978F8F" transform="translate(700,820)"/>
<path d="M0 0 C6.6 0 13.2 0 20 0 C20 6.6 20 13.2 20 20 C26.6 20 33.2 20 40 20 C40 39.8 40 59.6 40 80 C33.4 80 26.8 80 20 80 C20 73.4 20 66.8 20 60 C13.4 60 6.8 60 0 60 C0 40.2 0 20.4 0 0 Z " fill="#C87631" transform="translate(380,560)"/>
<path d="M0 0 C26.4 0 52.8 0 80 0 C80 6.6 80 13.2 80 20 C73.4 20 66.8 20 60 20 C60 26.6 60 33.2 60 40 C46.8 40 33.6 40 20 40 C20 33.4 20 26.8 20 20 C13.4 20 6.8 20 0 20 C0 13.4 0 6.8 0 0 Z " fill="#FCF3A6" transform="translate(640,520)"/>
<path d="M0 0 C33 0 66 0 100 0 C100 6.6 100 13.2 100 20 C67 20 34 20 0 20 C0 13.4 0 6.8 0 0 Z " fill="#E8832F" transform="translate(220,780)"/>
<path d="M0 0 C33 0 66 0 100 0 C100 6.6 100 13.2 100 20 C67 20 34 20 0 20 C0 13.4 0 6.8 0 0 Z " fill="#FCA64C" transform="translate(460,720)"/>
<path d="M0 0 C33 0 66 0 100 0 C100 6.6 100 13.2 100 20 C67 20 34 20 0 20 C0 13.4 0 6.8 0 0 Z " fill="#C87631" transform="translate(200,540)"/>
<path d="M0 0 C33 0 66 0 100 0 C100 6.6 100 13.2 100 20 C67 20 34 20 0 20 C0 13.4 0 6.8 0 0 Z " fill="#944C3D" transform="translate(540,460)"/>
<path d="M0 0 C26.4 0 52.8 0 80 0 C80 6.6 80 13.2 80 20 C53.6 20 27.2 20 0 20 C0 13.4 0 6.8 0 0 Z " fill="#A19C9C" transform="translate(140,860)"/>
<path d="M0 0 C26.4 0 52.8 0 80 0 C80 6.6 80 13.2 80 20 C53.6 20 27.2 20 0 20 C0 13.4 0 6.8 0 0 Z " fill="#C87631" transform="translate(700,780)"/>
<path d="M0 0 C19.8 0 39.6 0 60 0 C60 13.2 60 26.4 60 40 C53.4 40 46.8 40 40 40 C40 33.4 40 26.8 40 20 C26.8 20 13.6 20 0 20 C0 13.4 0 6.8 0 0 Z " fill="#FCA64C" transform="translate(740,760)"/>
<path d="M0 0 C26.4 0 52.8 0 80 0 C80 6.6 80 13.2 80 20 C53.6 20 27.2 20 0 20 C0 13.4 0 6.8 0 0 Z " fill="#E8832F" transform="translate(320,760)"/>
<path d="M0 0 C6.6 0 13.2 0 20 0 C20 19.8 20 39.6 20 60 C13.4 60 6.8 60 0 60 C0 53.4 0 46.8 0 40 C-6.6 40 -13.2 40 -20 40 C-20 33.4 -20 26.8 -20 20 C-13.4 20 -6.8 20 0 20 C0 13.4 0 6.8 0 0 Z " fill="#FCA64C" transform="translate(680,660)"/>
<path d="M0 0 C6.6 0 13.2 0 20 0 C20 13.2 20 26.4 20 40 C26.6 40 33.2 40 40 40 C40 46.6 40 53.2 40 60 C26.8 60 13.6 60 0 60 C0 40.2 0 20.4 0 0 Z " fill="#FCA64C" transform="translate(800,640)"/>
<path d="M0 0 C6.6 0 13.2 0 20 0 C20 6.6 20 13.2 20 20 C26.6 20 33.2 20 40 20 C40 33.2 40 46.4 40 60 C33.4 60 26.8 60 20 60 C20 53.4 20 46.8 20 40 C13.4 40 6.8 40 0 40 C0 26.8 0 13.6 0 0 Z " fill="#FCDE93" transform="translate(360,500)"/>
<path d="M0 0 C13.2 0 26.4 0 40 0 C40 13.2 40 26.4 40 40 C26.8 40 13.6 40 0 40 C0 26.8 0 13.6 0 0 Z " fill="#FCCF64" transform="translate(500,140)"/>
<path d="M0 0 C19.8 0 39.6 0 60 0 C60 6.6 60 13.2 60 20 C40.2 20 20.4 20 0 20 C0 13.4 0 6.8 0 0 Z " fill="#A19C9C" transform="translate(760,860)"/>
<path d="M0 0 C19.8 0 39.6 0 60 0 C60 6.6 60 13.2 60 20 C40.2 20 20.4 20 0 20 C0 13.4 0 6.8 0 0 Z " fill="#A19C9C" transform="translate(820,840)"/>
<path d="M0 0 C19.8 0 39.6 0 60 0 C60 6.6 60 13.2 60 20 C40.2 20 20.4 20 0 20 C0 13.4 0 6.8 0 0 Z " fill="#ACA4A3" transform="translate(640,800)"/>
<path d="M0 0 C13.2 0 26.4 0 40 0 C40 6.6 40 13.2 40 20 C33.4 20 26.8 20 20 20 C20 26.6 20 33.2 20 40 C13.4 40 6.8 40 0 40 C0 26.8 0 13.6 0 0 Z " fill="#944C3D" transform="translate(840,780)"/>
<path d="M0 0 C6.6 0 13.2 0 20 0 C20 13.2 20 26.4 20 40 C6.8 40 -6.4 40 -20 40 C-20 33.4 -20 26.8 -20 20 C-13.4 20 -6.8 20 0 20 C0 13.4 0 6.8 0 0 Z " fill="#FCA64C" transform="translate(860,740)"/>
<path d="M0 0 C19.8 0 39.6 0 60 0 C60 6.6 60 13.2 60 20 C40.2 20 20.4 20 0 20 C0 13.4 0 6.8 0 0 Z " fill="#FCA64C" transform="translate(120,660)"/>
<path d="M0 0 C6.6 0 13.2 0 20 0 C20 6.6 20 13.2 20 20 C26.6 20 33.2 20 40 20 C40 26.6 40 33.2 40 40 C26.8 40 13.6 40 0 40 C0 26.8 0 13.6 0 0 Z " fill="#E8832F" transform="translate(660,620)"/>
<path d="M0 0 C19.8 0 39.6 0 60 0 C60 6.6 60 13.2 60 20 C40.2 20 20.4 20 0 20 C0 13.4 0 6.8 0 0 Z " fill="#944C3D" transform="translate(240,520)"/>
<path d="M0 0 C13.2 0 26.4 0 40 0 C40 13.2 40 26.4 40 40 C33.4 40 26.8 40 20 40 C20 33.4 20 26.8 20 20 C13.4 20 6.8 20 0 20 C0 13.4 0 6.8 0 0 Z " fill="#FDF7F3" transform="translate(380,500)"/>
<path d="M0 0 C19.8 0 39.6 0 60 0 C60 6.6 60 13.2 60 20 C40.2 20 20.4 20 0 20 C0 13.4 0 6.8 0 0 Z " fill="#944C3D" transform="translate(360,480)"/>
<path d="M0 0 C19.8 0 39.6 0 60 0 C60 6.6 60 13.2 60 20 C40.2 20 20.4 20 0 20 C0 13.4 0 6.8 0 0 Z " fill="#944C3D" transform="translate(420,460)"/>
<path d="M0 0 C6.6 0 13.2 0 20 0 C20 19.8 20 39.6 20 60 C13.4 60 6.8 60 0 60 C0 40.2 0 20.4 0 0 Z " fill="#FCB264" transform="translate(460,120)"/>
<path d="M0 0 C13.2 0 26.4 0 40 0 C40 6.6 40 13.2 40 20 C26.8 20 13.6 20 0 20 C0 13.4 0 6.8 0 0 Z " fill="#A19C9C" transform="translate(100,840)"/>
<path d="M0 0 C13.2 0 26.4 0 40 0 C40 6.6 40 13.2 40 20 C26.8 20 13.6 20 0 20 C0 13.4 0 6.8 0 0 Z " fill="#A19C9C" transform="translate(880,820)"/>
<path d="M0 0 C13.2 0 26.4 0 40 0 C40 6.6 40 13.2 40 20 C26.8 20 13.6 20 0 20 C0 13.4 0 6.8 0 0 Z " fill="#ACA4A3" transform="translate(140,820)"/>
<path d="M0 0 C13.2 0 26.4 0 40 0 C40 6.6 40 13.2 40 20 C26.8 20 13.6 20 0 20 C0 13.4 0 6.8 0 0 Z " fill="#A19C9C" transform="translate(60,820)"/>
<path d="M0 0 C13.2 0 26.4 0 40 0 C40 6.6 40 13.2 40 20 C26.8 20 13.6 20 0 20 C0 13.4 0 6.8 0 0 Z " fill="#C87631" transform="translate(220,780)"/>
<path d="M0 0 C13.2 0 26.4 0 40 0 C40 6.6 40 13.2 40 20 C26.8 20 13.6 20 0 20 C0 13.4 0 6.8 0 0 Z " fill="#C87631" transform="translate(160,780)"/>
<path d="M0 0 C13.2 0 26.4 0 40 0 C40 6.6 40 13.2 40 20 C26.8 20 13.6 20 0 20 C0 13.4 0 6.8 0 0 Z " fill="#E8832F" transform="translate(620,760)"/>
<path d="M0 0 C13.2 0 26.4 0 40 0 C40 6.6 40 13.2 40 20 C26.8 20 13.6 20 0 20 C0 13.4 0 6.8 0 0 Z " fill="#E8832F" transform="translate(420,760)"/>
<path d="M0 0 C13.2 0 26.4 0 40 0 C40 6.6 40 13.2 40 20 C26.8 20 13.6 20 0 20 C0 13.4 0 6.8 0 0 Z " fill="#FCA64C" transform="translate(280,760)"/>
<path d="M0 0 C13.2 0 26.4 0 40 0 C40 6.6 40 13.2 40 20 C26.8 20 13.6 20 0 20 C0 13.4 0 6.8 0 0 Z " fill="#FCA64C" transform="translate(160,760)"/>
<path d="M0 0 C6.6 0 13.2 0 20 0 C20 13.2 20 26.4 20 40 C13.4 40 6.8 40 0 40 C0 26.8 0 13.6 0 0 Z " fill="#F7E9E7" transform="translate(60,760)"/>
<path d="M0 0 C6.6 0 13.2 0 20 0 C20 13.2 20 26.4 20 40 C13.4 40 6.8 40 0 40 C0 26.8 0 13.6 0 0 Z " fill="#FCA64C" transform="translate(840,700)"/>
<path d="M0 0 C13.2 0 26.4 0 40 0 C40 6.6 40 13.2 40 20 C26.8 20 13.6 20 0 20 C0 13.4 0 6.8 0 0 Z " fill="#944C3D" transform="translate(840,620)"/>
<path d="M0 0 C6.6 0 13.2 0 20 0 C20 13.2 20 26.4 20 40 C13.4 40 6.8 40 0 40 C0 26.8 0 13.6 0 0 Z " fill="#E8832F" transform="translate(640,580)"/>
<path d="M0 0 C13.2 0 26.4 0 40 0 C40 6.6 40 13.2 40 20 C26.8 20 13.6 20 0 20 C0 13.4 0 6.8 0 0 Z " fill="#944C3D" transform="translate(200,540)"/>
<path d="M0 0 C13.2 0 26.4 0 40 0 C40 6.6 40 13.2 40 20 C26.8 20 13.6 20 0 20 C0 13.4 0 6.8 0 0 Z " fill="#944C3D" transform="translate(720,520)"/>
<path d="M0 0 C13.2 0 26.4 0 40 0 C40 6.6 40 13.2 40 20 C26.8 20 13.6 20 0 20 C0 13.4 0 6.8 0 0 Z " fill="#C87631" transform="translate(600,520)"/>
<path d="M0 0 C13.2 0 26.4 0 40 0 C40 6.6 40 13.2 40 20 C26.8 20 13.6 20 0 20 C0 13.4 0 6.8 0 0 Z " fill="#944C3D" transform="translate(680,500)"/>
<path d="M0 0 C13.2 0 26.4 0 40 0 C40 6.6 40 13.2 40 20 C26.8 20 13.6 20 0 20 C0 13.4 0 6.8 0 0 Z " fill="#944C3D" transform="translate(640,480)"/>
<path d="M0 0 C6.6 0 13.2 0 20 0 C20 13.2 20 26.4 20 40 C13.4 40 6.8 40 0 40 C0 26.8 0 13.6 0 0 Z " fill="#FCDE93" transform="translate(620,480)"/>
<path d="M0 0 C6.6 0 13.2 0 20 0 C20 13.2 20 26.4 20 40 C13.4 40 6.8 40 0 40 C0 26.8 0 13.6 0 0 Z " fill="#FDF7F3" transform="translate(500,140)"/>
<path d="M0 0 C6.6 0 13.2 0 20 0 C20 6.6 20 13.2 20 20 C13.4 20 6.8 20 0 20 C0 13.4 0 6.8 0 0 Z " fill="#ACA4A3" transform="translate(800,820)"/>
<path d="M0 0 C6.6 0 13.2 0 20 0 C20 6.6 20 13.2 20 20 C13.4 20 6.8 20 0 20 C0 13.4 0 6.8 0 0 Z " fill="#ACA4A3" transform="translate(700,820)"/>
<path d="M0 0 C6.6 0 13.2 0 20 0 C20 6.6 20 13.2 20 20 C13.4 20 6.8 20 0 20 C0 13.4 0 6.8 0 0 Z " fill="#ACA4A3" transform="translate(300,820)"/>
<path d="M0 0 C6.6 0 13.2 0 20 0 C20 6.6 20 13.2 20 20 C13.4 20 6.8 20 0 20 C0 13.4 0 6.8 0 0 Z " fill="#A19C9C" transform="translate(920,800)"/>
<path d="M0 0 C6.6 0 13.2 0 20 0 C20 6.6 20 13.2 20 20 C13.4 20 6.8 20 0 20 C0 13.4 0 6.8 0 0 Z " fill="#978F8F" transform="translate(840,800)"/>
<path d="M0 0 C6.6 0 13.2 0 20 0 C20 6.6 20 13.2 20 20 C13.4 20 6.8 20 0 20 C0 13.4 0 6.8 0 0 Z " fill="#ACA4A3" transform="translate(320,800)"/>
<path d="M0 0 C6.6 0 13.2 0 20 0 C20 6.6 20 13.2 20 20 C13.4 20 6.8 20 0 20 C0 13.4 0 6.8 0 0 Z " fill="#978F8F" transform="translate(120,800)"/>
<path d="M0 0 C6.6 0 13.2 0 20 0 C20 6.6 20 13.2 20 20 C13.4 20 6.8 20 0 20 C0 13.4 0 6.8 0 0 Z " fill="#F7E9E7" transform="translate(40,800)"/>
<path d="M0 0 C6.6 0 13.2 0 20 0 C20 6.6 20 13.2 20 20 C13.4 20 6.8 20 0 20 C0 13.4 0 6.8 0 0 Z " fill="#F7E9E7" transform="translate(920,780)"/>
<path d="M0 0 C6.6 0 13.2 0 20 0 C20 6.6 20 13.2 20 20 C13.4 20 6.8 20 0 20 C0 13.4 0 6.8 0 0 Z " fill="#978F8F" transform="translate(880,780)"/>
<path d="M0 0 C6.6 0 13.2 0 20 0 C20 6.6 20 13.2 20 20 C13.4 20 6.8 20 0 20 C0 13.4 0 6.8 0 0 Z " fill="#FCA64C" transform="translate(820,780)"/>
<path d="M0 0 C6.6 0 13.2 0 20 0 C20 6.6 20 13.2 20 20 C13.4 20 6.8 20 0 20 C0 13.4 0 6.8 0 0 Z " fill="#E8832F" transform="translate(760,780)"/>
<path d="M0 0 C6.6 0 13.2 0 20 0 C20 6.6 20 13.2 20 20 C13.4 20 6.8 20 0 20 C0 13.4 0 6.8 0 0 Z " fill="#FCA64C" transform="translate(200,780)"/>
<path d="M0 0 C6.6 0 13.2 0 20 0 C20 6.6 20 13.2 20 20 C13.4 20 6.8 20 0 20 C0 13.4 0 6.8 0 0 Z " fill="#FCA64C" transform="translate(140,780)"/>
<path d="M0 0 C6.6 0 13.2 0 20 0 C20 6.6 20 13.2 20 20 C13.4 20 6.8 20 0 20 C0 13.4 0 6.8 0 0 Z " fill="#944C3D" transform="translate(120,780)"/>
<path d="M0 0 C6.6 0 13.2 0 20 0 C20 6.6 20 13.2 20 20 C13.4 20 6.8 20 0 20 C0 13.4 0 6.8 0 0 Z " fill="#978F8F" transform="translate(100,780)"/>
<path d="M0 0 C6.6 0 13.2 0 20 0 C20 6.6 20 13.2 20 20 C13.4 20 6.8 20 0 20 C0 13.4 0 6.8 0 0 Z " fill="#F7E9E7" transform="translate(900,760)"/>
<path d="M0 0 C6.6 0 13.2 0 20 0 C20 6.6 20 13.2 20 20 C13.4 20 6.8 20 0 20 C0 13.4 0 6.8 0 0 Z " fill="#E8832F" transform="translate(680,760)"/>
<path d="M0 0 C6.6 0 13.2 0 20 0 C20 6.6 20 13.2 20 20 C13.4 20 6.8 20 0 20 C0 13.4 0 6.8 0 0 Z " fill="#FCDE93" transform="translate(660,760)"/>
<path d="M0 0 C6.6 0 13.2 0 20 0 C20 6.6 20 13.2 20 20 C13.4 20 6.8 20 0 20 C0 13.4 0 6.8 0 0 Z " fill="#FCA64C" transform="translate(420,760)"/>
<path d="M0 0 C6.6 0 13.2 0 20 0 C20 6.6 20 13.2 20 20 C13.4 20 6.8 20 0 20 C0 13.4 0 6.8 0 0 Z " fill="#C87631" transform="translate(380,760)"/>
<path d="M0 0 C6.6 0 13.2 0 20 0 C20 6.6 20 13.2 20 20 C13.4 20 6.8 20 0 20 C0 13.4 0 6.8 0 0 Z " fill="#FCA64C" transform="translate(120,760)"/>
<path d="M0 0 C6.6 0 13.2 0 20 0 C20 6.6 20 13.2 20 20 C13.4 20 6.8 20 0 20 C0 13.4 0 6.8 0 0 Z " fill="#FCA64C" transform="translate(440,740)"/>
<path d="M0 0 C6.6 0 13.2 0 20 0 C20 6.6 20 13.2 20 20 C13.4 20 6.8 20 0 20 C0 13.4 0 6.8 0 0 Z " fill="#F7E9E7" transform="translate(80,740)"/>
<path d="M0 0 C6.6 0 13.2 0 20 0 C20 6.6 20 13.2 20 20 C13.4 20 6.8 20 0 20 C0 13.4 0 6.8 0 0 Z " fill="#FCB168" transform="translate(360,720)"/>
<path d="M0 0 C6.6 0 13.2 0 20 0 C20 6.6 20 13.2 20 20 C13.4 20 6.8 20 0 20 C0 13.4 0 6.8 0 0 Z " fill="#FCB168" transform="translate(360,660)"/>
<path d="M0 0 C6.6 0 13.2 0 20 0 C20 6.6 20 13.2 20 20 C13.4 20 6.8 20 0 20 C0 13.4 0 6.8 0 0 Z " fill="#E8832F" transform="translate(420,640)"/>
<path d="M0 0 C6.6 0 13.2 0 20 0 C20 6.6 20 13.2 20 20 C13.4 20 6.8 20 0 20 C0 13.4 0 6.8 0 0 Z " fill="#FCA64C" transform="translate(180,640)"/>
<path d="M0 0 C6.6 0 13.2 0 20 0 C20 6.6 20 13.2 20 20 C13.4 20 6.8 20 0 20 C0 13.4 0 6.8 0 0 Z " fill="#E8832F" transform="translate(160,640)"/>
<path d="M0 0 C6.6 0 13.2 0 20 0 C20 6.6 20 13.2 20 20 C13.4 20 6.8 20 0 20 C0 13.4 0 6.8 0 0 Z " fill="#FCA64C" transform="translate(200,620)"/>
<path d="M0 0 C6.6 0 13.2 0 20 0 C20 6.6 20 13.2 20 20 C13.4 20 6.8 20 0 20 C0 13.4 0 6.8 0 0 Z " fill="#E8832F" transform="translate(180,620)"/>
<path d="M0 0 C6.6 0 13.2 0 20 0 C20 6.6 20 13.2 20 20 C13.4 20 6.8 20 0 20 C0 13.4 0 6.8 0 0 Z " fill="#944C3D" transform="translate(120,620)"/>
<path d="M0 0 C6.6 0 13.2 0 20 0 C20 6.6 20 13.2 20 20 C13.4 20 6.8 20 0 20 C0 13.4 0 6.8 0 0 Z " fill="#944C3D" transform="translate(820,600)"/>
<path d="M0 0 C6.6 0 13.2 0 20 0 C20 6.6 20 13.2 20 20 C13.4 20 6.8 20 0 20 C0 13.4 0 6.8 0 0 Z " fill="#FCF3A6" transform="translate(740,600)"/>
<path d="M0 0 C6.6 0 13.2 0 20 0 C20 6.6 20 13.2 20 20 C13.4 20 6.8 20 0 20 C0 13.4 0 6.8 0 0 Z " fill="#E8832F" transform="translate(380,600)"/>
<path d="M0 0 C6.6 0 13.2 0 20 0 C20 6.6 20 13.2 20 20 C13.4 20 6.8 20 0 20 C0 13.4 0 6.8 0 0 Z " fill="#FCB168" transform="translate(320,600)"/>
<path d="M0 0 C6.6 0 13.2 0 20 0 C20 6.6 20 13.2 20 20 C13.4 20 6.8 20 0 20 C0 13.4 0 6.8 0 0 Z " fill="#944C3D" transform="translate(140,600)"/>
<path d="M0 0 C6.6 0 13.2 0 20 0 C20 6.6 20 13.2 20 20 C13.4 20 6.8 20 0 20 C0 13.4 0 6.8 0 0 Z " fill="#944C3D" transform="translate(800,580)"/>
<path d="M0 0 C6.6 0 13.2 0 20 0 C20 6.6 20 13.2 20 20 C13.4 20 6.8 20 0 20 C0 13.4 0 6.8 0 0 Z " fill="#FCB168" transform="translate(600,580)"/>
<path d="M0 0 C6.6 0 13.2 0 20 0 C20 6.6 20 13.2 20 20 C13.4 20 6.8 20 0 20 C0 13.4 0 6.8 0 0 Z " fill="#944C3D" transform="translate(160,580)"/>
<path d="M0 0 C6.6 0 13.2 0 20 0 C20 6.6 20 13.2 20 20 C13.4 20 6.8 20 0 20 C0 13.4 0 6.8 0 0 Z " fill="#944C3D" transform="translate(780,560)"/>
<path d="M0 0 C6.6 0 13.2 0 20 0 C20 6.6 20 13.2 20 20 C13.4 20 6.8 20 0 20 C0 13.4 0 6.8 0 0 Z " fill="#FCF3A6" transform="translate(720,560)"/>
<path d="M0 0 C6.6 0 13.2 0 20 0 C20 6.6 20 13.2 20 20 C13.4 20 6.8 20 0 20 C0 13.4 0 6.8 0 0 Z " fill="#E8832F" transform="translate(620,560)"/>
<path d="M0 0 C6.6 0 13.2 0 20 0 C20 6.6 20 13.2 20 20 C13.4 20 6.8 20 0 20 C0 13.4 0 6.8 0 0 Z " fill="#FCB168" transform="translate(580,560)"/>
<path d="M0 0 C6.6 0 13.2 0 20 0 C20 6.6 20 13.2 20 20 C13.4 20 6.8 20 0 20 C0 13.4 0 6.8 0 0 Z " fill="#FCDE93" transform="translate(340,560)"/>
<path d="M0 0 C6.6 0 13.2 0 20 0 C20 6.6 20 13.2 20 20 C13.4 20 6.8 20 0 20 C0 13.4 0 6.8 0 0 Z " fill="#FCDE93" transform="translate(240,560)"/>
<path d="M0 0 C6.6 0 13.2 0 20 0 C20 6.6 20 13.2 20 20 C13.4 20 6.8 20 0 20 C0 13.4 0 6.8 0 0 Z " fill="#944C3D" transform="translate(180,560)"/>
<path d="M0 0 C6.6 0 13.2 0 20 0 C20 6.6 20 13.2 20 20 C13.4 20 6.8 20 0 20 C0 13.4 0 6.8 0 0 Z " fill="#944C3D" transform="translate(760,540)"/>
<path d="M0 0 C6.6 0 13.2 0 20 0 C20 6.6 20 13.2 20 20 C13.4 20 6.8 20 0 20 C0 13.4 0 6.8 0 0 Z " fill="#FCDE93" transform="translate(660,540)"/>
<path d="M0 0 C6.6 0 13.2 0 20 0 C20 6.6 20 13.2 20 20 C13.4 20 6.8 20 0 20 C0 13.4 0 6.8 0 0 Z " fill="#FCDE93" transform="translate(620,540)"/>
<path d="M0 0 C6.6 0 13.2 0 20 0 C20 6.6 20 13.2 20 20 C13.4 20 6.8 20 0 20 C0 13.4 0 6.8 0 0 Z " fill="#FCDE93" transform="translate(380,540)"/>
<path d="M0 0 C6.6 0 13.2 0 20 0 C20 6.6 20 13.2 20 20 C13.4 20 6.8 20 0 20 C0 13.4 0 6.8 0 0 Z " fill="#FCF3A6" transform="translate(300,540)"/>
<path d="M0 0 C6.6 0 13.2 0 20 0 C20 6.6 20 13.2 20 20 C13.4 20 6.8 20 0 20 C0 13.4 0 6.8 0 0 Z " fill="#FDF7F3" transform="translate(700,520)"/>
<path d="M0 0 C6.6 0 13.2 0 20 0 C20 6.6 20 13.2 20 20 C13.4 20 6.8 20 0 20 C0 13.4 0 6.8 0 0 Z " fill="#FCDE93" transform="translate(640,520)"/>
<path d="M0 0 C6.6 0 13.2 0 20 0 C20 6.6 20 13.2 20 20 C13.4 20 6.8 20 0 20 C0 13.4 0 6.8 0 0 Z " fill="#FCF3A6" transform="translate(560,520)"/>
<path d="M0 0 C6.6 0 13.2 0 20 0 C20 6.6 20 13.2 20 20 C13.4 20 6.8 20 0 20 C0 13.4 0 6.8 0 0 Z " fill="#FCF3A6" transform="translate(520,520)"/>
<path d="M0 0 C6.6 0 13.2 0 20 0 C20 6.6 20 13.2 20 20 C13.4 20 6.8 20 0 20 C0 13.4 0 6.8 0 0 Z " fill="#FCF3A6" transform="translate(380,520)"/>
<path d="M0 0 C6.6 0 13.2 0 20 0 C20 6.6 20 13.2 20 20 C13.4 20 6.8 20 0 20 C0 13.4 0 6.8 0 0 Z " fill="#FCF3A6" transform="translate(320,520)"/>
<path d="M0 0 C6.6 0 13.2 0 20 0 C20 6.6 20 13.2 20 20 C13.4 20 6.8 20 0 20 C0 13.4 0 6.8 0 0 Z " fill="#C87631" transform="translate(300,520)"/>
<path d="M0 0 C6.6 0 13.2 0 20 0 C20 6.6 20 13.2 20 20 C13.4 20 6.8 20 0 20 C0 13.4 0 6.8 0 0 Z " fill="#FCF3A6" transform="translate(460,500)"/>
<path d="M0 0 C6.6 0 13.2 0 20 0 C20 6.6 20 13.2 20 20 C13.4 20 6.8 20 0 20 C0 13.4 0 6.8 0 0 Z " fill="#FCF3A6" transform="translate(360,500)"/>
<path d="M0 0 C6.6 0 13.2 0 20 0 C20 6.6 20 13.2 20 20 C13.4 20 6.8 20 0 20 C0 13.4 0 6.8 0 0 Z " fill="#FCF3A6" transform="translate(580,480)"/>
<path d="M0 0 C6.6 0 13.2 0 20 0 C20 6.6 20 13.2 20 20 C13.4 20 6.8 20 0 20 C0 13.4 0 6.8 0 0 Z " fill="#FCF3A6" transform="translate(540,480)"/>
<path d="M0 0 C6.6 0 13.2 0 20 0 C20 6.6 20 13.2 20 20 C13.4 20 6.8 20 0 20 C0 13.4 0 6.8 0 0 Z " fill="#E9822B" transform="translate(460,480)"/>
<path d="M0 0 C6.6 0 13.2 0 20 0 C20 6.6 20 13.2 20 20 C13.4 20 6.8 20 0 20 C0 13.4 0 6.8 0 0 Z " fill="#FCF3A6" transform="translate(440,480)"/>
<path d="M0 0 C6.6 0 13.2 0 20 0 C20 6.6 20 13.2 20 20 C13.4 20 6.8 20 0 20 C0 13.4 0 6.8 0 0 Z " fill="#507F4F" transform="translate(480,260)"/>
<path d="M0 0 C6.6 0 13.2 0 20 0 C20 6.6 20 13.2 20 20 C13.4 20 6.8 20 0 20 C0 13.4 0 6.8 0 0 Z " fill="#556851" transform="translate(500,180)"/>
<path d="M0 0 C6.6 0 13.2 0 20 0 C20 6.6 20 13.2 20 20 C13.4 20 6.8 20 0 20 C0 13.4 0 6.8 0 0 Z " fill="#FCB264" transform="translate(480,100)"/>
</svg>
