<?xml version="1.0" encoding="UTF-8"?>
<svg version="1.1" xmlns="http://www.w3.org/2000/svg" width="500" height="500">
<path d="M0 0 C1.68662458 1.64646685 3.35511706 3.31183067 5 5 C6.30882388 6.10852169 7.62169255 7.21227682 8.9375 8.3125 C12.97063088 11.81694331 15.97032659 15.62204261 19 20 C19.55429687 20.7734375 20.10859375 21.546875 20.6796875 22.34375 C48.45273427 61.34945124 56.14981344 102.89444033 49 150 C48.07595696 155.13571143 46.6577575 160.05337954 45 165 C44.76297363 165.72703125 44.52594727 166.4540625 44.28173828 167.203125 C38.06707978 186.05386567 28.51118999 201.6995651 16.375 217.3125 C15.91947754 217.8998291 15.46395508 218.4871582 14.99462891 219.09228516 C-9.44528822 250.10979332 -48.76041364 267.0916308 -86.98974609 271.93505859 C-123.77511627 276.16114062 -165.30770942 265.6867098 -195 243.0625 C-211.28034386 229.79232389 -225.48556229 215.31142631 -236 197 C-236.98806641 195.30617188 -236.98806641 195.30617188 -237.99609375 193.578125 C-256.70666843 160.64095165 -261.63520664 123.95838698 -255 87 C-254.86078125 86.21737793 -254.7215625 85.43475586 -254.578125 84.62841797 C-249.91447506 59.3291966 -239.36156711 38.78730859 -223.43164062 18.80615234 C-221.62353967 16.52505908 -219.87707597 14.19926294 -218.125 11.875 C-195.67041758 -16.62923934 -156.85318532 -32.93709542 -121.70800781 -37.28344727 C-76.59725503 -42.2852483 -34.54126833 -29.20814611 0 0 Z " fill="#C2CD84" transform="translate(355,136)"/>
<path d="M0 0 C2.46830837 1.39490536 4.14035899 2.61274922 5.421875 5.17578125 C5.52000699 7.66660201 5.56093048 10.12311914 5.546875 12.61328125 C5.55074219 13.29455078 5.55460937 13.97582031 5.55859375 14.67773438 C5.5525124 17.78226171 5.41077812 20.2090719 4.421875 23.17578125 C3.761875 23.17578125 3.101875 23.17578125 2.421875 23.17578125 C2.18404297 24.13677734 2.18404297 24.13677734 1.94140625 25.1171875 C0.5321401 30.34159407 -1.02185355 34.08525197 -4.37109375 38.3046875 C-6.68358155 41.88941779 -7.56200023 46.0699763 -8.578125 50.17578125 C-7.8046875 50.129375 -7.03125 50.08296875 -6.234375 50.03515625 C0.59825192 49.79838205 5.77113229 50.10452325 11.421875 54.17578125 C11.91429687 54.67464844 12.40671875 55.17351562 12.9140625 55.6875 C14.50933149 57.26210489 16.00163284 58.14800994 17.984375 59.17578125 C21.421875 61.17578125 21.421875 61.17578125 23.421875 64.17578125 C24.1936915 68.7695737 24.37799775 73.27312896 22.25390625 77.5 C20.75168586 79.52741826 19.15685373 81.34556503 17.421875 83.17578125 C16.638125 84.16578125 15.854375 85.15578125 15.046875 86.17578125 C11.93883119 88.54381463 10.27859013 88.70572827 6.484375 88.64453125 C3.75377884 88.02394121 1.80176303 86.63812209 -0.578125 85.17578125 C-2.39508584 84.4657046 -4.229537 83.7989008 -6.078125 83.17578125 C-11.11574343 81.47770762 -15.16764149 79.11610359 -19.578125 76.17578125 C-19.578125 75.51578125 -19.578125 74.85578125 -19.578125 74.17578125 C-20.568125 74.17578125 -21.558125 74.17578125 -22.578125 74.17578125 C-24.55600092 78.40997192 -26.38910942 82.45515936 -27.578125 86.98828125 C-28.70249002 90.57219474 -29.97097845 91.5686347 -32.578125 94.17578125 C-34.15861143 96.74802291 -35.58386073 99.37392665 -37.015625 102.03125 C-38.578125 104.17578125 -38.578125 104.17578125 -40.4375 104.9453125 C-41.14390625 105.02136719 -41.8503125 105.09742188 -42.578125 105.17578125 C-43.40828125 105.28921875 -44.2384375 105.40265625 -45.09375 105.51953125 C-50.45341727 105.82579795 -53.89195598 105.58522833 -58.140625 102.11328125 C-61.45112625 98.74172568 -62.98151153 95.94868903 -63.578125 91.17578125 C-63.32745288 86.58012565 -62.18080271 82.69810055 -60.46484375 78.4375 C-59.79494225 76.72880851 -59.18222542 74.99754625 -58.59765625 73.2578125 C-58.26121094 72.26136719 -57.92476562 71.26492188 -57.578125 70.23828125 C-57.26875 69.30113281 -56.959375 68.36398437 -56.640625 67.3984375 C-56.29 66.66496094 -55.939375 65.93148437 -55.578125 65.17578125 C-54.093125 64.68078125 -54.093125 64.68078125 -52.578125 64.17578125 C-52.41125052 61.75932343 -52.41125052 61.75932343 -52.578125 59.17578125 C-54.71647031 57.03743594 -56.10050779 56.43640325 -58.890625 55.36328125 C-60.21900391 54.84314453 -60.21900391 54.84314453 -61.57421875 54.3125 C-63.70569322 53.50592124 -65.84458109 52.71881256 -67.98828125 51.9453125 C-69.13167969 51.52636719 -70.27507812 51.10742188 -71.453125 50.67578125 C-73.05800781 50.1034375 -73.05800781 50.1034375 -74.6953125 49.51953125 C-78.36668925 47.80821201 -80.75753392 45.81696342 -82.578125 42.17578125 C-82.67564047 40.07346248 -82.70789187 37.96785502 -82.703125 35.86328125 C-82.70699219 34.16751953 -82.70699219 34.16751953 -82.7109375 32.4375 C-82.59218968 29.52119336 -82.42007717 26.96884412 -81.578125 24.17578125 C-79.015625 22.86328125 -79.015625 22.86328125 -76.578125 22.17578125 C-76.248125 23.16578125 -75.918125 24.15578125 -75.578125 25.17578125 C-73.24801591 25.85363117 -70.91452676 26.51994918 -68.578125 27.17578125 C-67.918125 28.16578125 -67.258125 29.15578125 -66.578125 30.17578125 C-65.8975 29.35078125 -65.216875 28.52578125 -64.515625 27.67578125 C-60.89355605 24.59316938 -59.19918072 24.82702233 -54.578125 25.17578125 C-53.918125 24.84578125 -53.258125 24.51578125 -52.578125 24.17578125 C-51.588125 24.50578125 -50.598125 24.83578125 -49.578125 25.17578125 C-49.578125 25.83578125 -49.578125 26.49578125 -49.578125 27.17578125 C-47.598125 27.17578125 -45.618125 27.17578125 -43.578125 27.17578125 C-43.083125 29.15578125 -43.083125 29.15578125 -42.578125 31.17578125 C-41.918125 31.17578125 -41.258125 31.17578125 -40.578125 31.17578125 C-40.578125 31.83578125 -40.578125 32.49578125 -40.578125 33.17578125 C-37.34607221 32.46318902 -37.34607221 32.46318902 -35.97265625 29.453125 C-35.18955078 27.79990234 -35.18955078 27.79990234 -34.390625 26.11328125 C-33.86082031 25.00855469 -33.33101562 23.90382812 -32.78515625 22.765625 C-32.38683594 21.91097656 -31.98851562 21.05632812 -31.578125 20.17578125 C-30.918125 20.17578125 -30.258125 20.17578125 -29.578125 20.17578125 C-29.3925 18.72171875 -29.3925 18.72171875 -29.203125 17.23828125 C-28.996875 16.22765625 -28.790625 15.21703125 -28.578125 14.17578125 C-27.918125 13.84578125 -27.258125 13.51578125 -26.578125 13.17578125 C-26.0386436 11.1867754 -26.0386436 11.1867754 -25.703125 8.86328125 C-24.89643332 4.83622516 -23.96364566 2.71492174 -20.578125 0.17578125 C-15.39279234 -2.41688508 -5.37208993 -1.71744087 0 0 Z " fill="#DFE0DD" transform="translate(282.578125,203.82421875)"/>
<path d="M0 0 C0.99 0 1.98 0 3 0 C2.67 1.98 2.34 3.96 2 6 C1.34 6 0.68 6 0 6 C-0.23783203 6.96099609 -0.23783203 6.96099609 -0.48046875 7.94140625 C-1.8897349 13.16581282 -3.44372855 16.90947072 -6.79296875 21.12890625 C-9.10545655 24.71363654 -9.98387523 28.89419505 -11 33 C-10.2265625 32.95359375 -9.453125 32.9071875 -8.65625 32.859375 C-1.82362308 32.6226008 3.34925729 32.928742 9 37 C9.49242187 37.49886719 9.98484375 37.99773437 10.4921875 38.51171875 C12.08745649 40.08632364 13.57975784 40.97222869 15.5625 42 C19 44 19 44 21 47 C21.7718165 51.59379245 21.95612275 56.09734771 19.83203125 60.32421875 C18.32981086 62.35163701 16.73497873 64.16978378 15 66 C14.21625 66.99 13.4325 67.98 12.625 69 C9.51695619 71.36803338 7.85671513 71.52994702 4.0625 71.46875 C1.33190384 70.84815996 -0.62011197 69.46234084 -3 68 C-4.81696084 67.28992335 -6.651412 66.62311955 -8.5 66 C-13.53761843 64.30192637 -17.58951649 61.94032234 -22 59 C-22 58.34 -22 57.68 -22 57 C-22.99 57 -23.98 57 -25 57 C-26.97787592 61.23419067 -28.81098442 65.27937811 -30 69.8125 C-31.12436502 73.39641349 -32.39285345 74.39285345 -35 77 C-36.58048643 79.57224166 -38.00573573 82.1981454 -39.4375 84.85546875 C-41 87 -41 87 -42.8359375 87.78515625 C-45.44216222 88.04389697 -48.00509305 88.20762954 -50.625 88.25 C-51.58664063 88.27578125 -52.54828125 88.3015625 -53.5390625 88.328125 C-54.35117188 88.21984375 -55.16328125 88.1115625 -56 88 C-56.66 87.01 -57.32 86.02 -58 85 C-57.01 85.33 -56.02 85.66 -55 86 C-49.85056722 86.4017339 -49.85056722 86.4017339 -45 85 C-44.34 85.33 -43.68 85.66 -43 86 C-43.28875 85.319375 -43.5775 84.63875 -43.875 83.9375 C-44.05035937 79.81655486 -42.20756533 78.32386731 -39.54296875 75.35546875 C-38 74 -38 74 -36 74 C-35.67 72.35 -35.34 70.7 -35 69 C-34.34 69 -33.68 69 -33 69 C-33.07734375 67.91138672 -33.07734375 67.91138672 -33.15625 66.80078125 C-32.976797 63.58408614 -32.13960849 61.93384423 -30.5 59.1875 C-30.0359375 58.39730469 -29.571875 57.60710937 -29.09375 56.79296875 C-28.55234375 55.90544922 -28.55234375 55.90544922 -28 55 C-27.34 55 -26.68 55 -26 55 C-24.68 52.36 -23.36 49.72 -22 47 C-21.34 47 -20.68 47 -20 47 C-20 44.36 -20 41.72 -20 39 C-20.99 39.33 -21.98 39.66 -23 40 C-21.59347226 35.52468445 -19.3202902 33.23728294 -16 30 C-14.70480005 27.83379456 -14.70480005 27.83379456 -14 26 C-14.99 26.33 -15.98 26.66 -17 27 C-17 26.34 -17 25.68 -17 25 C-17.66 24.67 -18.32 24.34 -19 24 C-17.35 23.34 -15.7 22.68 -14 22 C-13.67 19.69 -13.34 17.38 -13 15 C-10.69 15 -8.38 15 -6 15 C-4.86637613 11.95775762 -4.86637613 11.95775762 -4.625 8.4375 C-4.41875 7.303125 -4.2125 6.16875 -4 5 C-3.01 4.34 -2.02 3.68 -1 3 C-0.67 2.01 -0.34 1.02 0 0 Z " fill="#D1D0CB" transform="translate(285,221)"/>
<path d="M0 0 C10.12073972 -0.34051087 18.28211765 -0.16809765 26.40234375 6.40234375 C28.39821353 8.39821353 29.35451083 10.25667102 30 13 C30.66 13 31.32 13 32 13 C34.84434406 20.31402758 36.69107744 26.61400953 33.5 34.1875 C30.51653542 39.57254778 25.77309328 41.89076269 20.2265625 44.109375 C11.50939037 46.51556779 1.12552762 46.1018919 -7.0703125 42.2109375 C-9.76625653 40.51915076 -11.43878492 38.76760856 -13 36 C-13 35.01 -13 34.02 -13 33 C-8.71 33.66 -4.42 34.32 0 35 C0.33 34.01 0.66 33.02 1 32 C2.4976677 30.76279625 3.99586899 29.52621285 5.5 28.296875 C8.55718505 25.65368376 9.80408093 23.44109363 10.3515625 19.4140625 C10.59408966 14.65287132 10.67730131 11.92887036 7.8125 8 C5.05684333 5.97401759 5.05684333 5.97401759 2.1875 4.375 C1.465625 3.92125 0.74375 3.4675 0 3 C0 2.01 0 1.02 0 0 Z " fill="#525250" transform="translate(295,257)"/>
<path d="M0 0 C-0.21462891 0.79664063 -0.21462891 0.79664063 -0.43359375 1.609375 C-1.1120936 4.47311231 -1.58893639 7.34547652 -2.0625 10.25 C-2.23910156 11.32765625 -2.41570312 12.4053125 -2.59765625 13.515625 C-2.73042969 14.33546875 -2.86320313 15.1553125 -3 16 C-2.01 16.33 -1.02 16.66 0 17 C2.23724859 19.12538617 4.38908879 21.23500139 6.31640625 23.6484375 C8.70512225 25.56606101 10.41570353 25.33200262 13.4375 25.25 C14.38496094 25.23453125 15.33242187 25.2190625 16.30859375 25.203125 C17.64083984 25.10257812 17.64083984 25.10257812 19 25 C20.051875 24.93232422 20.051875 24.93232422 21.125 24.86328125 C24.18754448 23.45323473 25.03654222 20.8562783 26.5625 17.9375 C28.31640625 14.58984375 28.31640625 14.58984375 30 12 C30.99 12 31.98 12 33 12 C35.32622007 16.65244014 33.98524838 23.0737581 33 28 C32.34 28 31.68 28 31 28 C30.8453125 28.88171875 30.8453125 28.88171875 30.6875 29.78125 C29.20580669 34.56307842 24.90870441 37.94452438 20.640625 40.3046875 C11.66439542 44.32345695 4.65002591 45.00125279 -4.73828125 41.91015625 C-10.21599733 39.70582491 -13.10828881 36.03371947 -16 31 C-16 30.01 -16 29.02 -16 28 C-16.66 28 -17.32 28 -18 28 C-18.91998059 14.58872747 -18.91998059 14.58872747 -14.49609375 8.6484375 C-10.51494003 4.26189214 -6.18339177 0 0 0 Z " fill="#525350" transform="translate(221,283)"/>
<path d="M0 0 C4.24154534 3.12033884 6.75537704 6.92689003 8.25390625 11.90234375 C9.0914241 17.8418836 9.04469527 23.28740538 5.5703125 28.34765625 C0.46767625 34.37391508 -5.21540847 37.5619114 -12.74609375 39.90234375 C-13.40609375 39.90234375 -14.06609375 39.90234375 -14.74609375 39.90234375 C-14.41609375 37.59234375 -14.08609375 35.28234375 -13.74609375 32.90234375 C-13.08609375 32.90234375 -12.42609375 32.90234375 -11.74609375 32.90234375 C-11.63803231 29.98468484 -11.55876498 27.0710325 -11.49609375 24.15234375 C-11.46257812 23.32734375 -11.4290625 22.50234375 -11.39453125 21.65234375 C-11.27698292 16.6810104 -11.27698292 16.6810104 -13.57421875 12.38671875 C-17.76756472 9.52076287 -21.79970459 9.75110979 -26.68359375 9.77734375 C-27.39966797 9.77347656 -28.11574219 9.76960937 -28.85351562 9.765625 C-33.91870878 9.65674181 -33.91870878 9.65674181 -38.74609375 10.90234375 C-39.44990532 12.88957643 -40.11727485 14.89012328 -40.74609375 16.90234375 C-41.73609375 17.23234375 -42.72609375 17.56234375 -43.74609375 17.90234375 C-44.05044882 13.48919521 -44.16903322 10.82177737 -42.30859375 6.77734375 C-30.95823189 -5.95720858 -14.54065225 -9.14076797 0 0 Z " fill="#535351" transform="translate(298.74609375,194.09765625)"/>
<path d="M0 0 C4.39179311 2.73757266 8.38988063 5.88906413 11 10.4375 C11 11.4275 11 12.4175 11 13.4375 C7.17763726 12.35939769 4.13638952 10.92281116 0.8125 8.8125 C-4.33123011 5.88814582 -9.19248269 5.24834169 -15 6.4375 C-18.15222575 8.66740529 -18.15222575 8.66740529 -20 11.4375 C-20.33 11.7675 -20.66 12.0975 -21 12.4375 C-21.25121222 15.51284418 -21.18522873 18.60310967 -21.1875 21.6875 C-21.20586914 22.97720703 -21.20586914 22.97720703 -21.22460938 24.29296875 C-21.2547974 30.60626135 -21.2547974 30.60626135 -19 36.4375 C-16.95894361 37.32443303 -16.95894361 37.32443303 -15 37.4375 C-15 38.0975 -15 38.7575 -15 39.4375 C-22.71435433 40.08036286 -27.85418669 37.32915065 -33.8125 32.5625 C-38.34129263 28.4059369 -40.14301617 24.58485 -40.4375 18.4375 C-40.27371107 13.68049975 -39.16380935 11.10085819 -36 7.4375 C-35.5875 6.92445313 -35.175 6.41140625 -34.75 5.8828125 C-26.20660209 -3.87413625 -11.33926414 -5.75448371 0 0 Z " fill="#545451" transform="translate(222,214.5625)"/>
<path d="M0 0 C0.66 0 1.32 0 2 0 C2.83887056 2.43572059 3.67126529 4.87333217 4.5 7.3125 C4.73847656 8.00279297 4.97695312 8.69308594 5.22265625 9.40429688 C6.23208263 12.38931489 7 14.82658914 7 18 C7.66 18 8.32 18 9 18 C9.25394531 18.67546875 9.50789063 19.3509375 9.76953125 20.046875 C10.11371094 20.93890625 10.45789063 21.8309375 10.8125 22.75 C11.31716797 24.07257813 11.31716797 24.07257813 11.83203125 25.421875 C12.89880433 28.0343481 12.89880433 28.0343481 14.63671875 30.140625 C16 32 16 32 16 35 C16.66 35 17.32 35 18 35 C18 35.66 18 36.32 18 37 C18.66 37 19.32 37 20 37 C20.33 38.98 20.66 40.96 21 43 C21.66 43 22.32 43 23 43 C24.2890625 44.6796875 24.2890625 44.6796875 25.625 46.875 C26.07101563 47.59429687 26.51703125 48.31359375 26.9765625 49.0546875 C28 51 28 51 28 53 C28.66 53 29.32 53 30 53 C30.12375 53.928125 30.12375 53.928125 30.25 54.875 C30.81258459 57.18437567 30.81258459 57.18437567 33.0625 58.25 C33.701875 58.4975 34.34125 58.745 35 59 C35 59.66 35 60.32 35 61 C35.66 61 36.32 61 37 61 C40.34097516 63.73352513 41.52354792 65.71193127 42 70 C42.66 70 43.32 70 44 70 C45.66666667 71.66666667 47.33333333 73.33333333 49 75 C52.24379942 77.38319958 54.97356088 79.38054783 59 80 C59 80.66 59 81.32 59 82 C59.9590625 82.37125 59.9590625 82.37125 60.9375 82.75 C63 84 63 84 63.75 86.125 C63.8325 86.74375 63.915 87.3625 64 88 C65.98 88.33 67.96 88.66 70 89 C70 89.66 70 90.32 70 91 C70.66 91 71.32 91 72 91 C72.639375 91.721875 73.27875 92.44375 73.9375 93.1875 C78.99253865 98.48325478 87.1354648 100.95919224 94 103 C94 103.66 94 104.32 94 105 C95.03125 105.226875 96.0625 105.45375 97.125 105.6875 C103.57323328 107.28209921 109.7740746 109.70899936 116 112 C110.08831282 114.22460702 103.73351891 110.66924987 98.0625 108.75 C97.39171417 108.52513916 96.72092834 108.30027832 96.02981567 108.06860352 C67.95440862 98.58304091 44.2235005 82.55864666 25.375 59.5 C24.61960938 58.5821875 23.86421875 57.664375 23.0859375 56.71875 C18.12827294 50.25707485 18.12827294 50.25707485 17.6875 45.9375 C16.6599643 40.0525228 13.78340044 35.24056691 11 30 C7 22.27963526 7 22.27963526 7 20 C6.34 20 5.68 20 5 20 C4.16247839 17.04283593 3.33069969 14.084087 2.5 11.125 C2.26152344 10.28324219 2.02304688 9.44148438 1.77734375 8.57421875 C1.55175781 7.76855469 1.32617188 6.96289062 1.09375 6.1328125 C0.88427734 5.38918457 0.67480469 4.64555664 0.45898438 3.87939453 C0 2 0 2 0 0 Z " fill="#D6E09D" transform="translate(106,292)"/>
<path d="M0 0 C0.99 0 1.98 0 3 0 C2.67 1.98 2.34 3.96 2 6 C1.34 6 0.68 6 0 6 C-0.23783203 6.96099609 -0.23783203 6.96099609 -0.48046875 7.94140625 C-1.8897349 13.16581282 -3.44372855 16.90947072 -6.79296875 21.12890625 C-9.10545655 24.71363654 -9.98387523 28.89419505 -11 33 C-10.2265625 32.95359375 -9.453125 32.9071875 -8.65625 32.859375 C-1.82362308 32.6226008 3.34925729 32.928742 9 37 C9.49242187 37.49886719 9.98484375 37.99773437 10.4921875 38.51171875 C12.08745649 40.08632364 13.57975784 40.97222869 15.5625 42 C19 44 19 44 21 47 C21.1953125 49.69921875 21.1953125 49.69921875 21.125 52.6875 C21.10695313 53.68136719 21.08890625 54.67523438 21.0703125 55.69921875 C21.04710937 56.45847656 21.02390625 57.21773438 21 58 C20.67 58 20.34 58 20 58 C19.34 54.04 18.68 50.08 18 46 C14.535 46.495 14.535 46.495 11 47 C10.34 46.01 9.68 45.02 9 44 C7.515 43.505 7.515 43.505 6 43 C3.8125 41.0625 3.8125 41.0625 2 39 C2 38.34 2 37.68 2 37 C0.02 37.495 0.02 37.495 -2 38 C-2.66 36.68 -3.32 35.36 -4 34 C-5.32 34.66 -6.64 35.32 -8 36 C-8 37.32 -8 38.64 -8 40 C-7.34 40.33 -6.68 40.66 -6 41 C-6 41.99 -6 42.98 -6 44 C-6.99 44 -7.98 44 -9 44 C-9 43.01 -9 42.02 -9 41 C-10.94999129 41.19471111 -10.94999129 41.19471111 -13 42 C-14.28436734 43.9837767 -14.28436734 43.9837767 -15 46 C-15.33 45.34 -15.66 44.68 -16 44 C-16.66 44 -17.32 44 -18 44 C-17.67 43.401875 -17.34 42.80375 -17 42.1875 C-15.79212012 39.94613529 -15.79212012 39.94613529 -16 37 C-15.67 36.05125 -15.34 35.1025 -15 34.125 C-14.05681824 31.17755699 -13.82006815 29.05884147 -14 26 C-14.99 26.33 -15.98 26.66 -17 27 C-17 26.34 -17 25.68 -17 25 C-17.66 24.67 -18.32 24.34 -19 24 C-17.35 23.34 -15.7 22.68 -14 22 C-13.67 19.69 -13.34 17.38 -13 15 C-10.69 15 -8.38 15 -6 15 C-4.86637613 11.95775762 -4.86637613 11.95775762 -4.625 8.4375 C-4.41875 7.303125 -4.2125 6.16875 -4 5 C-3.01 4.34 -2.02 3.68 -1 3 C-0.67 2.01 -0.34 1.02 0 0 Z " fill="#D4D4D3" transform="translate(285,221)"/>
<path d="M0 0 C4.54748603 -0.36871508 4.54748603 -0.36871508 6.6875 1.375 C7.120625 1.91125 7.55375 2.4475 8 3 C8.66 3.66 9.32 4.32 10 5 C10.309375 5.845625 10.61875 6.69125 10.9375 7.5625 C11.288125 8.366875 11.63875 9.17125 12 10 C12.99 10.33 13.98 10.66 15 11 C15.495 11.99 15.495 11.99 16 13 C16.99 13.33 17.98 13.66 19 14 C19.33 13.01 19.66 12.02 20 11 C22.0625 9.8125 22.0625 9.8125 24 9 C23.46972205 13.5073626 21.80388725 16.4539073 19 20 C18.01 20 17.02 20 16 20 C16 19.34 16 18.68 16 18 C15.34 18 14.68 18 14 18 C13.505 16.02 13.505 16.02 13 14 C11.02 14 9.04 14 7 14 C7 13.34 7 12.68 7 12 C3.99668238 12.30752926 0.99825384 12.64667042 -2 13 C-2.928125 13.103125 -3.85625 13.20625 -4.8125 13.3125 C-7.67101122 14.21088924 -9.05755218 15.76978213 -11 18 C-11.33 16.68 -11.66 15.36 -12 14 C-13.11375 13.8453125 -13.11375 13.8453125 -14.25 13.6875 C-17 13 -17 13 -19.0625 11.375 C-20.9165451 9.7264136 -20.9165451 9.7264136 -23.25 10.3125 C-24.11625 10.6528125 -24.11625 10.6528125 -25 11 C-25 12.65 -25 14.3 -25 16 C-25.33 16 -25.66 16 -26 16 C-26.34751969 13.08083462 -26.53280018 10.86804524 -24.95703125 8.30078125 C-22.43593517 5.24737162 -20.71087859 3.20472051 -16.71484375 2.7265625 C-9.33698186 2.45676727 -5.10614749 4.02390396 1 8 C2.99295826 9.01396122 4.98979754 10.0206706 7 11 C5.07848152 6.86873527 2.95749791 3.46741134 0 0 Z " fill="#C1C1BD" transform="translate(226,217)"/>
<path d="M0 0 C1.32 0.33 2.64 0.66 4 1 C4 1.66 4 2.32 4 3 C4.55042969 3.23976563 5.10085937 3.47953125 5.66796875 3.7265625 C8.5418515 5.29588541 10.819963 7.25264177 13.3125 9.375 C17.38826747 12.76783056 21.28542586 15.59032878 26 18 C25.36191406 17.51789063 24.72382813 17.03578125 24.06640625 16.5390625 C22.82697266 15.59160156 22.82697266 15.59160156 21.5625 14.625 C20.73878906 13.99851562 19.91507813 13.37203125 19.06640625 12.7265625 C17 11 17 11 16 9 C16.5775 9.309375 17.155 9.61875 17.75 9.9375 C19.84294184 10.92583364 21.74535275 11.5168613 24 12 C24 12.66 24 13.32 24 14 C24.9590625 14.37125 24.9590625 14.37125 25.9375 14.75 C28 16 28 16 28.75 18.125 C28.87375 19.053125 28.87375 19.053125 29 20 C30.98 20.33 32.96 20.66 35 21 C35 21.66 35 22.32 35 23 C35.66 23 36.32 23 37 23 C37.639375 23.721875 38.27875 24.44375 38.9375 25.1875 C43.99253865 30.48325478 52.1354648 32.95919224 59 35 C59 35.66 59 36.32 59 37 C60.03125 37.226875 61.0625 37.45375 62.125 37.6875 C68.57323328 39.28209921 74.7740746 41.70899936 81 44 C75.08831282 46.22460702 68.73351891 42.66924987 63.0625 40.75 C62.39171417 40.52513916 61.72092834 40.30027832 61.02981567 40.06860352 C43.42550098 34.12080625 27.05544395 26.34104211 13 14 C12.10933838 13.22245361 12.10933838 13.22245361 11.20068359 12.42919922 C9.34993032 10.79997769 7.51450882 9.15578887 5.6875 7.5 C5.11708984 6.9831665 4.54667969 6.46633301 3.95898438 5.93383789 C2.59793576 4.66556883 1.29306806 3.33751066 0 2 C0 1.34 0 0.68 0 0 Z " fill="#D9DEA2" transform="translate(141,360)"/>
<path d="M0 0 C0.33 0.66 0.66 1.32 1 2 C-1.04497388 7.172581 -4.29931105 10.9519972 -8 15 C-8.59425781 14.81953125 -9.18851562 14.6390625 -9.80078125 14.453125 C-13.00423115 13.79308914 -15.05895855 14.69287046 -18 16 C-18.33 16.99 -18.66 17.98 -19 19 C-19.66 19 -20.32 19 -21 19 C-20.67 20.65 -20.34 22.3 -20 24 C-21.65 24.33 -23.3 24.66 -25 25 C-25.33 26.98 -25.66 28.96 -26 31 C-23.03 31.33 -20.06 31.66 -17 32 C-16.67 32.99 -16.34 33.98 -16 35 C-14.88625 34.649375 -13.7725 34.29875 -12.625 33.9375 C-6.37098531 32.38783264 -0.11628134 32.84303183 5.75 35.5625 C9.14456306 37.06394135 11.33776854 37.26796816 15 37 C15 38.65 15 40.3 15 42 C14.360625 41.71125 13.72125 41.4225 13.0625 41.125 C5.56231073 38.36982843 -2.06760002 37.5634228 -10 37 C-10.33 37.66 -10.66 38.32 -11 39 C-12.0725 38.360625 -13.145 37.72125 -14.25 37.0625 C-19.61078665 34.33389816 -25.07647913 34.1974507 -31 34 C-30.64911877 28.50286068 -29.07081944 24.94322532 -26.27734375 20.22265625 C-24.56447525 17.24216029 -23.28722047 14.18417696 -22 11 C-21.67 11.99 -21.34 12.98 -21 14 C-12.21931318 10.78488028 -5.43250749 8.04664644 0 0 Z " fill="#9DA07E" transform="translate(305,220)"/>
<path d="M0 0 C0.33 0 0.66 0 1 0 C2.28571429 8.42857143 2.28571429 8.42857143 1 13 C1.99 13.33 2.98 13.66 4 14 C5.07074592 15.96303418 6.06295743 17.9697411 7 20 C7.495 20.721875 7.99 21.44375 8.5 22.1875 C10.81897248 26.53557339 11.82332722 31.23489248 13 36 C13.33 36 13.66 36 14 36 C14 37.98 14 39.96 14 42 C14.66 42 15.32 42 16 42 C16.33 42.99 16.66 43.98 17 45 C16.34 45.66 15.68 46.32 15 47 C13.23537317 43.91190305 13 42.76687864 13 39 C12.34 39 11.68 39 11 39 C10.16112944 36.56427941 9.32873471 34.12666783 8.5 31.6875 C8.26152344 30.99720703 8.02304688 30.30691406 7.77734375 29.59570312 C6.76791737 26.61068511 6 24.17341086 6 21 C5.34 21 4.68 21 4 21 C4.3609375 22.10859375 4.721875 23.2171875 5.09375 24.359375 C5.56280277 25.82281966 6.03153607 27.28636674 6.5 28.75 C6.73847656 29.47960937 6.97695312 30.20921875 7.22265625 30.9609375 C7.44824219 31.66992188 7.67382812 32.37890625 7.90625 33.109375 C8.11572266 33.75874023 8.32519531 34.40810547 8.54101562 35.07714844 C9 37 9 37 9 41 C9.66 41 10.32 41 11 41 C13.04240497 45.0318369 15.0687683 49.07099457 17.07177734 53.12255859 C17.91566613 54.82942466 18.76421642 56.53398405 19.61328125 58.23828125 C20.07089844 59.19089844 20.52851562 60.14351563 21 61.125 C21.4125 61.97320312 21.825 62.82140625 22.25 63.6953125 C23.0890388 66.27360882 22.925198 67.49040042 22 70 C14.10032821 57.83245358 8.04397814 45.32423336 3.125 31.6875 C2.82650146 30.87595459 2.52800293 30.06440918 2.22045898 29.22827148 C-0.53126458 21.3308008 -1.43505865 13.71278269 -0.5625 5.375 C-0.46066406 4.35148437 -0.35882813 3.32796875 -0.25390625 2.2734375 C-0.17011719 1.52320313 -0.08632812 0.77296875 0 0 Z " fill="#CED694" transform="translate(102,271)"/>
<path d="M0 0 C0.66 0 1.32 0 2 0 C1.5752721 2.5483674 1.18660667 4.65971725 -0.0625 6.9375 C-1.20690147 9.07758805 -1.20690147 9.07758805 -1 12 C-1 15.10399248 -1.21347694 16.49886771 -3 19 C-3.639375 19.268125 -4.27875 19.53625 -4.9375 19.8125 C-8.13211189 21.65182199 -8.97420331 24.62566879 -10 28 C-10.4054103 30.32189536 -10.76072994 32.65515344 -11 35 C-11.66 34.67 -12.32 34.34 -13 34 C-13 33.34 -13 32.68 -13 32 C-19.39796445 37.0585775 -25.42559879 42.21554114 -31.02734375 48.15234375 C-34.05240086 50.98571408 -36.98537512 52.13972324 -41 53 C-40.21791649 50.20866129 -39.38293093 47.55518097 -38 45 C-35.3125 44 -35.3125 44 -33 44 C-33 43.34 -33 42.68 -33 42 C-31.02 41.505 -31.02 41.505 -29 41 C-29.66 39.35 -30.32 37.7 -31 36 C-28.525 35.505 -28.525 35.505 -26 35 C-25.67 35.99 -25.34 36.98 -25 38 C-14.27462017 28.18741845 -4.6376539 13.91296171 0 0 Z " fill="#D9E39F" transform="translate(369,289)"/>
<path d="M0 0 C0.66 0 1.32 0 2 0 C2 1.32 2 2.64 2 4 C2.66 3.67 3.32 3.34 4 3 C4.66 4.65 5.32 6.3 6 8 C5.34 8.66 4.68 9.32 4 10 C3.01 9.34 2.02 8.68 1 8 C1 7.34 1 6.68 1 6 C0.01 6 -0.98 6 -2 6 C-3.97787592 10.23419067 -5.81098442 14.27937811 -7 18.8125 C-8.12436502 22.39641349 -9.39285345 23.39285345 -12 26 C-13.58048643 28.57224166 -15.00573573 31.1981454 -16.4375 33.85546875 C-18 36 -18 36 -19.8359375 36.78515625 C-22.44216222 37.04389697 -25.00509305 37.20762954 -27.625 37.25 C-29.06746094 37.28867187 -29.06746094 37.28867187 -30.5390625 37.328125 C-31.35117188 37.21984375 -32.16328125 37.1115625 -33 37 C-33.66 36.01 -34.32 35.02 -35 34 C-34.01 34.33 -33.02 34.66 -32 35 C-26.85056722 35.4017339 -26.85056722 35.4017339 -22 34 C-21.34 34.33 -20.68 34.66 -20 35 C-20.28875 34.319375 -20.5775 33.63875 -20.875 32.9375 C-21.05035937 28.81655486 -19.20756533 27.32386731 -16.54296875 24.35546875 C-15 23 -15 23 -13 23 C-12.67 21.35 -12.34 19.7 -12 18 C-11.34 18 -10.68 18 -10 18 C-10.07734375 16.91138672 -10.07734375 16.91138672 -10.15625 15.80078125 C-9.976797 12.58408614 -9.13960849 10.93384423 -7.5 8.1875 C-6.80390625 7.00220703 -6.80390625 7.00220703 -6.09375 5.79296875 C-5.7328125 5.20128906 -5.371875 4.60960937 -5 4 C-4.34 4 -3.68 4 -3 4 C-2.67 3.34 -2.34 2.68 -2 2 C-1.34 2 -0.68 2 0 2 C0 1.34 0 0.68 0 0 Z " fill="#BEBFB7" transform="translate(262,272)"/>
<path d="M0 0 C1 2 1 2 0.44140625 4.1640625 C0.15136719 4.97617188 -0.13867188 5.78828125 -0.4375 6.625 C-0.86869141 7.85089844 -0.86869141 7.85089844 -1.30859375 9.1015625 C-1.53675781 9.72804687 -1.76492187 10.35453125 -2 11 C-2.66 11 -3.32 11 -4 11 C-4 11.66 -4 12.32 -4 13 C-4.99 13.495 -4.99 13.495 -6 14 C-6.28875 14.763125 -6.5775 15.52625 -6.875 16.3125 C-8.13956729 19.33341075 -9.66824162 20.73890096 -12 23 C-14.71935297 27.18718554 -16.86601479 31.65052734 -19.0625 36.125 C-19.7598101 37.54520956 -20.4589615 38.96451688 -21.16015625 40.3828125 C-21.61853882 41.31697998 -21.61853882 41.31697998 -22.08618164 42.27001953 C-23 44 -23 44 -25 47 C-25 46.34 -25 45.68 -25 45 C-25.66 45 -26.32 45 -27 45 C-22.87640734 29.60525408 -13.09019804 16.88355325 -3.27758789 4.6472168 C-2.11584069 3.14935546 -1.05148176 1.57722264 0 0 Z " fill="#D4DD98" transform="translate(135,150)"/>
<path d="M0 0 C4.1424367 1.38081223 5.32203099 3.59825558 8 7 C7.01 8.485 7.01 8.485 6 10 C5.34 10 4.68 10 4 10 C4 8.68 4 7.36 4 6 C2.05000871 6.19471111 2.05000871 6.19471111 0 7 C-3.48831947 12.50787285 -3.07145424 18.13961738 -2.9609375 24.40039062 C-2.82305279 37.37304357 -2.82305279 37.37304357 -6.125 41.9375 C-9.49494339 44.35506808 -11.90123495 44.75889617 -16 45 C-15.38511719 44.31164062 -15.38511719 44.31164062 -14.7578125 43.609375 C-14.21898437 42.99578125 -13.68015625 42.3821875 -13.125 41.75 C-12.59132812 41.14671875 -12.05765625 40.5434375 -11.5078125 39.921875 C-10.0202513 38.02581254 -8.99677564 36.18709995 -8 34 C-7.34 34 -6.68 34 -6 34 C-6 28.72 -6 23.44 -6 18 C-6.66 17.67 -7.32 17.34 -8 17 C-7.34 17 -6.68 17 -6 17 C-5.9071875 15.576875 -5.9071875 15.576875 -5.8125 14.125 C-5.10828237 8.92872751 -2.47950619 4.54728625 0 0 Z " fill="#A2A684" transform="translate(260,277)"/>
<path d="M0 0 C0.33 0.66 0.66 1.32 1 2 C1.7734375 1.95359375 2.546875 1.9071875 3.34375 1.859375 C10.17637692 1.6226008 15.34925729 1.928742 21 6 C21.49242187 6.49886719 21.98484375 6.99773437 22.4921875 7.51171875 C24.08745649 9.08632364 25.57975784 9.97222869 27.5625 11 C31 13 31 13 33 16 C33.1953125 18.69921875 33.1953125 18.69921875 33.125 21.6875 C33.10695313 22.68136719 33.08890625 23.67523438 33.0703125 24.69921875 C33.04710937 25.45847656 33.02390625 26.21773438 33 27 C32.67 27 32.34 27 32 27 C31.34 23.04 30.68 19.08 30 15 C27.69 15.33 25.38 15.66 23 16 C22.34 15.01 21.68 14.02 21 13 C20.01 12.67 19.02 12.34 18 12 C15.8125 10.0625 15.8125 10.0625 14 8 C14 7.34 14 6.68 14 6 C12.68 6.33 11.36 6.66 10 7 C9.34 5.68 8.68 4.36 8 3 C6.00016466 3.79117904 6.00016466 3.79117904 4 5 C3.67 5.99 3.34 6.98 3 8 C1.68 7.34 0.36 6.68 -1 6 C-0.67 4.02 -0.34 2.04 0 0 Z " fill="#B3B3AF" transform="translate(273,252)"/>
<path d="M0 0 C0.33 0 0.66 0 1 0 C1.66 4.62 2.32 9.24 3 14 C3.33 14 3.66 14 4 14 C4.02688151 15.64574566 4.04634123 17.29161413 4.0625 18.9375 C4.07410156 19.85402344 4.08570313 20.77054688 4.09765625 21.71484375 C4 24 4 24 3 25 C2.69202125 27.2869709 2.43060965 29.5802267 2.1875 31.875 C1.42858435 38.36753081 0.40351216 44.77687938 -0.875 51.1875 C-1.02428955 51.98849121 -1.1735791 52.78948242 -1.32739258 53.61474609 C-2.31267402 58.36929603 -3.54611297 61.39437316 -7 65 C-5.81452349 58.04055555 -4.38353785 51.18856188 -2.68359375 44.3359375 C-0.75147999 34.90722234 -0.90793903 25.56776549 -1 16 C-1.02652702 13.18750441 -1.04649238 10.37507274 -1.0625 7.5625 C-1.07410156 6.32628906 -1.08570313 5.09007812 -1.09765625 3.81640625 C-1 1 -1 1 0 0 Z " fill="#EBF3B1" transform="translate(378,223)"/>
<path d="M0 0 C0.66 0.66 1.32 1.32 2 2 C1.61082938 8.96337429 0.04138531 15.59136492 -1.5 22.375 C-3.8217453 32.95302598 -4.85973081 43.18652098 -5 54 C-5.99 54.495 -5.99 54.495 -7 55 C-7.5417698 35.5004547 -6.81418728 18.39830566 0 0 Z " fill="#E9F0B5" transform="translate(107,196)"/>
<path d="M0 0 C1.15957207 3.47871621 0.77456651 4.34219645 -0.4375 7.6875 C-0.86869141 8.89986328 -0.86869141 8.89986328 -1.30859375 10.13671875 C-1.65083984 11.05904297 -1.65083984 11.05904297 -2 12 C-2.66 12 -3.32 12 -4 12 C-4.103125 12.53625 -4.20625 13.0725 -4.3125 13.625 C-5.18092697 16.62502044 -6.55620296 19.2379535 -8 22 C-8.66 22 -9.32 22 -10 22 C-10.0928125 22.8971875 -10.0928125 22.8971875 -10.1875 23.8125 C-11 26 -11 26 -13.25 27.8125 C-16.39863447 29.17213761 -17.78270009 29.0111514 -21 28 C-21 26.35 -21 24.7 -21 23 C-21.721875 23.185625 -22.44375 23.37125 -23.1875 23.5625 C-26.12826973 24.01995307 -28.14103058 23.73516357 -31 23 C-30.505 21.515 -30.505 21.515 -30 20 C-29.34 20 -28.68 20 -28 20 C-28 19.34 -28 18.68 -28 18 C-27.34 18 -26.68 18 -26 18 C-26 18.66 -26 19.32 -26 20 C-24.02 20 -22.04 20 -20 20 C-19.67 21.32 -19.34 22.64 -19 24 C-18.34 24 -17.68 24 -17 24 C-17 24.66 -17 25.32 -17 26 C-13.76794721 25.28740777 -13.76794721 25.28740777 -12.39453125 22.27734375 C-11.87246094 21.17519531 -11.35039062 20.07304687 -10.8125 18.9375 C-10.28269531 17.83277344 -9.75289062 16.72804687 -9.20703125 15.58984375 C-8.80871094 14.73519531 -8.41039062 13.88054687 -8 13 C-7.34 13 -6.68 13 -6 13 C-5.87625 12.030625 -5.7525 11.06125 -5.625 10.0625 C-5.315625 8.5465625 -5.315625 8.5465625 -5 7 C-4.34 6.67 -3.68 6.34 -3 6 C-2.29788106 4.34795544 -1.63028587 2.68076231 -1 1 C-0.67 0.67 -0.34 0.34 0 0 Z " fill="#D8DAC9" transform="translate(259,211)"/>
<path d="M0 0 C1.63001953 0.15275391 1.63001953 0.15275391 3.29296875 0.30859375 C4.12441406 0.39238281 4.95585937 0.47617188 5.8125 0.5625 C5.8125 0.8925 5.8125 1.2225 5.8125 1.5625 C5.14605469 1.57667969 4.47960937 1.59085938 3.79296875 1.60546875 C-4.53924247 2.03664611 -12.11551316 3.80706338 -18.3984375 9.6015625 C-22.23632231 13.90939239 -24.32986131 16.58673915 -24.3125 22.4375 C-24.31507813 23.30117187 -24.31765625 24.16484375 -24.3203125 25.0546875 C-24.19773921 27.36915971 -23.83716445 29.34539116 -23.1875 31.5625 C-24.1775 31.2325 -25.1675 30.9025 -26.1875 30.5625 C-27.25674537 27.35476388 -27.35434956 24.93265182 -27.375 21.5625 C-27.38917969 20.510625 -27.40335938 19.45875 -27.41796875 18.375 C-27.1875 15.5625 -27.1875 15.5625 -25.1875 12.5625 C-25.3525 11.7375 -25.5175 10.9125 -25.6875 10.0625 C-25.8525 9.2375 -26.0175 8.4125 -26.1875 7.5625 C-25.5275 6.5725 -24.8675 5.5825 -24.1875 4.5625 C-23.5275 4.8925 -22.8675 5.2225 -22.1875 5.5625 C-22.5175 6.2225 -22.8475 6.8825 -23.1875 7.5625 C-22.65125 7.27375 -22.115 6.985 -21.5625 6.6875 C-18.83469516 5.39538192 -16.06137282 4.47691408 -13.1875 3.5625 C-13.1875 2.9025 -13.1875 2.2425 -13.1875 1.5625 C-12.589375 1.418125 -11.99125 1.27375 -11.375 1.125 C-7.14362473 0.03693207 -4.41314808 -0.42707885 0 0 Z " fill="#A5A97A" transform="translate(207.1875,210.4375)"/>
<path d="M0 0 C5.2584002 0.67415387 10.02638346 2.24265549 15 4 C15 4.66 15 5.32 15 6 C15.7115625 6.09539062 16.423125 6.19078125 17.15625 6.2890625 C32.78240742 10.19560185 51.11890406 29.90772595 59.875 42.75 C60.24625 43.4925 60.6175 44.235 61 45 C60.505 45.99 60.505 45.99 60 47 C59.62230469 46.48953125 59.24460937 45.9790625 58.85546875 45.453125 C55.17815773 40.59597414 51.29386733 35.99490793 47.1875 31.5 C46.70756592 30.97180664 46.22763184 30.44361328 45.7331543 29.89941406 C43.16791402 27.06941506 43.16791402 27.06941506 40 25 C40 24.34 40 23.68 40 23 C39.43796875 22.74476563 38.8759375 22.48953125 38.296875 22.2265625 C35.70617559 20.84309377 33.56648607 19.18070809 31.25 17.375 C21.75074677 10.37152912 10.80857311 5.63224562 0 1 C0 0.67 0 0.34 0 0 Z " fill="#E8F1AF" transform="translate(297,132)"/>
<path d="M0 0 C4.54748603 -0.36871508 4.54748603 -0.36871508 6.6875 1.375 C7.120625 1.91125 7.55375 2.4475 8 3 C8.66 3.66 9.32 4.32 10 5 C10.309375 5.845625 10.61875 6.69125 10.9375 7.5625 C11.288125 8.366875 11.63875 9.17125 12 10 C12.99 10.33 13.98 10.66 15 11 C15.33 11.66 15.66 12.32 16 13 C16.99 13.33 17.98 13.66 19 14 C19.33 13.01 19.66 12.02 20 11 C22.0625 9.8125 22.0625 9.8125 24 9 C23.46972205 13.5073626 21.80388725 16.4539073 19 20 C18.01 20 17.02 20 16 20 C16 19.34 16 18.68 16 18 C15.34 18 14.68 18 14 18 C13.54625 17.21625 13.0925 16.4325 12.625 15.625 C11.27212887 12.90537606 11.27212887 12.90537606 9 12.0625 C6.0080347 10.47301843 5.41784729 8.01292548 4 5 C2.70758949 3.30140333 1.38509525 1.62390477 0 0 Z " fill="#AFB18C" transform="translate(226,217)"/>
<path d="M0 0 C2.78724321 0.03850602 5.53253495 0.14574778 8.3125 0.3125 C9.08529297 0.34794922 9.85808594 0.38339844 10.65429688 0.41992188 C17.68895668 0.82518603 17.68895668 0.82518603 21 3 C20.34 3.33 19.68 3.66 19 4 C18.01 3.67 17.02 3.34 16 3 C4.68799786 1.94972279 -3.42698275 4.66624928 -12.40625 11.4375 C-15.06939008 14.04842165 -15.93496384 16.06868216 -16.1953125 19.796875 C-16.17210937 20.77140625 -16.14890625 21.7459375 -16.125 22.75 C-16.10695312 23.73484375 -16.08890625 24.7196875 -16.0703125 25.734375 C-16.04710937 26.48203125 -16.02390625 27.2296875 -16 28 C-16.66 27.67 -17.32 27.34 -18 27 C-18.02715383 25.25008666 -18.04646551 23.50005055 -18.0625 21.75 C-18.07410156 20.77546875 -18.08570313 19.8009375 -18.09765625 18.796875 C-18.01195577 16.34241322 -17.70706066 14.33831086 -17 12 C-16.34 12 -15.68 12 -15 12 C-15.33 10.35 -15.66 8.7 -16 7 C-14.88625 6.7525 -13.7725 6.505 -12.625 6.25 C-8.95384802 5.38994661 -8.95384802 5.38994661 -7.5625 2.875 C-7.376875 2.25625 -7.19125 1.6375 -7 1 C-5.5459375 1.0309375 -5.5459375 1.0309375 -4.0625 1.0625 C-1.12534105 1.35618499 -1.12534105 1.35618499 0 0 Z " fill="#A4AA79" transform="translate(272,187)"/>
<path d="M0 0 C0.66 0 1.32 0 2 0 C2.66 2.31 3.32 4.62 4 7 C4.66 7 5.32 7 6 7 C8.04240497 11.0318369 10.0687683 15.07099457 12.07177734 19.12255859 C12.91566613 20.82942466 13.76421642 22.53398405 14.61328125 24.23828125 C15.07089844 25.19089844 15.52851562 26.14351563 16 27.125 C16.4125 27.97320312 16.825 28.82140625 17.25 29.6953125 C18.0890388 32.27360882 17.925198 33.49040042 17 36 C0 9.81558442 0 9.81558442 0 0 Z " fill="#CDD796" transform="translate(107,305)"/>
<path d="M0 0 C0.66 0 1.32 0 2 0 C2.98389758 4.56611624 2.89215275 8.21483799 2.125 12.8125 C1.94195312 13.95332031 1.75890625 15.09414062 1.5703125 16.26953125 C1 19 1 19 0 20 C0 20.9075 0 21.815 0 22.75 C0 25.72252135 -0.35141234 28.1173882 -1 31 C-1.2475 32.5159375 -1.2475 32.5159375 -1.5 34.0625 C-1.90135815 36.42047912 -2.37885442 38.69288786 -3 41 C-3.66 41 -4.32 41 -5 41 C-4.67 43.64 -4.34 46.28 -4 49 C-4.99 49.495 -4.99 49.495 -6 50 C-6.81214891 39.74887601 -5.12435521 30.57697428 -2.86645508 20.6171875 C-1.31288305 13.75787201 0 7.06669044 0 0 Z " fill="#CED792" transform="translate(108,195)"/>
<path d="M0 0 C3.87010323 1.5053522 8.07893386 3.15786772 10 7 C9.01 7.33 8.02 7.66 7 8 C6.34 7.01 5.68 6.02 5 5 C1.94570927 3.78715124 1.94570927 3.78715124 -1 3 C-1 3.66 -1 4.32 -1 5 C-1.928125 5.144375 -2.85625 5.28875 -3.8125 5.4375 C-7.00725111 5.92100111 -7.00725111 5.92100111 -10 7 C-10.99 7 -11.98 7 -13 7 C-14.33981486 7.3062434 -15.67511887 7.63451555 -17 8 C-17 9.65 -17 11.3 -17 13 C-17.33 13 -17.66 13 -18 13 C-18.34751969 10.08083462 -18.53280018 7.86804524 -16.95703125 5.30078125 C-11.98080283 -0.72614643 -7.51520767 -0.90854022 0 0 Z " fill="#A6A6A4" transform="translate(218,220)"/>
<path d="M0 0 C3.74440221 0.73974775 6.94113549 2.30061121 10.375 3.9375 C14.52956959 5.91748809 18.60559367 7.62591826 23 9 C23 9.66 23 10.32 23 11 C24.03125 11.226875 25.0625 11.45375 26.125 11.6875 C32.57323328 13.28209921 38.7740746 15.70899936 45 18 C41.00723213 19.57496976 38.18094914 18.36156021 34.22265625 17.05078125 C33.57429306 16.83689255 32.92592987 16.62300385 32.25791931 16.40263367 C30.88872595 15.94782127 29.52128045 15.4877175 28.15551758 15.02270508 C26.07796223 14.31774666 23.99394454 13.63537725 21.90820312 12.95507812 C20.57507016 12.5091576 19.24237239 12.06193345 17.91015625 11.61328125 C16.70496338 11.20891846 15.49977051 10.80455566 14.25805664 10.38793945 C10.94210724 8.97533755 8.70831161 7.34910213 6 5 C4.906875 4.278125 3.81375 3.55625 2.6875 2.8125 C1.800625 2.214375 0.91375 1.61625 0 1 C0 0.67 0 0.34 0 0 Z " fill="#E7EBAE" transform="translate(177,386)"/>
<path d="M0 0 C0.66 0 1.32 0 2 0 C2.83887056 2.43572059 3.67126529 4.87333217 4.5 7.3125 C4.73847656 8.00279297 4.97695312 8.69308594 5.22265625 9.40429688 C6.23208263 12.38931489 7 14.82658914 7 18 C7.66 18 8.32 18 9 18 C9.36351563 18.96099609 9.36351563 18.96099609 9.734375 19.94140625 C11.35163298 24.11517588 12.96605702 28.14176774 15.25 32 C17 35 17 35 17 37 C16.34 37 15.68 37 15 37 C11.13434607 31.7792663 8.37740364 26.33605675 7 20 C6.34 20 5.68 20 5 20 C4.16247839 17.04283593 3.33069969 14.084087 2.5 11.125 C2.26152344 10.28324219 2.02304688 9.44148438 1.77734375 8.57421875 C1.55175781 7.76855469 1.32617188 6.96289062 1.09375 6.1328125 C0.88427734 5.38918457 0.67480469 4.64555664 0.45898438 3.87939453 C0 2 0 2 0 0 Z " fill="#EEF7BB" transform="translate(106,292)"/>
<path d="M0 0 C0.33 0 0.66 0 1 0 C1.02478935 4.60815035 1.0429023 9.21626153 1.05493164 13.82446289 C1.05994856 15.39087602 1.06676362 16.9572845 1.07543945 18.52368164 C1.08762094 20.78012239 1.09325481 23.03650102 1.09765625 25.29296875 C1.10281754 25.98899704 1.10797882 26.68502533 1.11329651 27.40214539 C1.11371546 31.06470152 0.87148095 34.43868858 0 38 C-2.59729528 34.10405707 -2.29984385 30.82915365 -2.25 26.3125 C-2.24613281 25.47485107 -2.24226563 24.63720215 -2.23828125 23.77416992 C-2.1292964 15.75545811 -1.22296689 7.91652674 0 0 Z " fill="#CDD697" transform="translate(99,228)"/>
<path d="M0 0 C1 3 1 3 0.0625 5.1875 C-0.288125 5.785625 -0.63875 6.38375 -1 7 C-1.66 7 -2.32 7 -3 7 C-2.9278125 8.00160156 -2.855625 9.00320312 -2.78125 10.03515625 C-3.03683293 14.66759689 -4.31128729 17.44457817 -6.5 21.4375 C-6.83386719 22.07365234 -7.16773437 22.70980469 -7.51171875 23.36523438 C-8.32840122 24.91693107 -9.1624334 26.45947571 -10 28 C-10.33 27.34 -10.66 26.68 -11 26 C-11.66 26 -12.32 26 -13 26 C-10.76918992 17.67164237 -6.21803644 6.21803644 0 0 Z " fill="#D8E2A0" transform="translate(121,169)"/>
<path d="M0 0 C0.47050781 0.42152344 0.94101563 0.84304688 1.42578125 1.27734375 C2.35970703 2.09912109 2.35970703 2.09912109 3.3125 2.9375 C4.23482422 3.75541016 4.23482422 3.75541016 5.17578125 4.58984375 C7.05241958 6.20081559 7.05241958 6.20081559 10 7 C10 7.66 10 8.32 10 9 C10.66 9 11.32 9 12 9 C13.16478806 10.13052958 14.3227061 11.26898004 15.4453125 12.44140625 C17.22285038 14.22341031 19.09390719 15.8564445 21 17.5 C24.14029165 20.21801759 27.10944241 23.01911249 30 26 C26.40784535 24.71260192 23.71171701 23.20929691 20.75 20.8125 C16.77536145 17.61942903 12.73687641 14.53164955 8.65234375 11.48046875 C7.83443359 10.74763672 7.83443359 10.74763672 7 10 C7 9.34 7 8.68 7 8 C4.69 7.67 2.38 7.34 0 7 C0.99 6.67 1.98 6.34 3 6 C2.2575 5.071875 2.2575 5.071875 1.5 4.125 C0 2 0 2 0 0 Z " fill="#F0F6BC" transform="translate(138,353)"/>
<path d="M0 0 C0.33 0.66 0.66 1.32 1 2 C1.66 2 2.32 2 3 2 C3.33 3.98 3.66 5.96 4 8 C4.66 8 5.32 8 6 8 C10 13.41176471 10 13.41176471 10 16 C7.21176345 17.0326802 6.1322726 17.04509293 3.25 16.0625 C2.5075 15.711875 1.765 15.36125 1 15 C0.87625 13.783125 0.7525 12.56625 0.625 11.3125 C0.21108694 7.93520941 -0.54573451 5.10243305 -2 2 C-1.34 2 -0.68 2 0 2 C0 1.34 0 0.68 0 0 Z " fill="#D5DF9A" transform="translate(123,327)"/>
<path d="M0 0 C0.99 0 1.98 0 3 0 C3.433125 0.886875 3.86625 1.77375 4.3125 2.6875 C5.8502661 5.8828993 5.8502661 5.8828993 7.5 8.1875 C9.81897248 12.53557339 10.82332722 17.23489248 12 22 C12.33 22 12.66 22 13 22 C13 23.98 13 25.96 13 28 C13.66 28 14.32 28 15 28 C15.33 28.99 15.66 29.98 16 31 C15.34 31.66 14.68 32.32 14 33 C12.23537317 29.91190305 12 28.76687864 12 25 C11.34 25 10.68 25 10 25 C9.16112944 22.56427941 8.32873471 20.12666783 7.5 17.6875 C7.26152344 16.99720703 7.02304688 16.30691406 6.77734375 15.59570312 C5.76791737 12.61068511 5 10.17341086 5 7 C4.01 7 3.02 7 2 7 C1.34 4.69 0.68 2.38 0 0 Z " fill="#D2DB9C" transform="translate(103,285)"/>
<path d="M0 0 C1.30363166 3.91089498 0.21021213 5.34870647 -1.40625 8.96484375 C-2.1213554 11.4159616 -1.96138005 12.64885293 -1 15 C0.65948148 16.01187895 2.32580562 17.0126546 4 18 C4 18.99 4 19.98 4 21 C3.01 21 2.02 21 1 21 C1 20.01 1 19.02 1 18 C-0.94999129 18.19471111 -0.94999129 18.19471111 -3 19 C-4.28436734 20.9837767 -4.28436734 20.9837767 -5 23 C-5.33 22.34 -5.66 21.68 -6 21 C-6.66 21 -7.32 21 -8 21 C-7.505 20.1028125 -7.505 20.1028125 -7 19.1875 C-5.79212012 16.94613529 -5.79212012 16.94613529 -6 14 C-5.4247921 11.96443417 -4.79317736 9.9444707 -4.125 7.9375 C-3.77695312 6.87402344 -3.42890625 5.81054688 -3.0703125 4.71484375 C-2 2 -2 2 0 0 Z " fill="#BFBFBA" transform="translate(275,244)"/>
<path d="M0 0 C4.62 0.99 9.24 1.98 14 3 C14.33 2.34 14.66 1.68 15 1 C16.9195604 1.76359871 18.83554712 2.53618478 20.75 3.3125 C22.35101563 3.95638672 22.35101563 3.95638672 23.984375 4.61328125 C26.6652915 5.84608612 28.7383192 7.12807487 31 9 C29.02 9 27.04 9 25 9 C25 8.34 25 7.68 25 7 C22.03 7.66 19.06 8.32 16 9 C15.67 7.68 15.34 6.36 15 5 C10.38 4.34 5.76 3.68 1 3 C0.67 2.01 0.34 1.02 0 0 Z " fill="#B5BC7E" transform="translate(193,251)"/>
<path d="M0 0 C0.66 0 1.32 0 2 0 C2 0.66 2 1.32 2 2 C2.639375 2.268125 3.27875 2.53625 3.9375 2.8125 C6 4 6 4 7 7 C7.99 7.33 8.98 7.66 10 8 C11.98834962 12.39529916 12.19118486 16.22037853 12 21 C11.67 21 11.34 21 11 21 C10.67 22.65 10.34 24.3 10 26 C9.67 26 9.34 26 9 26 C9 22.04 9 18.08 9 14 C8.34 14 7.68 14 7 14 C6.74605469 13.46890625 6.49210937 12.9378125 6.23046875 12.390625 C4.40249254 8.63882365 2.55135689 5.31676395 0 2 C0 1.34 0 0.68 0 0 Z " fill="#C9D09D" transform="translate(299,192)"/>
<path d="M0 0 C0.66 0.33 1.32 0.66 2 1 C-0.46176169 3.98002731 -2.22839297 4.43502243 -6 5 C-9.43106632 5.24852794 -12.85746487 5.43833613 -16.29296875 5.60546875 C-19.40639251 5.77423378 -22.0255583 6.00851943 -25 7 C-25.66 6.01 -26.32 5.02 -27 4 C-27.99 3.34 -28.98 2.68 -30 2 C-26.71303767 1.20046862 -25.28976808 0.90341064 -22 2 C-19.38302629 2.12271523 -16.80432239 2.18512754 -14.1875 2.1875 C-13.13852539 2.20586914 -13.13852539 2.20586914 -12.06835938 2.22460938 C-7.62389606 2.23708214 -4.16110531 1.47411354 0 0 Z " fill="#B4BB8C" transform="translate(318,299)"/>
<path d="M0 0 C6.75 -0.125 6.75 -0.125 9 1 C9.42017543 5.41184204 8.86251121 7.50137398 6.22265625 11.01171875 C3.39706201 15.60669469 1.82982292 20.94548913 0 26 C-0.66 26 -1.32 26 -2 26 C-1.33583525 22.28609913 -0.36693188 18.81213021 0.875 15.25 C1.20242187 14.28578125 1.52984375 13.3215625 1.8671875 12.328125 C2.42792969 11.17570312 2.42792969 11.17570312 3 10 C3.99 9.67 4.98 9.34 6 9 C6.16687448 6.58354218 6.16687448 6.58354218 6 4 C4.04783565 2.04783565 2.46800047 1.15173355 0 0 Z " fill="#DCDECD" transform="translate(224,259)"/>
<path d="M0 0 C1.258125 -0.020625 2.51625 -0.04125 3.8125 -0.0625 C4.52019531 -0.07410156 5.22789062 -0.08570313 5.95703125 -0.09765625 C8 0 8 0 11 1 C11 1.66 11 2.32 11 3 C4.25 7 4.25 7 2 7 C2 7.66 2 8.32 2 9 C0.02 9.33 -1.96 9.66 -4 10 C-2.625 7.5 -2.625 7.5 -1 5 C-0.34 5 0.32 5 1 5 C1 4.34 1 3.68 1 3 C0.34 2.67 -0.32 2.34 -1 2 C-0.67 1.34 -0.34 0.68 0 0 Z " fill="#D4DE99" transform="translate(317,341)"/>
<path d="M0 0 C0.66 0 1.32 0 2 0 C1.5752721 2.5483674 1.18660667 4.65971725 -0.0625 6.9375 C-1.20690147 9.07758805 -1.20690147 9.07758805 -1 12 C-1 15.1814573 -1.30754201 16.37195964 -3 19 C-4.9453125 20.265625 -4.9453125 20.265625 -7.125 21.25 C-7.84945313 21.58515625 -8.57390625 21.9203125 -9.3203125 22.265625 C-10.15175781 22.62914062 -10.15175781 22.62914062 -11 23 C-9.36398217 18.56305113 -7.19721972 14.5144508 -4.9375 10.375 C-2.15558526 5.33187494 -2.15558526 5.33187494 0 0 Z " fill="#E3ECAD" transform="translate(369,289)"/>
<path d="M0 0 C0.33 0 0.66 0 1 0 C1.66 4.62 2.32 9.24 3 14 C3.33 14 3.66 14 4 14 C4.10824843 15.6026782 4.18570645 17.20745748 4.25 18.8125 C4.29640625 19.70582031 4.3428125 20.59914062 4.390625 21.51953125 C4 24 4 24 1.984375 25.82421875 C1.32953125 26.21222656 0.6746875 26.60023438 0 27 C-1.48253275 9.10371179 -1.48253275 9.10371179 -1 1 C-0.67 0.67 -0.34 0.34 0 0 Z " fill="#D9E39D" transform="translate(378,223)"/>
<path d="M0 0 C0.33 0.66 0.66 1.32 1 2 C1.79664063 1.96519531 2.59328125 1.93039063 3.4140625 1.89453125 C13.93848858 1.62565905 13.93848858 1.62565905 19 5 C15.5647952 7.29013653 14.014669 7.17842973 10 7 C9.34 5.68 8.68 4.36 8 3 C6.00016466 3.79117904 6.00016466 3.79117904 4 5 C3.67 5.99 3.34 6.98 3 8 C1.68 7.34 0.36 6.68 -1 6 C-0.67 4.02 -0.34 2.04 0 0 Z " fill="#ADADA2" transform="translate(273,252)"/>
<path d="M0 0 C0.66 0 1.32 0 2 0 C2 0.66 2 1.32 2 2 C3.98 2 5.96 2 8 2 C8.33 3.32 8.66 4.64 9 6 C9.66 6 10.32 6 11 6 C11 6.66 11 7.32 11 8 C11.99 8.33 12.98 8.66 14 9 C13.34 9.66 12.68 10.32 12 11 C9.375 10.625 9.375 10.625 7 10 C7 8.35 7 6.7 7 5 C6.278125 5.185625 5.55625 5.37125 4.8125 5.5625 C1.87173027 6.01995307 -0.14103058 5.73516357 -3 5 C-2.67 4.01 -2.34 3.02 -2 2 C-1.34 2 -0.68 2 0 2 C0 1.34 0 0.68 0 0 Z " fill="#C9CAC3" transform="translate(231,229)"/>
<path d="M0 0 C0.66 0.33 1.32 0.66 2 1 C1.88512252 2.58409994 1.75765492 4.16728963 1.625 5.75 C1.55539063 6.63171875 1.48578125 7.5134375 1.4140625 8.421875 C1 11 1 11 -0.0625 13.03125 C-1.25189892 15.52898774 -1.0238199 17.03802467 -0.625 19.75 C-0.51414063 20.54921875 -0.40328125 21.3484375 -0.2890625 22.171875 C-0.19367188 22.77515625 -0.09828125 23.3784375 0 24 C-0.99 23.67 -1.98 23.34 -3 23 C-3.37952295 16.80112515 -2.8352113 12.5522888 0 7 C-1.65 7.33 -3.3 7.66 -5 8 C-4.125 3.25 -4.125 3.25 -3 1 C-2.01 0.67 -1.02 0.34 0 0 Z " fill="#A5A889" transform="translate(221,276)"/>
<path d="M0 0 C0.99 0 1.98 0 3 0 C2.67 1.98 2.34 3.96 2 6 C1.34 6 0.68 6 0 6 C-0.18175781 6.68707031 -0.36351562 7.37414062 -0.55078125 8.08203125 C-0.80214844 8.98308594 -1.05351562 9.88414062 -1.3125 10.8125 C-1.55613281 11.70582031 -1.79976563 12.59914062 -2.05078125 13.51953125 C-3.0200819 16.05247738 -3.95009604 17.2716496 -6 19 C-6 15 -6 15 -5 12 C-4.87625 10.824375 -4.7525 9.64875 -4.625 8.4375 C-4.41875 7.303125 -4.2125 6.16875 -4 5 C-3.01 4.34 -2.02 3.68 -1 3 C-0.67 2.01 -0.34 1.02 0 0 Z " fill="#C3C4BB" transform="translate(285,221)"/>
<path d="M0 0 C5.13373162 1.39038565 10.03739743 3.08460953 15 5 C14.01 5.495 14.01 5.495 13 6 C12.34 5.67 11.68 5.34 11 5 C11.66 6.65 12.32 8.3 13 10 C10.93651361 8.96825681 8.8894393 7.93821608 6.875 6.8125 C6.25625 6.544375 5.6375 6.27625 5 6 C4.01 6.495 4.01 6.495 3 7 C2.34 6.67 1.68 6.34 1 6 C1 5.01 1 4.02 1 3 C0.34 2.67 -0.32 2.34 -1 2 C-0.67 1.34 -0.34 0.68 0 0 Z " fill="#A0A580" transform="translate(271,285)"/>
<path d="M0 0 C0.33 0 0.66 0 1 0 C1 13.22222222 1 13.22222222 0 18 C-0.12375 18.969375 -0.2475 19.93875 -0.375 20.9375 C-1.06894679 24.33783927 -2.33931184 26.96743901 -4 30 C-5.26199941 26.36360048 -4.75413065 23.65469885 -4.00390625 19.921875 C-3.77509766 18.76171875 -3.54628906 17.6015625 -3.31054688 16.40625 C-3.06369141 15.1996875 -2.81683594 13.993125 -2.5625 12.75 C-2.31951172 11.52796875 -2.07652344 10.3059375 -1.82617188 9.046875 C-1.2250808 6.02963354 -0.6160822 3.01420989 0 0 Z " fill="#D2D99A" transform="translate(380,252)"/>
<path d="M0 0 C1.32 0.33 2.64 0.66 4 1 C4 1.66 4 2.32 4 3 C4.56203125 3.24492187 5.1240625 3.48984375 5.703125 3.7421875 C8.41865854 5.22926539 10.46391438 7.04062782 12.75 9.125 C13.94882813 10.21167969 13.94882813 10.21167969 15.171875 11.3203125 C15.77515625 11.87460937 16.3784375 12.42890625 17 13 C16.67 13.66 16.34 14.32 16 15 C11.91633665 13.33481689 8.93962215 10.45307123 5.75 7.5 C5.19570312 7.00113281 4.64140625 6.50226563 4.0703125 5.98828125 C2.6714992 4.7031646 1.33055746 3.35566232 0 2 C0 1.34 0 0.68 0 0 Z " fill="#C5CE8F" transform="translate(141,360)"/>
<path d="M0 0 C2.00390625 0.73828125 2.00390625 0.73828125 3.75 1.5625 C7.14456306 3.06394135 9.33776854 3.26796816 13 3 C13 4.65 13 6.3 13 8 C12.360625 7.71125 11.72125 7.4225 11.0625 7.125 C7.11589708 5.6752275 3.1125393 4.84221938 -1 4 C-1 3.34 -1 2.68 -1 2 C-4.63 2 -8.26 2 -12 2 C-12 1.34 -12 0.68 -12 0 C-8.30998484 -1.84500758 -3.95667851 -0.69613742 0 0 Z " fill="#A6AB7F" transform="translate(307,254)"/>
<path d="M0 0 C2.54937821 4.17979451 2.00119182 7.7024326 1.6796875 12.44140625 C1.73953056 15.16002274 1.73953056 15.16002274 4.0078125 16.83984375 C4.99394531 17.41412109 4.99394531 17.41412109 6 18 C5.34 18 4.68 18 4 18 C4 19.65 4 21.3 4 23 C3.34 23 2.68 23 2 23 C-0.95579422 19.15459781 -1.36165885 16.27899876 -1.25 11.5 C-1.23453125 10.3965625 -1.2190625 9.293125 -1.203125 8.15625 C-1.02187461 5.33989772 -0.63502936 2.74496564 0 0 Z " fill="#C4C4C1" transform="translate(201,228)"/>
<path d="M0 0 C1.16018481 3.48055442 1.87300154 6.31704471 2 10 C-0.3125 12.9375 -0.3125 12.9375 -3 15 C-3.66 15 -4.32 15 -5 15 C-5.33 15.99 -5.66 16.98 -6 18 C-6.33 17.01 -6.66 16.02 -7 15 C-6.2884375 13.6078125 -6.2884375 13.6078125 -5.5625 12.1875 C-3.89224424 8.78017825 -3.73328995 6.73394076 -4 3 C-3.34 3 -2.68 3 -2 3 C-1.34 2.01 -0.68 1.02 0 0 Z " fill="#D1DB9B" transform="translate(374,283)"/>
<path d="M0 0 C0.66 0 1.32 0 2 0 C3.32 2.31 4.64 4.62 6 7 C6.99 7 7.98 7 9 7 C11.29612756 16.41002278 11.29612756 16.41002278 11 21 C8.0718145 17.39750049 5.97587472 13.4592011 3.8125 9.375 C3.44447266 8.694375 3.07644531 8.01375 2.69726562 7.3125 C0 2.24824617 0 2.24824617 0 0 Z " fill="#D7E299" transform="translate(358,178)"/>
<path d="M0 0 C0.66 0.66 1.32 1.32 2 2 C1.9322925 5.16871097 0.87675513 6.12123763 -1.3984375 8.359375 C-2.38070313 9.14828125 -3.36296875 9.9371875 -4.375 10.75 C-5.35210937 11.54921875 -6.32921875 12.3484375 -7.3359375 13.171875 C-10 15 -10 15 -13 15 C-11.75 12.0625 -11.75 12.0625 -10 9 C-8.0625 8.25 -8.0625 8.25 -6 8 C-4.6520257 7.36345658 -3.31403276 6.70394612 -2 6 C-2.66 4.35 -3.32 2.7 -4 1 C-2.125 0.375 -2.125 0.375 0 0 Z " fill="#CCD693" transform="translate(342,324)"/>
<path d="M0 0 C2.375 0.25 2.375 0.25 5 1 C6.375 2.875 6.375 2.875 7 5 C5.9545437 8.13636891 5.23811043 8.76188957 3 11 C1.96642853 12.64605826 0.95939668 14.30963442 0 16 C-1 13 -1 13 -0.22265625 11.17578125 C0.8515625 9.45052083 1.92578125 7.72526042 3 6 C2.01 5.67 1.02 5.34 0 5 C0 3.35 0 1.7 0 0 Z " fill="#B1B686" transform="translate(224,260)"/>
<path d="M0 0 C0.33 0.66 0.66 1.32 1 2 C-1.04497388 7.172581 -4.29931105 10.9519972 -8 15 C-8.61875 14.814375 -9.2375 14.62875 -9.875 14.4375 C-12.04160178 13.76313824 -12.04160178 13.76313824 -14 15 C-14 14.01 -14 13.02 -14 12 C-12.989375 11.505 -11.97875 11.01 -10.9375 10.5 C-6.31783241 7.89790152 -3.2719991 4.09745784 0 0 Z " fill="#AAB181" transform="translate(305,220)"/>
<path d="M0 0 C0.33 0.66 0.66 1.32 1 2 C0.01 2.495 0.01 2.495 -1 3 C-1.2165625 4.175625 -1.2165625 4.175625 -1.4375 5.375 C-2.07715472 8.36005538 -2.5061852 9.28012773 -5 11 C-8.1875 11.6875 -8.1875 11.6875 -11 12 C-11 12.66 -11 13.32 -11 14 C-11.66 13.67 -12.32 13.34 -13 13 C-8.96476648 8.18876004 -4.95532767 3.86757281 0 0 Z " fill="#D6DEAA" transform="translate(149,136)"/>
<path d="M0 0 C1.24153433 3.724603 0.47452539 4.47752269 -1 8 C-1.37593066 9.9924325 -1.71979545 11.9918674 -2 14 C-2.66 13.67 -3.32 13.34 -4 13 C-4 12.34 -4 11.68 -4 11 C-4.45375 11.495 -4.9075 11.99 -5.375 12.5 C-7 14 -7 14 -9 14 C-8.56494141 13.13761719 -8.56494141 13.13761719 -8.12109375 12.2578125 C-7.40884564 10.82338947 -6.71166606 9.38130773 -6.03515625 7.9296875 C-5.71417969 7.25164062 -5.39320313 6.57359375 -5.0625 5.875 C-4.74410156 5.19179688 -4.42570312 4.50859375 -4.09765625 3.8046875 C-3 2 -3 2 0 0 Z " fill="#D1DB96" transform="translate(360,310)"/>
<path d="M0 0 C0.66 0 1.32 0 2 0 C4.24281523 5.20333134 5.55577239 8.34264585 4 14 C4.66 14 5.32 14 6 14 C5.53816182 18.15654359 5.11990898 20.21466571 2 23 C2.03480469 21.89205078 2.03480469 21.89205078 2.0703125 20.76171875 C2.19786295 13.59156136 1.54331505 7.00003611 0 0 Z " fill="#CFD49F" transform="translate(328,269)"/>
<path d="M0 0 C1.72880982 -0.05449838 3.45812712 -0.09301688 5.1875 -0.125 C6.15042969 -0.14820313 7.11335938 -0.17140625 8.10546875 -0.1953125 C11.12812778 0.0086456 13.26769985 0.73125368 16 2 C16 2.66 16 3.32 16 4 C17.32 4.33 18.64 4.66 20 5 C20.33 6.65 20.66 8.3 21 10 C14.125 6.25 14.125 6.25 13 4 C9.99221479 2.99740493 7.46179353 2.69685358 4.3125 2.4375 C3.31863281 2.35371094 2.32476562 2.26992187 1.30078125 2.18359375 C0.16189453 2.09271484 0.16189453 2.09271484 -1 2 C-0.67 1.34 -0.34 0.68 0 0 Z " fill="#BFC690" transform="translate(279,186)"/>
<path d="M0 0 C-2.81865285 4.22797927 -2.81865285 4.22797927 -5 6 C-7.85646479 6.53855713 -10.06501905 6.29847264 -13 6 C-13.33 5.34 -13.66 4.68 -14 4 C-13.34 4 -12.68 4 -12 4 C-12 3.01 -12 2.02 -12 1 C-7.95858806 0.36605303 -4.0934693 -0.12404452 0 0 Z " fill="#BFBEBD" transform="translate(300,286)"/>
<path d="M0 0 C3.78611227 0.54087318 5.55400767 2.11722332 8 5 C8 5.66 8 6.32 8 7 C6.88625 7.309375 6.88625 7.309375 5.75 7.625 C2.20768823 9.39615589 0.97553159 11.63427951 -1 15 C-1.99 14.67 -2.98 14.34 -4 14 C-4 13.34 -4 12.68 -4 12 C-3.01 11.67 -2.02 11.34 -1 11 C0.80967349 8.35509259 1.98472371 6.04582887 3 3 C2.34 3 1.68 3 1 3 C0.67 2.01 0.34 1.02 0 0 Z " fill="#B1AFAC" transform="translate(280,204)"/>
<path d="M0 0 C0.99 0.33 1.98 0.66 3 1 C5.3406065 0.72230092 7.67624308 0.39460023 10 0 C9.278125 0.53625 8.55625 1.0725 7.8125 1.625 C3.5580975 5.21760656 0.27453036 9.51906371 -3 14 C-3 12.02 -3 10.04 -3 8 C-2.01 7.67 -1.02 7.34 0 7 C-0.33 6.01 -0.66 5.02 -1 4 C-0.5625 1.8125 -0.5625 1.8125 0 0 Z " fill="#A4AB76" transform="translate(206,284)"/>
<path d="M0 0 C0.33 0.66 0.66 1.32 1 2 C1.66 2 2.32 2 3 2 C1.70689829 4.88461151 0.58442376 7.12852073 -2 9 C-5.6875 9.6875 -5.6875 9.6875 -9 10 C-8.07347299 8.82460004 -7.13336613 7.65989423 -6.1875 6.5 C-5.40439453 5.52546875 -5.40439453 5.52546875 -4.60546875 4.53125 C-3 3 -3 3 0 3 C0 2.01 0 1.02 0 0 Z " fill="#BEC78D" transform="translate(253,312)"/>
<path d="M0 0 C5.2584002 0.67415387 10.02638346 2.24265549 15 4 C15 4.66 15 5.32 15 6 C15.721875 6.0825 16.44375 6.165 17.1875 6.25 C20.55313254 7.14750201 22.41612816 8.7114278 25 11 C21.29902033 11 20.32965522 10.90988652 17.28515625 9.3203125 C16.25551758 8.79244141 16.25551758 8.79244141 15.20507812 8.25390625 C14.49802734 7.88136719 13.79097656 7.50882813 13.0625 7.125 C6.6559189 3.79309082 6.6559189 3.79309082 0 1 C0 0.67 0 0.34 0 0 Z " fill="#DBE59F" transform="translate(297,132)"/>
<path d="M0 0 C3.4713748 0.35910774 6.20339079 1.98022668 9 4 C9 4.99 9 5.98 9 7 C8.34 7 7.68 7 7 7 C7 6.34 7 5.68 7 5 C2.35413108 5.48484276 2.35413108 5.48484276 -2 7 C-2.125 4.625 -2.125 4.625 -2 2 C-1.34 1.34 -0.68 0.68 0 0 Z " fill="#C8D28D" transform="translate(314,141)"/>
<path d="M0 0 C1.55404524 3.10809048 0.45960213 6.03322399 -0.1875 9.3125 C-0.30158203 9.97701172 -0.41566406 10.64152344 -0.53320312 11.32617188 C-1.41543778 15.85378221 -2.86154014 18.64061336 -6 22 C-2.91609977 2.91609977 -2.91609977 2.91609977 0 0 Z " fill="#EFF7BB" transform="translate(377,266)"/>
<path d="M0 0 C1.37432457 3.81756824 0.67975039 7.07255329 0 11 C-1.32 11.33 -2.64 11.66 -4 12 C-5 9 -5 9 -3.6875 6 C-2 3 -2 3 0 0 Z " fill="#F0EFEE" transform="translate(255,224)"/>
<path d="M0 0 C2 2 2 2 2.046875 4.0234375 C1.94890625 4.79945313 1.8509375 5.57546875 1.75 6.375 C1.61851563 7.53128906 1.61851563 7.53128906 1.484375 8.7109375 C0.98335114 11.0786793 0.17347456 12.89351698 -1 15 C-1 14.34 -1 13.68 -1 13 C-1.66 13 -2.32 13 -3 13 C-2.45144652 8.428721 -1.58255197 4.32564205 0 0 Z " fill="#DDE6AA" transform="translate(107,196)"/>
<path d="M0 0 C0.33 0.66 0.66 1.32 1 2 C-6.33741969 4.3479743 -13.34393782 4.19355213 -21 4 C-21.33 3.01 -21.66 2.02 -22 1 C-20.7625 1.2475 -20.7625 1.2475 -19.5 1.5 C-15.56447064 2.06221848 -11.97223723 2.13465211 -8 2 C-7.67 1.67 -7.34 1.34 -7 1 C-4.67182036 0.63239269 -2.3381615 0.29758419 0 0 Z " fill="#BEC494" transform="translate(239,325)"/>
<path d="M0 0 C0 3 0 3 -1 6 C-0.01 6 0.98 6 2 6 C1.67 7.65 1.34 9.3 1 11 C-0.32 11.33 -1.64 11.66 -3 12 C-3 11.34 -3 10.68 -3 10 C-3.66 10.66 -4.32 11.32 -5 12 C-4.58525633 6.71201818 -3.64775386 3.88309282 0 0 Z " fill="#E7E8E5" transform="translate(230,272)"/>
<path d="M0 0 C2 2 2 2 2.265625 4.390625 C2.20872446 14.80342352 2.20872446 14.80342352 0 19 C-2.125 19.875 -2.125 19.875 -4 20 C-3.67 18.68 -3.34 17.36 -3 16 C-2.34 16 -1.68 16 -1 16 C-0.67 10.72 -0.34 5.44 0 0 Z " fill="#A8AE87" transform="translate(255,295)"/>
<path d="M0 0 C4.62 0.99 9.24 1.98 14 3 C14.33 2.34 14.66 1.68 15 1 C18.465 2.485 18.465 2.485 22 4 C22 4.33 22 4.66 22 5 C19.43719792 4.85845864 16.87484515 4.71191438 14.3125 4.5625 C13.59126953 4.52318359 12.87003906 4.48386719 12.12695312 4.44335938 C8.33292718 4.21814322 4.71348508 3.87160695 1 3 C0.67 2.01 0.34 1.02 0 0 Z " fill="#A7AB85" transform="translate(193,251)"/>
<path d="M0 0 C0.66 0.33 1.32 0.66 2 1 C-2.22295082 7.93770492 -2.22295082 7.93770492 -6 9 C-7.32 8.67 -8.64 8.34 -10 8 C-6.7 5.36 -3.4 2.72 0 0 Z " fill="#D8E0AC" transform="translate(160,127)"/>
<path d="M0 0 C0.75410156 0.00451172 1.50820313 0.00902344 2.28515625 0.01367188 C4.14847127 0.02546501 6.01174555 0.04340058 7.875 0.0625 C7.875 0.3925 7.875 0.7225 7.875 1.0625 C6.44607422 1.10117188 6.44607422 1.10117188 4.98828125 1.140625 C3.73402344 1.19734375 2.47976563 1.2540625 1.1875 1.3125 C-0.05386719 1.35890625 -1.29523438 1.4053125 -2.57421875 1.453125 C-6.56677046 2.13831539 -8.16469465 3.39555824 -11.125 6.0625 C-11.785 6.0625 -12.445 6.0625 -13.125 6.0625 C-13.455 6.7225 -13.785 7.3825 -14.125 8.0625 C-13.5610709 4.79171124 -12.66819569 3.19878438 -10.125 1.0625 C-6.93675432 -0.53162284 -3.49603338 -0.03924735 0 0 Z " fill="#ABABA9" transform="translate(272.125,202.9375)"/>
<path d="M0 0 C0.33 0.66 0.66 1.32 1 2 C3.31 2 5.62 2 8 2 C8 2.66 8 3.32 8 4 C8.66 4.33 9.32 4.66 10 5 C9.01 5 8.02 5 7 5 C6.67 5.99 6.34 6.98 6 8 C5.01 8 4.02 8 3 8 C0.89229241 5.11165997 0 3.61537605 0 0 Z " fill="#CCD791" transform="translate(126,341)"/>
<path d="M0 0 C0.33 0 0.66 0 1 0 C1.06058594 0.89203125 1.12117187 1.7840625 1.18359375 2.703125 C1.26738281 3.87359375 1.35117188 5.0440625 1.4375 6.25 C1.55931641 7.99023438 1.55931641 7.99023438 1.68359375 9.765625 C1.93247787 12.30977376 2.28114942 14.55953248 3 17 C2.01 16.67 1.02 16.34 0 16 C-1.08489672 12.74530985 -1.13323992 10.29456791 -1.125 6.875 C-1.12757813 5.79992187 -1.13015625 4.72484375 -1.1328125 3.6171875 C-1 1 -1 1 0 0 Z " fill="#ACB185" transform="translate(181,225)"/>
<path d="M0 0 C0.66 0.33 1.32 0.66 2 1 C-0.44793277 3.96328704 -2.2305887 4.50293477 -6 5 C-8.44043988 4.91677268 -10.87923369 4.76716726 -13.3125 4.5625 C-14.56675781 4.46066406 -15.82101562 4.35882813 -17.11328125 4.25390625 C-18.06589844 4.17011719 -19.01851563 4.08632813 -20 4 C-20 3.67 -20 3.34 -20 3 C-19.05898438 2.95101563 -18.11796875 2.90203125 -17.1484375 2.8515625 C-15.28058594 2.73941406 -15.28058594 2.73941406 -13.375 2.625 C-12.14523437 2.55539062 -10.91546875 2.48578125 -9.6484375 2.4140625 C-6.16372592 2.01858131 -3.30425959 1.11433974 0 0 Z " fill="#A0A57C" transform="translate(318,299)"/>
<path d="M0 0 C0.33 0.66 0.66 1.32 1 2 C0.0625 4.625 0.0625 4.625 -1 7 C-1.66 7 -2.32 7 -3 7 C-3.33 8.98 -3.66 10.96 -4 13 C-4.66 13 -5.32 13 -6 13 C-6.33 13.66 -6.66 14.32 -7 15 C-7 10.54648201 -5.44839588 7.67259383 -3 4 C-2.34 4 -1.68 4 -1 4 C-0.67 2.68 -0.34 1.36 0 0 Z " fill="#BABF99" transform="translate(257,211)"/>
<path d="M0 0 C0.66 0 1.32 0 2 0 C2.86555948 2.09950586 3.71711277 4.2047907 4.5625 6.3125 C5.03816406 7.48425781 5.51382813 8.65601563 6.00390625 9.86328125 C7 13 7 13 6 16 C0 4.26213592 0 4.26213592 0 0 Z " fill="#C5CF8E" transform="translate(107,305)"/>
<path d="M0 0 C0.86625 0.4640625 0.86625 0.4640625 1.75 0.9375 C3.84294184 1.92583364 5.74535275 2.5168613 8 3 C8 3.66 8 4.32 8 5 C8.639375 5.268125 9.27875 5.53625 9.9375 5.8125 C12 7 12 7 13 10 C10.01517153 8.60484422 7.44642111 6.97667625 4.8125 5 C4.11769531 4.484375 3.42289063 3.96875 2.70703125 3.4375 C1 2 1 2 0 0 Z " fill="#D4D99D" transform="translate(157,369)"/>
<path d="M0 0 C0.33 0.66 0.66 1.32 1 2 C1.66 2 2.32 2 3 2 C3.66 4.31 4.32 6.62 5 9 C4.01 9 3.02 9 2 9 C2 8.34 2 7.68 2 7 C1.01 6.67 0.02 6.34 -1 6 C-1.6875 3.9375 -1.6875 3.9375 -2 2 C-1.34 2 -0.68 2 0 2 C0 1.34 0 0.68 0 0 Z " fill="#E0E8A4" transform="translate(123,327)"/>
<path d="M0 0 C0.66 0 1.32 0 2 0 C2.8125 2.1875 2.8125 2.1875 3 5 C0.5625 7.8125 0.5625 7.8125 -2 10 C-2.66 9.67 -3.32 9.34 -4 9 C-4 8.34 -4 7.68 -4 7 C-3.01 7 -2.02 7 -1 7 C-1.020625 6.030625 -1.04125 5.06125 -1.0625 4.0625 C-1 1 -1 1 0 0 Z " fill="#CBCDC3" transform="translate(276,236)"/>
<path d="M0 0 C0.99 0 1.98 0 3 0 C2.67 1.98 2.34 3.96 2 6 C1.34 6 0.68 6 0 6 C-0.66 7.32 -1.32 8.64 -2 10 C-2.33 8.02 -2.66 6.04 -3 4 C-2.34 3.67 -1.68 3.34 -1 3 C-0.67 2.01 -0.34 1.02 0 0 Z " fill="#ACADAB" transform="translate(285,221)"/>
<path d="M0 0 C1 3 1 3 0.0625 5.1875 C-0.4634375 6.0846875 -0.4634375 6.0846875 -1 7 C-1.66 7 -2.32 7 -3 7 C-3.0825 7.5775 -3.165 8.155 -3.25 8.75 C-4.20531013 11.6159304 -5.78469173 12.9990764 -8 15 C-6.62712658 11.30123909 -4.93644547 8.0485524 -2.875 4.6875 C-2.33617188 3.80449219 -1.79734375 2.92148438 -1.2421875 2.01171875 C-0.83226563 1.34785156 -0.42234375 0.68398437 0 0 Z " fill="#EAF1C2" transform="translate(121,169)"/>
<path d="M0 0 C0.47050781 0.42152344 0.94101563 0.84304688 1.42578125 1.27734375 C2.35970703 2.09912109 2.35970703 2.09912109 3.3125 2.9375 C4.23482422 3.75541016 4.23482422 3.75541016 5.17578125 4.58984375 C7.05241958 6.20081559 7.05241958 6.20081559 10 7 C9 9 9 9 7 10 C7 9.34 7 8.68 7 8 C4.69 7.67 2.38 7.34 0 7 C0.99 6.67 1.98 6.34 3 6 C2.2575 5.071875 2.2575 5.071875 1.5 4.125 C0 2 0 2 0 0 Z " fill="#E3ECAE" transform="translate(138,353)"/>
<path d="M0 0 C0.33 0 0.66 0 1 0 C1 3.96 1 7.92 1 12 C-2 9 -2 9 -2.3125 6 C-2 3 -2 3 0 0 Z " fill="#AAB182" transform="translate(202,298)"/>
<path d="M0 0 C0.33 0 0.66 0 1 0 C1.71033431 5.52967941 2.30267176 10.49983036 1 16 C0.34 15.34 -0.32 14.68 -1 14 C-0.9765625 10.7421875 -0.9765625 10.7421875 -0.625 6.875 C-0.51414062 5.59367187 -0.40328125 4.31234375 -0.2890625 2.9921875 C-0.19367188 2.00476563 -0.09828125 1.01734375 0 0 Z " fill="#C8CF8F" transform="translate(375,254)"/>
<path d="M0 0 C1.25955231 3.77865693 0.48087189 5.03411786 -0.9375 8.6875 C-1.31777344 9.68136719 -1.69804687 10.67523438 -2.08984375 11.69921875 C-2.39019531 12.45847656 -2.69054687 13.21773438 -3 14 C-3.33 14 -3.66 14 -4 14 C-3.91231752 12.4156683 -3.80412671 10.83246433 -3.6875 9.25 C-3.60048828 7.92742187 -3.60048828 7.92742187 -3.51171875 6.578125 C-2.9358819 3.67696226 -1.92403852 2.20774393 0 0 Z " fill="#B8B9AF" transform="translate(275,244)"/>
<path d="M0 0 C0.66 0 1.32 0 2 0 C2 0.99 2 1.98 2 3 C1.34 3 0.68 3 0 3 C-0.12375 3.94875 -0.2475 4.8975 -0.375 5.875 C-1 9 -1 9 -3 11 C-3 10.34 -3 9.68 -3 9 C-3.66 8.67 -4.32 8.34 -5 8 C-4.34 7.67 -3.68 7.34 -3 7 C-2.65846063 5.33499557 -2.32550502 3.66821323 -2 2 C-1.34 1.34 -0.68 0.68 0 0 Z " fill="#B4BE7C" transform="translate(255,196)"/>
<path d="M0 0 C3.29680965 0.65784963 5.84117922 1.89420573 8.75 3.5625 C9.94882813 4.24505859 9.94882813 4.24505859 11.171875 4.94140625 C11.77515625 5.29074219 12.3784375 5.64007813 13 6 C11.296875 6.6796875 11.296875 6.6796875 9 7 C6.640625 5.8203125 6.640625 5.8203125 4.25 4.125 C3.45078125 3.57070313 2.6515625 3.01640625 1.828125 2.4453125 C1.22484375 1.96835937 0.6215625 1.49140625 0 1 C0 0.67 0 0.34 0 0 Z " fill="#EFF4B4" transform="translate(177,386)"/>
<path d="M0 0 C0.66 0.99 1.32 1.98 2 3 C-0.97 5.475 -0.97 5.475 -4 8 C-4 5.69 -4 3.38 -4 1 C-2.68 0.67 -1.36 0.34 0 0 Z " fill="#CFD996" transform="translate(348,317)"/>
<path d="M0 0 C0.66 0.33 1.32 0.66 2 1 C2 1.66 2 2.32 2 3 C4.475 3.99 4.475 3.99 7 5 C6.34 6.32 5.68 7.64 5 9 C3.02 6.69 1.04 4.38 -1 2 C-0.67 1.34 -0.34 0.68 0 0 Z " fill="#C9D291" transform="translate(340,153)"/>
<path d="M0 0 C2.7972908 2.06756277 3.02692273 3.14440371 3.6875 6.6875 C3.790625 7.780625 3.89375 8.87375 4 10 C0.91910327 7.22719294 -0.68775452 4.93673644 -2 1 C-1.34 0.67 -0.68 0.34 0 0 Z " fill="#C7D08C" transform="translate(121,331)"/>
<path d="M0 0 C0.99 0.33 1.98 0.66 3 1 C7.31666072 1.13703685 10.83415997 1.0800326 15 0 C15.99 0.33 16.98 0.66 18 1 C14.31411656 2.68516711 11.36060922 3.29593202 7.3125 3.3125 C6.35988281 3.32925781 5.40726563 3.34601563 4.42578125 3.36328125 C3.22501953 3.18345703 3.22501953 3.18345703 2 3 C1.34 2.01 0.68 1.02 0 0 Z " fill="#A8A8A6" transform="translate(227,306)"/>
<path d="M0 0 C2.29612756 9.41002278 2.29612756 9.41002278 2 14 C-0.01136276 11.44008376 -1.62845496 8.95409701 -3 6 C-2.34 6 -1.68 6 -1 6 C-1 4.68 -1 3.36 -1 2 C-1.66 1.67 -2.32 1.34 -3 1 C-1 0 -1 0 0 0 Z " fill="#CED990" transform="translate(367,185)"/>
<path d="M0 0 C6.75 -0.125 6.75 -0.125 9 1 C9 1.66 9 2.32 9 3 C9.66 3 10.32 3 11 3 C11 3.66 11 4.32 11 5 C7.27566618 3.7874262 3.62197194 2.49140021 0 1 C0 0.67 0 0.34 0 0 Z " fill="#DBDFC8" transform="translate(213,254)"/>
<path d="M0 0 C1.5 1.375 1.5 1.375 3 3 C3 3.66 3 4.32 3 5 C4.32 5.33 5.64 5.66 7 6 C7 6.66 7 7.32 7 8 C4.69 8 2.38 8 0 8 C0.66 7.67 1.32 7.34 2 7 C2 6.01 2 5.02 2 4 C1.34 4 0.68 4 0 4 C0 2.68 0 1.36 0 0 Z " fill="#6C6D63" transform="translate(200,246)"/>
<path d="M0 0 C0.99 0.33 1.98 0.66 3 1 C3 2.98 3 4.96 3 7 C2.34 7 1.68 7 1 7 C0.67 7.99 0.34 8.98 0 10 C-0.74926071 6.33694766 -1.2380014 3.57644848 0 0 Z " fill="#EEF3BE" transform="translate(103,208)"/>
<path d="M0 0 C2.5 1.5625 2.5 1.5625 5 4 C5.3125 7.75 5.3125 7.75 5 11 C3 10 3 10 2.1484375 7.71484375 C1.89320313 6.79832031 1.63796875 5.88179687 1.375 4.9375 C1.11460937 4.01839844 0.85421875 3.09929687 0.5859375 2.15234375 C0.39257812 1.44207031 0.19921875 0.73179687 0 0 Z " fill="#D1DC93" transform="translate(370,202)"/>
<path d="M0 0 C0.33 0.66 0.66 1.32 1 2 C0.01 2.495 0.01 2.495 -1 3 C-1 4.32 -1 5.64 -1 7 C-3.31 7.33 -5.62 7.66 -8 8 C-7.04578192 6.85073734 -6.08647955 5.70569459 -5.125 4.5625 C-4.59132812 3.92441406 -4.05765625 3.28632813 -3.5078125 2.62890625 C-2 1 -2 1 0 0 Z " fill="#E6ECC6" transform="translate(149,136)"/>
<path d="M0 0 C2.31 1.98 4.62 3.96 7 6 C6.67 6.66 6.34 7.32 6 8 C4.125 7.375 4.125 7.375 2 6 C0.75 2.875 0.75 2.875 0 0 Z " fill="#CED496" transform="translate(151,367)"/>
<path d="M0 0 C1.32 0.99 2.64 1.98 4 3 C-0.95 4.485 -0.95 4.485 -6 6 C-6 5.34 -6 4.68 -6 4 C-4.68 3.67 -3.36 3.34 -2 3 C-2 2.34 -2 1.68 -2 1 C-1.34 0.67 -0.68 0.34 0 0 Z " fill="#C8D38C" transform="translate(330,341)"/>
<path d="M0 0 C4.29 0.33 8.58 0.66 13 1 C8 3.5 8 3.5 5 4 C4.34 3.67 3.68 3.34 3 3 C3 2.34 3 1.68 3 1 C2.01 0.67 1.02 0.34 0 0 Z " fill="#BBC189" transform="translate(195,254)"/>
<path d="M0 0 C1.98 0 3.96 0 6 0 C6 1.65 6 3.3 6 5 C3.5625 4.1875 3.5625 4.1875 1 3 C0.67 2.01 0.34 1.02 0 0 Z " fill="#B0B689" transform="translate(314,257)"/>
<path d="M0 0 C0.33 0.99 0.66 1.98 1 3 C1.66 3.33 2.32 3.66 3 4 C3.33 4.66 3.66 5.32 4 6 C4.66 5.67 5.32 5.34 6 5 C5.34 6.32 4.68 7.64 4 9 C-0.875 4.25 -0.875 4.25 -2 2 C-1.34 2 -0.68 2 0 2 C0 1.34 0 0.68 0 0 Z " fill="#CCD694" transform="translate(348,160)"/>
<path d="M0 0 C0 0.99 0 1.98 0 3 C-0.99 3.66 -1.98 4.32 -3 5 C-3.66 4.01 -4.32 3.02 -5 2 C-5.99 1.34 -6.98 0.68 -8 0 C-5.13822943 -1.43088528 -3.06624227 -0.59991697 0 0 Z " fill="#AFB883" transform="translate(296,301)"/>
<path d="M0 0 C0.33 0.66 0.66 1.32 1 2 C0.0625 4.625 0.0625 4.625 -1 7 C-1.66 7 -2.32 7 -3 7 C-3 7.99 -3 8.98 -3 10 C-3.66 9.67 -4.32 9.34 -5 9 C-3.375 2.25 -3.375 2.25 0 0 Z " fill="#C9D292" transform="translate(374,273)"/>
<path d="M0 0 C5.75 0.75 5.75 0.75 8 3 C4.67465243 4.10844919 2.37817425 3.84454356 -1 3 C-0.67 2.01 -0.34 1.02 0 0 Z " fill="#D3D4CF" transform="translate(229,231)"/>
<path d="M0 0 C0.66 0.33 1.32 0.66 2 1 C2 4.10551666 1.4606285 5.35261084 0 8 C-0.66 7.67 -1.32 7.34 -2 7 C-1.125 1.125 -1.125 1.125 0 0 Z " fill="#B0BA71" transform="translate(183,215)"/>
<path d="M0 0 C1.32 0 2.64 0 4 0 C3.34 1.32 2.68 2.64 2 4 C1.67 3.34 1.34 2.68 1 2 C0.34 1.67 -0.32 1.34 -1 1 C-0.67 0.67 -0.34 0.34 0 0 Z M-1 4 C-0.34 4 0.32 4 1 4 C1 4.66 1 5.32 1 6 C-0.32 6.33 -1.64 6.66 -3 7 C-2.34 6.01 -1.68 5.02 -1 4 Z " fill="#CDD793" transform="translate(317,342)"/>
<path d="M0 0 C0 2 0 4 0 6 C-1.98 6.33 -3.96 6.66 -6 7 C-4.02 4.69 -2.04 2.38 0 0 Z " fill="#9FA679" transform="translate(250,315)"/>
<path d="M0 0 C0.66 0 1.32 0 2 0 C1.38461538 5.53846154 1.38461538 5.53846154 -0.5625 7.875 C-1.036875 8.24625 -1.51125 8.6175 -2 9 C-1.125 1.125 -1.125 1.125 0 0 Z " fill="#C8D193" transform="translate(332,283)"/>
<path d="M0 0 C1.875 0.25 1.875 0.25 4 1 C5.25 3.0625 5.25 3.0625 6 5 C5.01 6.485 5.01 6.485 4 8 C4 7.01 4 6.02 4 5 C3.34 5 2.68 5 2 5 C2 3.68 2 2.36 2 1 C1.34 0.67 0.68 0.34 0 0 Z " fill="#B8BC9E" transform="translate(225,260)"/>
<path d="M0 0 C0.66 0.99 1.32 1.98 2 3 C2.99 3.66 3.98 4.32 5 5 C3.02 5.66 1.04 6.32 -1 7 C-0.67 4.69 -0.34 2.38 0 0 Z " fill="#6B6E60" transform="translate(285,227)"/>
<path d="M0 0 C0.66 0.33 1.32 0.66 2 1 C0.35 3.64 -1.3 6.28 -3 9 C-3.99 8.67 -4.98 8.34 -6 8 C-6 7.34 -6 6.68 -6 6 C-5.01 5.67 -4.02 5.34 -3 5 C-1.30117552 2.50240018 -1.30117552 2.50240018 0 0 Z " fill="#C2C0BC" transform="translate(282,210)"/>
<path d="M0 0 C2.475 0.99 2.475 0.99 5 2 C4.34 3.98 3.68 5.96 3 8 C1.45428722 5.68143083 0.20381448 3.49361571 -1 1 C-0.67 0.67 -0.34 0.34 0 0 Z " fill="#C0C699" transform="translate(304,198)"/>
<path d="M0 0 C0.66 0.33 1.32 0.66 2 1 C-1.96 4.465 -1.96 4.465 -6 8 C-6 5 -6 5 -4.6875 3.61328125 C-3.125 2.40885417 -1.5625 1.20442708 0 0 Z " fill="#696D54" transform="translate(264,194)"/>
<path d="M0 0 C1.65 0 3.3 0 5 0 C5.66 1.98 6.32 3.96 7 6 C3.535 4.02 3.535 4.02 0 2 C0 1.34 0 0.68 0 0 Z " fill="#B2B78E" transform="translate(293,190)"/>
<path d="M0 0 C0.33 0.66 0.66 1.32 1 2 C0.06553465 4.03144641 -0.93224776 6.03533587 -2 8 C-2.99 8 -3.98 8 -5 8 C-3.62845496 5.04590299 -2.01136276 2.55991624 0 0 Z " fill="#DFE8AC" transform="translate(130,157)"/>
<path d="M0 0 C2.03833424 1.2739589 4.03852126 2.61061923 6 4 C6 4.66 6 5.32 6 6 C3.13275314 5.42655063 2.1385485 5.1385485 0 3 C0 2.01 0 1.02 0 0 Z " fill="#C9D293" transform="translate(135,353)"/>
<path d="M0 0 C-3.8503105 2.56687367 -5.58569763 1.83288724 -10 1 C-6.1496895 -1.56687367 -4.41430237 -0.83288724 0 0 Z " fill="#C1C78F" transform="translate(314,304)"/>
<path d="M0 0 C0.99 0 1.98 0 3 0 C3.33 2.31 3.66 4.62 4 7 C3.34 7 2.68 7 2 7 C1.34 4.69 0.68 2.38 0 0 Z " fill="#E0E8A2" transform="translate(103,285)"/>
<path d="M0 0 C4.455 1.98 4.455 1.98 9 4 C9 4.33 9 4.66 9 5 C7.02 5 5.04 5 3 5 C3 4.34 3 3.68 3 3 C2.01 2.67 1.02 2.34 0 2 C0 1.34 0 0.68 0 0 Z " fill="#B3B98F" transform="translate(215,255)"/>
<path d="M0 0 C1.32 1.65 2.64 3.3 4 5 C3.01 6.485 3.01 6.485 2 8 C0.68 6.02 -0.64 4.04 -2 2 C-1.34 2 -0.68 2 0 2 C0 1.34 0 0.68 0 0 Z " fill="#D3DBA3" transform="translate(132,347)"/>
<path d="M0 0 C0.99 1.485 0.99 1.485 2 3 C2.53625 3.680625 3.0725 4.36125 3.625 5.0625 C5 7 5 7 5 9 C3.0625 8.1875 3.0625 8.1875 1 7 C0 4 0 4 0 0 Z " fill="#ADB485" transform="translate(204,311)"/>
<path d="M0 0 C0.33 0.66 0.66 1.32 1 2 C1.66 2 2.32 2 3 2 C3.33 4.31 3.66 6.62 4 9 C1.47740939 7.02579865 1.0070192 6.03254358 0.3125 2.8125 C0.209375 1.884375 0.10625 0.95625 0 0 Z " fill="#F3FAC5" transform="translate(112,308)"/>
<path d="M0 0 C0.66 0 1.32 0 2 0 C2 1.32 2 2.64 2 4 C1.34 4 0.68 4 0 4 C-0.33 4.99 -0.66 5.98 -1 7 C-2 4 -2 4 -1.0625 1.8125 C-0.5365625 0.9153125 -0.5365625 0.9153125 0 0 Z " fill="#D0D0CB" transform="translate(250,286)"/>
<path d="M0 0 C2.475 0.495 2.475 0.495 5 1 C5 2.65 5 4.3 5 6 C4.34 6 3.68 6 3 6 C2.01 4.02 1.02 2.04 0 0 Z " fill="#B2B58D" transform="translate(322,264)"/>
<path d="M0 0 C0 0.66 0 1.32 0 2 C0.66 2.66 1.32 3.32 2 4 C1.01 4.495 1.01 4.495 0 5 C-2.625 4.0625 -2.625 4.0625 -5 3 C-5 2.34 -5 1.68 -5 1 C-2 0 -2 0 0 0 Z " fill="#BAC084" transform="translate(313,253)"/>
<path d="M0 0 C0.33 0.99 0.66 1.98 1 3 C-1.97 5.475 -1.97 5.475 -5 8 C-3.8141763 4.62496331 -2.72426311 2.35277269 0 0 Z " fill="#606250" transform="translate(188,220)"/>
<path d="M0 0 C3.375 -0.125 3.375 -0.125 7 0 C7.66 0.66 8.32 1.32 9 2 C8.67 2.66 8.34 3.32 8 4 C5.64828869 3.40138258 3.3140622 2.73075648 1 2 C0.67 1.34 0.34 0.68 0 0 Z " fill="#A3A981" transform="translate(218,213)"/>
<path d="M0 0 C0.66 0 1.32 0 2 0 C1.67 2.97 1.34 5.94 1 9 C0.67 8.34 0.34 7.68 0 7 C-0.66 7 -1.32 7 -2 7 C-1.34 4.69 -0.68 2.38 0 0 Z " fill="#E0E8B6" transform="translate(110,188)"/>
</svg>
