<?xml version="1.0" encoding="UTF-8"?>
<svg version="1.1" xmlns="http://www.w3.org/2000/svg" width="1000" height="1000">
<path d="M0 0 C6.6 0 13.2 0 20 0 C20 6.6 20 13.2 20 20 C26.6 20 33.2 20 40 20 C40 33.2 40 46.4 40 60 C46.6 60 53.2 60 60 60 C60 66.6 60 73.2 60 80 C66.6 80 73.2 80 80 80 C80 93.2 80 106.4 80 120 C86.6 120 93.2 120 100 120 C100 133.2 100 146.4 100 160 C106.6 160 113.2 160 120 160 C120 173.2 120 186.4 120 200 C126.6 200 133.2 200 140 200 C140 206.6 140 213.2 140 220 C173 220 206 220 240 220 C240 213.4 240 206.8 240 200 C246.6 200 253.2 200 260 200 C260 186.8 260 173.6 260 160 C266.6 160 273.2 160 280 160 C280 146.8 280 133.6 280 120 C286.6 120 293.2 120 300 120 C300 106.8 300 93.6 300 80 C306.6 80 313.2 80 320 80 C320 66.8 320 53.6 320 40 C326.6 40 333.2 40 340 40 C340 33.4 340 26.8 340 20 C346.6 20 353.2 20 360 20 C360 13.4 360 6.8 360 0 C366.6 0 373.2 0 380 0 C380 6.6 380 13.2 380 20 C386.6 20 393.2 20 400 20 C400 39.8 400 59.6 400 80 C406.6 80 413.2 80 420 80 C420 106.4 420 132.8 420 160 C426.6 160 433.2 160 440 160 C440 186.4 440 212.8 440 240 C446.6 240 453.2 240 460 240 C460 279.6 460 319.2 460 360 C466.6 360 473.2 360 480 360 C480 399.6 480 439.2 480 480 C499.8 480 519.6 480 540 480 C540 486.6 540 493.2 540 500 C520.2 500 500.4 500 480 500 C480 506.6 480 513.2 480 520 C473.4 520 466.8 520 460 520 C460 526.6 460 533.2 460 540 C473.2 540 486.4 540 500 540 C500 546.6 500 553.2 500 560 C513.2 560 526.4 560 540 560 C540 566.6 540 573.2 540 580 C520.2 580 500.4 580 480 580 C480 573.4 480 566.8 480 560 C466.8 560 453.6 560 440 560 C440 566.6 440 573.2 440 580 C446.6 580 453.2 580 460 580 C460 586.6 460 593.2 460 600 C473.2 600 486.4 600 500 600 C500 606.6 500 613.2 500 620 C506.6 620 513.2 620 520 620 C520 626.6 520 633.2 520 640 C506.8 640 493.6 640 480 640 C480 633.4 480 626.8 480 620 C466.8 620 453.6 620 440 620 C440 613.4 440 606.8 440 600 C433.4 600 426.8 600 420 600 C420 606.6 420 613.2 420 620 C413.4 620 406.8 620 400 620 C400 626.6 400 633.2 400 640 C386.8 640 373.6 640 360 640 C360 646.6 360 653.2 360 660 C353.4 660 346.8 660 340 660 C340 666.6 340 673.2 340 680 C326.8 680 313.6 680 300 680 C300 686.6 300 693.2 300 700 C227.4 700 154.8 700 80 700 C80 693.4 80 686.8 80 680 C66.8 680 53.6 680 40 680 C40 673.4 40 666.8 40 660 C26.8 660 13.6 660 0 660 C0 653.4 0 646.8 0 640 C-6.6 640 -13.2 640 -20 640 C-20 633.4 -20 626.8 -20 620 C-26.6 620 -33.2 620 -40 620 C-40 613.4 -40 606.8 -40 600 C-46.6 600 -53.2 600 -60 600 C-60 606.6 -60 613.2 -60 620 C-73.2 620 -86.4 620 -100 620 C-100 626.6 -100 633.2 -100 640 C-113.2 640 -126.4 640 -140 640 C-140 633.4 -140 626.8 -140 620 C-133.4 620 -126.8 620 -120 620 C-120 613.4 -120 606.8 -120 600 C-106.8 600 -93.6 600 -80 600 C-80 593.4 -80 586.8 -80 580 C-73.4 580 -66.8 580 -60 580 C-60 573.4 -60 566.8 -60 560 C-73.2 560 -86.4 560 -100 560 C-100 566.6 -100 573.2 -100 580 C-119.8 580 -139.6 580 -160 580 C-160 573.4 -160 566.8 -160 560 C-146.8 560 -133.6 560 -120 560 C-120 553.4 -120 546.8 -120 540 C-106.8 540 -93.6 540 -80 540 C-80 533.4 -80 526.8 -80 520 C-86.6 520 -93.2 520 -100 520 C-100 513.4 -100 506.8 -100 500 C-119.8 500 -139.6 500 -160 500 C-160 493.4 -160 486.8 -160 480 C-140.2 480 -120.4 480 -100 480 C-100 433.8 -100 387.6 -100 340 C-93.4 340 -86.8 340 -80 340 C-80 300.4 -80 260.8 -80 220 C-73.4 220 -66.8 220 -60 220 C-60 200.2 -60 180.4 -60 160 C-53.4 160 -46.8 160 -40 160 C-40 127 -40 94 -40 60 C-33.4 60 -26.8 60 -20 60 C-20 46.8 -20 33.6 -20 20 C-13.4 20 -6.8 20 0 20 C0 13.4 0 6.8 0 0 Z " fill="#393827" transform="translate(300,160)"/>
<path d="M0 0 C13.2 0 26.4 0 40 0 C40 19.8 40 39.6 40 60 C46.6 60 53.2 60 60 60 C60 86.4 60 112.8 60 140 C66.6 140 73.2 140 80 140 C80 159.8 80 179.6 80 200 C73.4 200 66.8 200 60 200 C60 193.4 60 186.8 60 180 C46.8 180 33.6 180 20 180 C20 173.4 20 166.8 20 160 C13.4 160 6.8 160 0 160 C0 153.4 0 146.8 0 140 C-19.8 140 -39.6 140 -60 140 C-60 126.8 -60 113.6 -60 100 C-53.4 100 -46.8 100 -40 100 C-40 86.8 -40 73.6 -40 60 C-33.4 60 -26.8 60 -20 60 C-20 46.8 -20 33.6 -20 20 C-13.4 20 -6.8 20 0 20 C0 13.4 0 6.8 0 0 Z " fill="#9086A5" transform="translate(680,260)"/>
<path d="M0 0 C13.2 0 26.4 0 40 0 C40 6.6 40 13.2 40 20 C46.6 20 53.2 20 60 20 C60 39.8 60 59.6 60 80 C66.6 80 73.2 80 80 80 C80 86.6 80 93.2 80 100 C86.6 100 93.2 100 100 100 C100 113.2 100 126.4 100 140 C80.2 140 60.4 140 40 140 C40 146.6 40 153.2 40 160 C26.8 160 13.6 160 0 160 C0 166.6 0 173.2 0 180 C-6.6 180 -13.2 180 -20 180 C-20 186.6 -20 193.2 -20 200 C-26.6 200 -33.2 200 -40 200 C-40 173.6 -40 147.2 -40 120 C-33.4 120 -26.8 120 -20 120 C-20 100.2 -20 80.4 -20 60 C-13.4 60 -6.8 60 0 60 C0 40.2 0 20.4 0 0 Z " fill="#9086A5" transform="translate(260,260)"/>
<path d="M0 0 C13.2 0 26.4 0 40 0 C40 26.4 40 52.8 40 80 C53.2 80 66.4 80 80 80 C80 53.6 80 27.2 80 0 C99.8 0 119.6 0 140 0 C140 33 140 66 140 100 C133.4 100 126.8 100 120 100 C120 106.6 120 113.2 120 120 C87 120 54 120 20 120 C20 113.4 20 106.8 20 100 C13.4 100 6.8 100 0 100 C0 67 0 34 0 0 Z " fill="#EEEAEA" transform="translate(540,520)"/>
<path d="M0 0 C19.8 0 39.6 0 60 0 C60 26.4 60 52.8 60 80 C73.2 80 86.4 80 100 80 C100 53.6 100 27.2 100 0 C113.2 0 126.4 0 140 0 C140 33 140 66 140 100 C133.4 100 126.8 100 120 100 C120 106.6 120 113.2 120 120 C87 120 54 120 20 120 C20 113.4 20 106.8 20 100 C13.4 100 6.8 100 0 100 C0 67 0 34 0 0 Z " fill="#EEEAEA" transform="translate(300,520)"/>
<path d="M0 0 C6.6 0 13.2 0 20 0 C20 6.6 20 13.2 20 20 C26.6 20 33.2 20 40 20 C40 26.6 40 33.2 40 40 C46.6 40 53.2 40 60 40 C60 53.2 60 66.4 60 80 C40.2 80 20.4 80 0 80 C0 86.6 0 93.2 0 100 C-6.6 100 -13.2 100 -20 100 C-20 86.8 -20 73.6 -20 60 C-13.4 60 -6.8 60 0 60 C0 40.2 0 20.4 0 0 Z " fill="#7A708C" transform="translate(300,320)"/>
<path d="M0 0 C6.6 0 13.2 0 20 0 C20 13.2 20 26.4 20 40 C26.6 40 33.2 40 40 40 C40 46.6 40 53.2 40 60 C46.6 60 53.2 60 60 60 C60 73.2 60 86.4 60 100 C53.4 100 46.8 100 40 100 C40 93.4 40 86.8 40 80 C20.2 80 0.4 80 -20 80 C-20 66.8 -20 53.6 -20 40 C-13.4 40 -6.8 40 0 40 C0 26.8 0 13.6 0 0 Z " fill="#7A708C" transform="translate(640,320)"/>
<path d="M0 0 C19.8 0 39.6 0 60 0 C60 13.2 60 26.4 60 40 C40.2 40 20.4 40 0 40 C0 26.8 0 13.6 0 0 Z " fill="#B68481" transform="translate(460,660)"/>
</svg>
