<svg id="svg" version="1.1" xmlns="http://www.w3.org/2000/svg" xmlns:xlink="http://www.w3.org/1999/xlink" width="400" height="400" viewBox="0, 0, 400,400"><g id="svgg"><path id="path0" d="M128.000 188.000 L 128.000 192.000 124.000 192.000 L 120.000 192.000 120.000 216.000 L 120.000 240.000 124.000 240.000 L 128.000 240.000 128.000 244.000 L 128.000 248.000 148.000 248.000 L 168.000 248.000 168.000 244.000 L 168.000 240.000 172.000 240.000 L 176.000 240.000 176.000 216.000 L 176.000 192.000 172.000 192.000 L 168.000 192.000 168.000 188.000 L 168.000 184.000 148.000 184.000 L 128.000 184.000 128.000 188.000 M224.000 188.000 L 224.000 192.000 220.000 192.000 L 216.000 192.000 216.000 216.000 L 216.000 240.000 220.000 240.000 L 224.000 240.000 224.000 244.000 L 224.000 248.000 244.000 248.000 L 264.000 248.000 264.000 244.000 L 264.000 240.000 268.000 240.000 L 272.000 240.000 272.000 216.000 L 272.000 192.000 268.000 192.000 L 264.000 192.000 264.000 188.000 L 264.000 184.000 244.000 184.000 L 224.000 184.000 224.000 188.000 M160.000 220.000 L 160.000 240.000 152.000 240.000 L 144.000 240.000 144.000 224.000 L 144.000 208.000 148.000 208.000 L 152.000 208.000 152.000 204.000 L 152.000 200.000 156.000 200.000 L 160.000 200.000 160.000 220.000 M248.000 220.000 L 248.000 240.000 240.000 240.000 L 232.000 240.000 232.000 224.000 L 232.000 208.000 236.000 208.000 L 240.000 208.000 240.000 204.000 L 240.000 200.000 244.000 200.000 L 248.000 200.000 248.000 220.000 M152.000 284.000 L 152.000 288.000 156.000 288.000 L 160.000 288.000 160.000 292.000 L 160.000 296.000 164.000 296.000 L 168.000 296.000 168.000 288.000 L 168.000 280.000 160.000 280.000 L 152.000 280.000 152.000 284.000 M224.000 288.000 L 224.000 296.000 228.000 296.000 L 232.000 296.000 232.000 292.000 L 232.000 288.000 236.000 288.000 L 240.000 288.000 240.000 284.000 L 240.000 280.000 232.000 280.000 L 224.000 280.000 224.000 288.000 " stroke="none" fill="#ededed" fill-rule="evenodd"></path><path id="path1" d="M104.000 116.000 L 104.000 128.000 100.000 128.000 L 96.000 128.000 96.000 140.000 L 96.000 152.000 92.000 152.000 L 88.000 152.000 88.000 168.000 L 88.000 184.000 92.000 184.000 L 96.000 184.000 96.000 180.000 L 96.000 176.000 100.000 176.000 L 104.000 176.000 104.000 172.000 L 104.000 168.000 108.000 168.000 L 112.000 168.000 112.000 160.000 L 112.000 152.000 116.000 152.000 L 120.000 152.000 120.000 140.000 L 120.000 128.000 124.000 128.000 L 128.000 128.000 128.000 120.000 L 128.000 112.000 124.000 112.000 L 120.000 112.000 120.000 108.000 L 120.000 104.000 112.000 104.000 L 104.000 104.000 104.000 116.000 M272.000 108.000 L 272.000 112.000 268.000 112.000 L 264.000 112.000 264.000 128.000 L 264.000 144.000 268.000 144.000 L 272.000 144.000 272.000 148.000 L 272.000 152.000 276.000 152.000 L 280.000 152.000 280.000 164.000 L 280.000 176.000 288.000 176.000 L 296.000 176.000 296.000 180.000 L 296.000 184.000 300.000 184.000 L 304.000 184.000 304.000 172.000 L 304.000 160.000 300.000 160.000 L 296.000 160.000 296.000 144.000 L 296.000 128.000 292.000 128.000 L 288.000 128.000 288.000 116.000 L 288.000 104.000 280.000 104.000 L 272.000 104.000 272.000 108.000 " stroke="none" fill="#9484a4" fill-rule="evenodd"></path><path id="path2" d="M184.000 264.000 L 184.000 272.000 196.000 272.000 L 208.000 272.000 208.000 264.000 L 208.000 256.000 196.000 256.000 L 184.000 256.000 184.000 264.000 M136.000 284.000 L 136.000 288.000 140.000 288.000 L 144.000 288.000 144.000 292.000 L 144.000 296.000 148.000 296.000 L 152.000 296.000 152.000 300.000 L 152.000 304.000 156.000 304.000 L 160.000 304.000 160.000 308.000 L 160.000 312.000 196.000 312.000 L 232.000 312.000 232.000 308.000 L 232.000 304.000 236.000 304.000 L 240.000 304.000 240.000 300.000 L 240.000 296.000 244.000 296.000 L 248.000 296.000 248.000 292.000 L 248.000 288.000 252.000 288.000 L 256.000 288.000 256.000 284.000 L 256.000 280.000 248.000 280.000 L 240.000 280.000 240.000 284.000 L 240.000 288.000 236.000 288.000 L 232.000 288.000 232.000 292.000 L 232.000 296.000 228.000 296.000 L 224.000 296.000 224.000 288.000 L 224.000 280.000 196.000 280.000 L 168.000 280.000 168.000 288.000 L 168.000 296.000 164.000 296.000 L 160.000 296.000 160.000 292.000 L 160.000 288.000 156.000 288.000 L 152.000 288.000 152.000 284.000 L 152.000 280.000 144.000 280.000 L 136.000 280.000 136.000 284.000 " stroke="none" fill="#b0706f" fill-rule="evenodd"></path><path id="path3" d="M120.000 140.000 L 120.000 152.000 116.000 152.000 L 112.000 152.000 112.000 160.000 L 112.000 168.000 116.000 168.000 L 120.000 168.000 120.000 164.000 L 120.000 160.000 132.000 160.000 L 144.000 160.000 144.000 152.000 L 144.000 144.000 140.000 144.000 L 136.000 144.000 136.000 140.000 L 136.000 136.000 132.000 136.000 L 128.000 136.000 128.000 132.000 L 128.000 128.000 124.000 128.000 L 120.000 128.000 120.000 140.000 M256.000 136.000 L 256.000 144.000 252.000 144.000 L 248.000 144.000 248.000 152.000 L 248.000 160.000 264.000 160.000 L 280.000 160.000 280.000 156.000 L 280.000 152.000 276.000 152.000 L 272.000 152.000 272.000 148.000 L 272.000 144.000 268.000 144.000 L 264.000 144.000 264.000 136.000 L 264.000 128.000 260.000 128.000 L 256.000 128.000 256.000 136.000 " stroke="none" fill="#7c748c" fill-rule="evenodd"></path><path id="path4" d="M120.000 68.000 L 120.000 72.000 116.000 72.000 L 112.000 72.000 112.000 80.000 L 112.000 88.000 108.000 88.000 L 104.000 88.000 104.000 96.000 L 104.000 104.000 112.000 104.000 L 120.000 104.000 120.000 108.000 L 120.000 112.000 124.000 112.000 L 128.000 112.000 128.000 124.000 L 128.000 136.000 132.000 136.000 L 136.000 136.000 136.000 140.000 L 136.000 144.000 140.000 144.000 L 144.000 144.000 144.000 152.000 L 144.000 160.000 132.000 160.000 L 120.000 160.000 120.000 164.000 L 120.000 168.000 112.000 168.000 L 104.000 168.000 104.000 172.000 L 104.000 176.000 100.000 176.000 L 96.000 176.000 96.000 180.000 L 96.000 184.000 92.000 184.000 L 88.000 184.000 88.000 192.000 L 88.000 200.000 84.000 200.000 L 80.000 200.000 80.000 228.000 L 80.000 256.000 68.000 256.000 L 56.000 256.000 56.000 260.000 L 56.000 264.000 68.000 264.000 L 80.000 264.000 80.000 268.000 L 80.000 272.000 84.000 272.000 L 88.000 272.000 88.000 276.000 L 88.000 280.000 80.000 280.000 L 72.000 280.000 72.000 284.000 L 72.000 288.000 64.000 288.000 L 56.000 288.000 56.000 292.000 L 56.000 296.000 68.000 296.000 L 80.000 296.000 80.000 292.000 L 80.000 288.000 88.000 288.000 L 96.000 288.000 96.000 292.000 L 96.000 296.000 92.000 296.000 L 88.000 296.000 88.000 300.000 L 88.000 304.000 80.000 304.000 L 72.000 304.000 72.000 308.000 L 72.000 312.000 68.000 312.000 L 64.000 312.000 64.000 316.000 L 64.000 320.000 72.000 320.000 L 80.000 320.000 80.000 316.000 L 80.000 312.000 88.000 312.000 L 96.000 312.000 96.000 308.000 L 96.000 304.000 100.000 304.000 L 104.000 304.000 104.000 308.000 L 104.000 312.000 108.000 312.000 L 112.000 312.000 112.000 316.000 L 112.000 320.000 116.000 320.000 L 120.000 320.000 120.000 324.000 L 120.000 328.000 128.000 328.000 L 136.000 328.000 136.000 332.000 L 136.000 336.000 144.000 336.000 L 152.000 336.000 152.000 340.000 L 152.000 344.000 196.000 344.000 L 240.000 344.000 240.000 340.000 L 240.000 336.000 248.000 336.000 L 256.000 336.000 256.000 332.000 L 256.000 328.000 260.000 328.000 L 264.000 328.000 264.000 324.000 L 264.000 320.000 272.000 320.000 L 280.000 320.000 280.000 316.000 L 280.000 312.000 284.000 312.000 L 288.000 312.000 288.000 308.000 L 288.000 304.000 292.000 304.000 L 296.000 304.000 296.000 308.000 L 296.000 312.000 304.000 312.000 L 312.000 312.000 312.000 316.000 L 312.000 320.000 320.000 320.000 L 328.000 320.000 328.000 316.000 L 328.000 312.000 324.000 312.000 L 320.000 312.000 320.000 308.000 L 320.000 304.000 312.000 304.000 L 304.000 304.000 304.000 300.000 L 304.000 296.000 300.000 296.000 L 296.000 296.000 296.000 292.000 L 296.000 288.000 304.000 288.000 L 312.000 288.000 312.000 292.000 L 312.000 296.000 324.000 296.000 L 336.000 296.000 336.000 292.000 L 336.000 288.000 328.000 288.000 L 320.000 288.000 320.000 284.000 L 320.000 280.000 312.000 280.000 L 304.000 280.000 304.000 276.000 L 304.000 272.000 308.000 272.000 L 312.000 272.000 312.000 268.000 L 312.000 264.000 324.000 264.000 L 336.000 264.000 336.000 260.000 L 336.000 256.000 324.000 256.000 L 312.000 256.000 312.000 232.000 L 312.000 208.000 308.000 208.000 L 304.000 208.000 304.000 196.000 L 304.000 184.000 300.000 184.000 L 296.000 184.000 296.000 180.000 L 296.000 176.000 288.000 176.000 L 280.000 176.000 280.000 168.000 L 280.000 160.000 264.000 160.000 L 248.000 160.000 248.000 152.000 L 248.000 144.000 252.000 144.000 L 256.000 144.000 256.000 136.000 L 256.000 128.000 260.000 128.000 L 264.000 128.000 264.000 120.000 L 264.000 112.000 268.000 112.000 L 272.000 112.000 272.000 108.000 L 272.000 104.000 280.000 104.000 L 288.000 104.000 288.000 100.000 L 288.000 96.000 284.000 96.000 L 280.000 96.000 280.000 84.000 L 280.000 72.000 276.000 72.000 L 272.000 72.000 272.000 68.000 L 272.000 64.000 268.000 64.000 L 264.000 64.000 264.000 68.000 L 264.000 72.000 260.000 72.000 L 256.000 72.000 256.000 76.000 L 256.000 80.000 252.000 80.000 L 248.000 80.000 248.000 88.000 L 248.000 96.000 244.000 96.000 L 240.000 96.000 240.000 104.000 L 240.000 112.000 236.000 112.000 L 232.000 112.000 232.000 120.000 L 232.000 128.000 228.000 128.000 L 224.000 128.000 224.000 136.000 L 224.000 144.000 220.000 144.000 L 216.000 144.000 216.000 148.000 L 216.000 152.000 196.000 152.000 L 176.000 152.000 176.000 148.000 L 176.000 144.000 172.000 144.000 L 168.000 144.000 168.000 136.000 L 168.000 128.000 164.000 128.000 L 160.000 128.000 160.000 120.000 L 160.000 112.000 156.000 112.000 L 152.000 112.000 152.000 104.000 L 152.000 96.000 148.000 96.000 L 144.000 96.000 144.000 92.000 L 144.000 88.000 140.000 88.000 L 136.000 88.000 136.000 80.000 L 136.000 72.000 132.000 72.000 L 128.000 72.000 128.000 68.000 L 128.000 64.000 124.000 64.000 L 120.000 64.000 120.000 68.000 M168.000 188.000 L 168.000 192.000 172.000 192.000 L 176.000 192.000 176.000 216.000 L 176.000 240.000 172.000 240.000 L 168.000 240.000 168.000 244.000 L 168.000 248.000 148.000 248.000 L 128.000 248.000 128.000 244.000 L 128.000 240.000 124.000 240.000 L 120.000 240.000 120.000 216.000 L 120.000 192.000 124.000 192.000 L 128.000 192.000 128.000 188.000 L 128.000 184.000 148.000 184.000 L 168.000 184.000 168.000 188.000 M264.000 188.000 L 264.000 192.000 268.000 192.000 L 272.000 192.000 272.000 216.000 L 272.000 240.000 268.000 240.000 L 264.000 240.000 264.000 244.000 L 264.000 248.000 244.000 248.000 L 224.000 248.000 224.000 244.000 L 224.000 240.000 220.000 240.000 L 216.000 240.000 216.000 216.000 L 216.000 192.000 220.000 192.000 L 224.000 192.000 224.000 188.000 L 224.000 184.000 244.000 184.000 L 264.000 184.000 264.000 188.000 M152.000 204.000 L 152.000 208.000 148.000 208.000 L 144.000 208.000 144.000 224.000 L 144.000 240.000 152.000 240.000 L 160.000 240.000 160.000 220.000 L 160.000 200.000 156.000 200.000 L 152.000 200.000 152.000 204.000 M240.000 204.000 L 240.000 208.000 236.000 208.000 L 232.000 208.000 232.000 224.000 L 232.000 240.000 240.000 240.000 L 248.000 240.000 248.000 220.000 L 248.000 200.000 244.000 200.000 L 240.000 200.000 240.000 204.000 M208.000 264.000 L 208.000 272.000 196.000 272.000 L 184.000 272.000 184.000 264.000 L 184.000 256.000 196.000 256.000 L 208.000 256.000 208.000 264.000 M256.000 284.000 L 256.000 288.000 252.000 288.000 L 248.000 288.000 248.000 292.000 L 248.000 296.000 244.000 296.000 L 240.000 296.000 240.000 300.000 L 240.000 304.000 236.000 304.000 L 232.000 304.000 232.000 308.000 L 232.000 312.000 196.000 312.000 L 160.000 312.000 160.000 308.000 L 160.000 304.000 156.000 304.000 L 152.000 304.000 152.000 300.000 L 152.000 296.000 148.000 296.000 L 144.000 296.000 144.000 292.000 L 144.000 288.000 140.000 288.000 L 136.000 288.000 136.000 284.000 L 136.000 280.000 196.000 280.000 L 256.000 280.000 256.000 284.000 " stroke="none" fill="#3c3c24" fill-rule="evenodd"></path><path id="path5" d="" stroke="none" fill="#6c545c" fill-rule="evenodd"></path></g></svg>