<svg id="svg" version="1.1" xmlns="http://www.w3.org/2000/svg" xmlns:xlink="http://www.w3.org/1999/xlink" width="400" height="400" viewBox="0, 0, 400,400"><g id="svgg"><path id="path0" d="M136.424 20.972 C 136.057 21.413,136.156 37.836,136.854 92.959 C 137.352 132.237,137.650 164.483,137.517 164.617 C 137.383 164.750,122.272 157.756,103.937 149.073 C 85.602 140.390,67.852 131.989,64.494 130.403 C 55.326 126.074,54.777 126.858,61.504 134.668 C 64.125 137.711,72.817 147.850,80.821 157.200 C 93.338 171.823,95.514 174.190,96.386 174.126 C 98.657 173.961,111.843 172.323,112.400 172.137 C 112.810 172.000,110.969 169.973,106.600 165.747 C 103.080 162.343,100.560 159.729,101.000 159.938 C 101.440 160.148,106.700 162.669,112.688 165.540 L 123.577 170.761 141.069 168.566 C 150.690 167.359,158.653 166.280,158.766 166.168 C 158.878 166.056,156.759 143.454,154.058 115.942 C 151.357 88.430,149.204 65.868,149.273 65.805 C 149.343 65.741,158.580 83.691,169.800 105.694 C 181.020 127.696,190.389 145.962,190.620 146.284 C 191.001 146.814,201.012 133.199,201.852 131.009 C 201.988 130.656,197.953 123.349,191.967 113.106 C 186.405 103.588,178.853 90.670,175.186 84.400 C 151.931 44.641,144.412 31.766,142.480 28.400 C 141.280 26.310,139.961 24.228,139.549 23.774 C 139.137 23.320,138.800 22.591,138.800 22.154 C 138.800 20.622,137.324 19.887,136.424 20.972 M206.428 157.105 L 201.056 166.994 205.279 175.185 C 207.601 179.691,209.789 183.558,210.140 183.779 C 210.719 184.145,231.430 181.903,231.910 181.424 C 232.190 181.143,236.061 162.727,235.877 162.544 C 235.781 162.448,232.506 162.568,228.598 162.811 C 224.690 163.054,221.351 163.106,221.178 162.927 C 220.879 162.616,219.785 160.765,214.307 151.300 C 213.002 149.045,211.904 147.204,211.867 147.208 C 211.830 147.213,209.383 151.667,206.428 157.105 M312.708 157.973 C 279.548 159.886,252.322 161.544,252.207 161.660 C 251.895 161.972,249.504 178.837,249.738 179.072 C 249.849 179.183,269.425 176.820,293.240 173.821 C 317.055 170.822,336.754 168.420,337.015 168.484 C 337.277 168.548,322.710 175.604,304.645 184.163 C 286.580 192.723,271.655 199.852,271.479 200.005 C 271.302 200.157,274.542 202.500,278.679 205.211 C 282.815 207.921,286.866 210.575,287.679 211.109 L 289.158 212.079 295.879 208.099 C 315.894 196.247,325.548 190.522,338.200 183.001 C 345.900 178.424,356.970 171.856,362.800 168.405 C 381.456 157.361,380.585 157.931,380.729 156.676 C 381.059 153.799,387.096 153.683,312.708 157.973 M153.808 184.750 C 152.688 184.990,152.819 185.097,155.992 186.548 C 159.819 188.297,160.526 188.195,160.724 185.859 L 160.848 184.400 157.924 184.447 C 156.316 184.473,154.464 184.609,153.808 184.750 M116.200 187.020 C 112.460 187.296,108.814 187.539,108.097 187.561 C 106.905 187.597,115.310 198.189,125.958 210.069 C 126.211 210.351,141.537 214.000,142.467 214.000 C 143.112 214.000,146.012 205.950,146.005 204.180 C 146.001 203.112,144.913 201.934,137.228 194.680 L 128.455 186.400 125.728 186.459 C 124.227 186.492,119.940 186.744,116.200 187.020 M255.049 207.884 C 254.752 208.181,255.093 226.434,255.438 228.697 C 255.681 230.296,255.629 230.285,263.700 230.580 L 270.000 230.810 270.007 227.105 L 270.015 223.400 273.407 221.414 C 277.516 219.010,278.324 219.890,265.737 213.060 C 254.960 207.213,255.472 207.461,255.049 207.884 M194.400 219.504 C 193.850 219.875,186.290 225.228,177.600 231.401 C 168.910 237.574,159.724 244.097,157.187 245.895 L 152.574 249.165 153.646 261.208 C 154.236 267.832,154.810 273.344,154.923 273.456 C 155.035 273.569,158.044 272.259,161.609 270.546 L 168.092 267.432 178.946 245.651 C 184.916 233.672,190.113 223.677,190.496 223.440 C 192.316 222.314,192.915 224.045,195.649 238.333 C 198.497 253.219,198.339 252.675,199.617 251.991 C 200.781 251.368,200.268 250.608,206.600 262.341 C 209.460 267.640,211.912 271.981,212.048 271.988 C 212.184 271.995,213.790 269.345,215.617 266.100 C 217.444 262.855,219.173 259.833,219.460 259.385 C 220.018 258.512,220.389 259.207,209.120 240.000 C 207.248 236.810,204.139 231.500,202.211 228.200 C 196.417 218.286,196.339 218.199,194.400 219.504 M118.071 232.546 C 116.535 235.876,111.637 246.520,107.189 256.200 C 102.740 265.880,95.792 280.987,91.750 289.771 C 87.707 298.556,84.400 305.959,84.400 306.222 C 84.400 307.890,85.563 307.678,90.686 305.075 C 93.498 303.646,101.380 299.779,108.200 296.481 C 115.020 293.183,125.045 288.319,130.478 285.671 L 140.357 280.857 137.323 271.728 C 135.654 266.708,134.235 262.536,134.169 262.458 C 134.103 262.380,131.628 264.045,128.669 266.158 C 125.710 268.271,123.206 270.000,123.105 270.000 C 123.004 270.000,124.533 265.511,126.502 260.024 L 130.082 250.047 126.222 238.465 C 121.418 224.054,121.846 224.365,118.071 232.546 M261.641 248.444 C 258.693 248.852,256.219 249.248,256.142 249.325 C 256.005 249.462,257.749 309.499,258.172 319.200 L 258.390 324.200 256.669 321.200 C 255.722 319.550,252.728 314.420,250.015 309.800 C 238.526 290.235,235.767 285.525,232.863 280.515 C 230.580 276.576,229.690 275.353,229.370 275.715 C 229.133 275.982,227.183 279.040,225.036 282.511 L 221.133 288.822 235.837 315.711 C 243.925 330.500,254.459 349.777,259.248 358.549 C 269.142 376.677,269.749 377.549,271.223 375.772 C 271.736 375.154,270.786 265.867,270.152 252.500 L 269.919 247.600 268.460 247.652 C 267.657 247.680,264.588 248.037,261.641 248.444 M184.898 256.826 C 184.208 258.381,183.768 259.595,183.921 259.524 C 184.075 259.454,184.892 259.130,185.737 258.804 C 187.198 258.242,187.263 258.143,187.042 256.806 C 186.914 256.033,186.807 255.085,186.804 254.700 C 186.796 253.311,186.131 254.053,184.898 256.826 " stroke="none" fill="#bcb4cc" fill-rule="evenodd"></path><path id="path1" d="M266.287 38.900 C 265.492 39.615,245.735 67.830,222.383 101.600 C 199.031 135.370,179.672 163.199,179.364 163.443 C 179.056 163.686,177.768 163.999,176.502 164.137 C 161.329 165.791,15.370 184.493,14.957 184.836 C 12.768 186.653,14.627 187.541,40.200 196.895 C 77.210 210.431,122.192 226.917,122.284 226.978 C 122.329 227.009,129.387 247.971,137.966 273.561 C 153.402 319.601,154.266 322.000,155.400 322.000 C 156.447 322.000,157.022 320.737,180.682 266.500 C 183.681 259.625,186.240 254.001,186.367 254.002 C 186.495 254.003,189.369 268.628,192.753 286.502 C 196.138 304.376,199.135 319.246,199.414 319.546 C 200.966 321.218,201.172 320.922,223.265 285.375 C 236.040 264.820,244.740 251.209,245.290 250.916 C 245.791 250.650,263.750 248.149,285.200 245.359 C 326.669 239.964,326.000 240.088,326.000 237.809 C 326.000 236.155,327.631 237.379,310.000 225.798 C 292.750 214.467,284.431 208.996,268.000 198.177 C 261.070 193.614,253.915 188.921,252.100 187.749 C 249.914 186.338,248.800 185.367,248.800 184.874 C 248.800 184.465,253.479 151.403,259.197 111.403 C 266.997 56.847,269.483 38.541,269.148 38.138 C 268.469 37.319,267.868 37.479,266.287 38.900 M243.393 128.447 C 236.005 162.851,229.858 191.485,229.734 192.078 C 229.453 193.423,225.263 190.979,265.938 213.200 C 292.027 227.453,299.728 231.827,298.892 231.917 C 298.291 231.982,285.492 231.487,270.448 230.817 C 236.778 229.319,237.188 229.323,236.134 230.500 C 235.690 230.995,231.138 238.780,226.018 247.800 C 207.074 281.173,204.997 284.756,204.756 284.481 C 204.620 284.326,203.595 279.430,202.476 273.600 C 192.305 220.572,192.668 222.089,190.496 223.443 C 190.113 223.682,182.304 238.890,173.143 257.238 C 163.956 275.638,156.393 290.331,156.278 290.000 C 156.164 289.670,154.694 273.560,153.013 254.200 C 151.332 234.840,149.765 218.550,149.532 218.000 C 148.344 215.202,151.176 216.084,120.600 208.993 C 58.063 194.490,46.816 191.827,47.100 191.588 C 47.567 191.196,190.108 182.312,190.920 182.624 C 191.594 182.883,193.600 181.508,193.600 180.787 C 193.600 180.637,194.974 178.014,196.653 174.957 C 198.331 171.901,208.078 154.100,218.312 135.400 C 259.707 59.756,256.504 65.571,256.683 65.750 C 256.762 65.829,250.782 94.042,243.393 128.447 " stroke="none" fill="#847c9c" fill-rule="evenodd"></path><path id="path2" d="" stroke="none" fill="#acb8b4" fill-rule="evenodd"></path><path id="path3" d="" stroke="none" fill="#acb8b4" fill-rule="evenodd"></path><path id="path4" d="" stroke="none" fill="#acb8b4" fill-rule="evenodd"></path></g></svg>