<svg id="svg" version="1.1" xmlns="http://www.w3.org/2000/svg" xmlns:xlink="http://www.w3.org/1999/xlink" width="400" height="400" viewBox="0, 0, 400,400"><g id="svgg"><path id="path0" d="M222.390 81.682 C 214.397 92.967,205.313 105.800,202.202 110.200 C 199.092 114.600,194.502 121.080,192.002 124.600 C 189.503 128.120,182.808 137.570,177.125 145.600 C 171.442 153.630,166.729 160.200,166.652 160.200 C 166.575 160.200,161.867 154.800,156.190 148.200 C 150.513 141.600,143.155 133.050,139.839 129.200 C 136.523 125.350,131.018 118.952,127.605 114.982 C 124.192 111.013,118.076 103.903,114.013 99.182 C 109.950 94.462,104.031 87.576,100.859 83.879 C 94.977 77.024,94.121 76.379,93.092 78.023 C 92.809 78.474,94.255 84.038,98.341 98.223 C 104.447 119.420,122.135 180.636,123.626 185.732 C 124.223 187.773,124.399 188.958,124.133 189.132 C 121.685 190.731,47.868 247.879,47.706 248.300 C 47.586 248.613,47.918 249.291,48.444 249.806 L 49.400 250.743 103.200 246.851 C 143.999 243.899,157.071 243.073,157.294 243.433 C 157.456 243.694,159.468 249.283,161.766 255.854 C 164.064 262.424,169.266 277.250,173.325 288.800 C 177.384 300.350,185.064 322.220,190.392 337.400 C 200.489 366.166,200.858 367.028,202.663 365.997 C 203.775 365.363,202.737 368.761,230.044 276.400 C 232.939 266.610,235.356 258.543,235.415 258.472 C 235.474 258.402,256.081 269.278,281.208 282.641 C 328.512 307.798,328.249 307.671,328.176 305.321 C 328.155 304.648,320.584 295.917,289.400 260.603 C 285.880 256.617,277.240 246.808,270.200 238.804 C 263.160 230.800,255.644 222.268,253.497 219.844 C 250.865 216.871,249.758 215.347,250.097 215.166 C 250.374 215.018,259.600 212.070,270.600 208.615 C 281.600 205.160,297.350 200.203,305.600 197.600 C 347.347 184.428,360.284 180.400,360.845 180.400 C 361.530 180.400,363.200 178.786,363.200 178.123 C 363.200 177.116,362.118 176.772,360.346 177.216 C 358.493 177.680,226.682 174.015,226.151 173.485 C 226.010 173.343,228.620 150.316,231.951 122.314 C 239.531 58.602,239.061 62.903,238.541 62.077 C 237.517 60.451,236.872 61.234,222.390 81.682 " stroke="none" fill="#cc9484" fill-rule="evenodd"></path><path id="path1" d="M164.926 10.900 C 163.564 13.018,164.366 9.439,155.037 55.000 C 152.289 68.420,147.782 90.418,145.020 103.885 C 142.259 117.352,140.000 128.608,140.000 128.900 C 140.000 129.192,141.402 131.044,143.116 133.015 C 144.830 134.987,150.796 141.910,156.374 148.400 C 161.953 154.890,166.601 160.169,166.704 160.132 C 167.709 159.767,187.983 130.050,187.807 129.200 C 187.594 128.173,173.802 48.640,169.737 25.000 C 168.329 16.814,167.241 11.534,166.871 11.100 C 166.173 10.279,165.378 10.197,164.926 10.900 M372.573 51.358 C 371.899 51.656,367.579 54.148,362.973 56.895 C 358.368 59.643,349.200 65.093,342.600 69.007 C 309.771 88.475,295.635 96.856,289.800 100.312 C 286.280 102.396,277.730 107.472,270.800 111.593 C 263.870 115.713,253.250 122.016,247.200 125.601 C 229.649 135.999,230.666 135.333,230.350 136.634 C 229.812 138.853,225.899 173.232,226.155 173.489 C 226.673 174.006,300.168 175.949,300.663 175.459 C 300.918 175.206,303.871 170.500,307.226 165.000 C 310.580 159.500,316.239 150.230,319.800 144.400 C 323.361 138.570,330.286 127.230,335.190 119.200 C 340.093 111.170,345.762 101.900,347.788 98.600 C 371.670 59.696,376.100 52.248,375.717 51.637 C 375.189 50.793,374.076 50.694,372.573 51.358 M4.080 132.080 C 3.153 133.007,3.705 133.619,16.500 145.852 C 23.595 152.635,31.650 160.351,34.400 163.000 C 37.150 165.649,45.249 173.392,52.399 180.208 C 59.548 187.024,69.268 196.298,73.999 200.819 C 78.729 205.339,84.178 210.542,86.107 212.380 L 89.613 215.723 91.107 214.535 C 91.928 213.882,99.710 207.888,108.400 201.217 C 117.090 194.546,124.270 189.028,124.355 188.955 C 124.526 188.810,118.869 168.926,118.413 168.065 C 118.082 167.442,121.688 168.625,56.739 147.825 C 5.253 131.336,4.923 131.237,4.080 132.080 M266.066 210.003 C 257.193 212.825,249.860 215.206,249.772 215.294 C 249.684 215.383,251.364 217.434,253.506 219.853 C 255.648 222.273,263.160 230.803,270.200 238.810 C 287.484 258.468,286.940 257.873,286.587 256.752 C 286.422 256.229,283.603 247.463,280.323 237.273 L 274.358 218.745 278.050 212.673 C 280.081 209.333,282.001 206.195,282.317 205.700 C 283.069 204.524,284.433 204.162,266.066 210.003 M132.265 244.748 L 107.531 246.532 105.429 248.766 C 102.716 251.651,42.875 317.022,35.471 325.190 C 33.970 326.845,32.352 328.607,31.876 329.104 C 30.699 330.331,31.352 331.411,33.249 331.373 C 33.992 331.359,64.921 320.157,101.980 306.480 C 167.265 282.386,169.391 281.633,170.342 282.256 C 171.091 282.747,171.274 282.769,171.113 282.350 C 170.613 281.042,165.331 266.081,161.612 255.440 C 159.391 249.083,157.444 243.675,157.287 243.423 C 157.075 243.084,150.568 243.429,132.265 244.748 M230.441 275.100 C 227.721 284.285,223.955 296.997,222.073 303.350 L 218.649 314.900 219.808 315.750 C 220.446 316.217,223.495 318.322,226.584 320.426 C 234.412 325.758,313.704 379.674,320.864 384.533 C 329.890 390.658,329.814 391.180,322.990 369.957 C 319.992 360.631,315.221 345.800,312.388 337.000 C 309.555 328.200,305.099 314.348,302.485 306.217 L 297.732 291.433 266.766 274.936 C 249.735 265.863,235.707 258.430,235.593 258.420 C 235.478 258.409,233.160 265.915,230.441 275.100 " stroke="none" fill="#9c5c5c" fill-rule="evenodd"></path></g></svg>