<svg id="svg" version="1.1" xmlns="http://www.w3.org/2000/svg" xmlns:xlink="http://www.w3.org/1999/xlink" width="400" height="400" viewBox="0, 0, 400,400"><g id="svgg"><path id="path0" d="M16.000 220.000 L 16.000 384.000 200.000 384.000 L 384.000 384.000 384.000 220.000 L 384.000 56.000 200.000 56.000 L 16.000 56.000 16.000 220.000 " stroke="none" fill="#f2ffcb" fill-rule="evenodd"></path><path id="path1" d="M0.000 8.000 L 0.000 16.000 200.000 16.000 L 400.000 16.000 400.000 8.000 L 400.000 0.000 200.000 0.000 L 0.000 0.000 0.000 8.000 M8.000 220.000 L 8.000 392.000 200.000 392.000 L 392.000 392.000 392.000 220.000 L 392.000 48.000 200.000 48.000 L 8.000 48.000 8.000 220.000 M384.400 220.000 L 384.400 384.400 200.000 384.400 L 15.600 384.400 15.600 220.000 L 15.600 55.600 200.000 55.600 L 384.400 55.600 384.400 220.000 " stroke="none" fill="#76a884" fill-rule="evenodd"></path><path id="path2" d="M0.000 24.000 L 0.000 32.000 200.000 32.000 L 400.000 32.000 400.000 24.000 L 400.000 16.000 200.000 16.000 L 0.000 16.000 0.000 24.000 M15.600 220.000 L 15.600 384.400 200.000 384.400 L 384.400 384.400 384.400 220.000 L 384.400 55.600 200.000 55.600 L 15.600 55.600 15.600 220.000 M384.000 220.000 L 384.000 384.000 200.000 384.000 L 16.000 384.000 16.000 220.000 L 16.000 56.000 200.000 56.000 L 384.000 56.000 384.000 220.000 " stroke="none" fill="#7cb583" fill-rule="evenodd"></path><path id="path3" d="M0.000 216.000 L 0.000 400.000 200.000 400.000 L 400.000 400.000 400.000 216.000 L 400.000 32.000 200.000 32.000 L 0.000 32.000 0.000 216.000 M392.000 220.000 L 392.000 392.000 200.000 392.000 L 8.000 392.000 8.000 220.000 L 8.000 48.000 200.000 48.000 L 392.000 48.000 392.000 220.000 " stroke="none" fill="#95ce84" fill-rule="evenodd"></path></g></svg>