<svg id="svg" version="1.1" xmlns="http://www.w3.org/2000/svg" xmlns:xlink="http://www.w3.org/1999/xlink" width="400" height="400" viewBox="0, 0, 400,400"><g id="svgg"><path id="path0" d="M40.000 200.000 L 40.000 360.000 200.000 360.000 L 360.000 360.000 360.000 200.000 L 360.000 40.000 200.000 40.000 L 40.000 40.000 40.000 200.000 M120.000 100.000 L 120.000 120.000 140.000 120.000 L 160.000 120.000 160.000 140.000 L 160.000 160.000 200.000 160.000 L 240.000 160.000 240.000 140.000 L 240.000 120.000 260.000 120.000 L 280.000 120.000 280.000 100.000 L 280.000 80.000 300.000 80.000 L 320.000 80.000 320.000 100.000 L 320.000 120.000 300.000 120.000 L 280.000 120.000 280.000 140.000 L 280.000 160.000 260.000 160.000 L 240.000 160.000 240.000 200.000 L 240.000 240.000 260.000 240.000 L 280.000 240.000 280.000 260.000 L 280.000 280.000 300.000 280.000 L 320.000 280.000 320.000 300.000 L 320.000 320.000 300.000 320.000 L 280.000 320.000 280.000 300.000 L 280.000 280.000 260.000 280.000 L 240.000 280.000 240.000 260.000 L 240.000 240.000 200.000 240.000 L 160.000 240.000 160.000 260.000 L 160.000 280.000 140.000 280.000 L 120.000 280.000 120.000 300.000 L 120.000 320.000 100.000 320.000 L 80.000 320.000 80.000 300.000 L 80.000 280.000 100.000 280.000 L 120.000 280.000 120.000 260.000 L 120.000 240.000 140.000 240.000 L 160.000 240.000 160.000 200.000 L 160.000 160.000 140.000 160.000 L 120.000 160.000 120.000 140.000 L 120.000 120.000 100.000 120.000 L 80.000 120.000 80.000 100.000 L 80.000 80.000 100.000 80.000 L 120.000 80.000 120.000 100.000 " stroke="none" fill="#f2ffcb" fill-rule="evenodd"></path><path id="path1" d="M80.000 100.000 L 80.000 120.000 100.000 120.000 L 120.000 120.000 120.000 140.000 L 120.000 160.000 140.000 160.000 L 160.000 160.000 160.000 200.000 L 160.000 240.000 140.000 240.000 L 120.000 240.000 120.000 260.000 L 120.000 280.000 100.000 280.000 L 80.000 280.000 80.000 300.000 L 80.000 320.000 100.000 320.000 L 120.000 320.000 120.000 300.000 L 120.000 280.000 140.000 280.000 L 160.000 280.000 160.000 260.000 L 160.000 240.000 200.000 240.000 L 240.000 240.000 240.000 260.000 L 240.000 280.000 260.000 280.000 L 280.000 280.000 280.000 300.000 L 280.000 320.000 300.000 320.000 L 320.000 320.000 320.000 300.000 L 320.000 280.000 300.000 280.000 L 280.000 280.000 280.000 260.000 L 280.000 240.000 260.000 240.000 L 240.000 240.000 240.000 200.000 L 240.000 160.000 260.000 160.000 L 280.000 160.000 280.000 140.000 L 280.000 120.000 300.000 120.000 L 320.000 120.000 320.000 100.000 L 320.000 80.000 300.000 80.000 L 280.000 80.000 280.000 100.000 L 280.000 120.000 260.000 120.000 L 240.000 120.000 240.000 140.000 L 240.000 160.000 200.000 160.000 L 160.000 160.000 160.000 140.000 L 160.000 120.000 140.000 120.000 L 120.000 120.000 120.000 100.000 L 120.000 80.000 100.000 80.000 L 80.000 80.000 80.000 100.000 " stroke="none" fill="#3f5e44" fill-rule="evenodd"></path><path id="path2" d="M0.000 200.000 L 0.000 400.000 200.000 400.000 L 400.000 400.000 400.000 200.000 L 400.000 0.000 200.000 0.000 L 0.000 0.000 0.000 200.000 M360.000 200.000 L 360.000 360.000 200.000 360.000 L 40.000 360.000 40.000 200.000 L 40.000 40.000 200.000 40.000 L 360.000 40.000 360.000 200.000 " stroke="none" fill="#728984" fill-rule="evenodd"></path></g></svg>