<svg id="svg" version="1.1" xmlns="http://www.w3.org/2000/svg" xmlns:xlink="http://www.w3.org/1999/xlink" width="400" height="400" viewBox="0, 0, 400,400"><g id="svgg"><path id="path0" d="M269.454 26.900 C 268.910 27.395,264.737 33.740,260.183 41.000 C 255.628 48.260,248.617 59.420,244.603 65.800 C 240.589 72.180,233.569 83.340,229.003 90.600 C 224.437 97.860,217.416 109.020,213.402 115.400 C 209.387 121.780,202.995 131.950,199.196 138.000 C 195.398 144.050,192.224 149.076,192.143 149.168 C 192.063 149.261,191.548 148.914,190.998 148.399 C 190.449 147.883,190.000 147.542,190.000 147.641 C 190.000 148.687,196.063 162.573,196.476 162.472 C 197.637 162.190,207.435 157.856,207.919 157.411 C 208.205 157.148,209.327 155.418,210.414 153.567 C 224.589 129.416,247.816 90.083,247.871 90.138 C 247.910 90.177,248.235 101.272,248.593 114.793 C 248.952 128.315,249.316 139.449,249.403 139.536 C 249.611 139.744,270.052 130.908,270.576 130.384 C 271.238 129.722,272.648 27.380,272.006 26.607 C 271.309 25.767,270.613 25.847,269.454 26.900 M70.125 29.683 C 69.905 29.967,69.603 30.538,69.455 30.951 C 69.302 31.378,74.461 57.771,81.377 91.951 C 88.082 125.088,94.506 156.880,95.652 162.600 C 96.798 168.320,97.777 173.057,97.827 173.126 C 97.995 173.357,124.935 179.599,125.091 179.443 C 125.175 179.358,125.710 176.614,126.279 173.345 L 127.314 167.400 111.206 119.000 C 94.813 69.745,94.371 68.400,94.569 68.400 C 94.631 68.400,97.723 71.852,101.441 76.072 C 126.209 104.185,136.173 115.280,136.304 114.889 C 136.386 114.642,137.135 110.519,137.968 105.726 L 139.482 97.011 105.493 63.205 C 71.134 29.032,70.844 28.757,70.125 29.683 M149.600 107.237 C 149.600 107.365,148.696 111.503,147.591 116.435 C 146.486 121.366,145.631 125.606,145.691 125.857 C 145.788 126.263,155.605 137.492,171.000 154.806 C 173.860 158.022,179.955 164.911,184.543 170.114 C 192.517 179.154,194.014 180.546,194.855 179.705 C 195.346 179.214,200.703 170.234,200.592 170.087 C 200.545 170.024,198.728 170.609,196.553 171.387 C 190.726 173.470,190.162 173.296,189.069 169.085 C 188.739 167.812,184.638 158.236,179.956 147.804 L 171.443 128.838 160.522 117.922 C 154.515 111.918,149.600 107.110,149.600 107.237 M335.556 130.524 L 292.912 140.161 288.034 149.926 C 285.352 155.296,283.233 159.766,283.325 159.859 C 283.418 159.951,291.551 158.124,301.398 155.798 C 311.246 153.473,319.375 151.642,319.464 151.730 C 319.623 151.890,316.234 154.885,292.219 175.811 C 285.409 181.745,279.289 187.090,278.619 187.688 L 277.400 188.777 280.800 188.816 C 282.670 188.837,287.530 188.994,291.600 189.164 L 299.000 189.472 306.600 183.409 C 321.495 171.526,359.989 140.833,371.300 131.822 C 388.912 117.791,391.482 117.884,335.556 130.524 M271.941 144.961 C 270.259 145.423,264.519 147.330,259.186 149.200 L 249.491 152.600 249.738 159.579 C 249.923 164.773,250.130 166.701,250.548 167.119 C 251.022 167.593,267.972 164.161,268.687 163.446 C 268.957 163.176,275.209 144.633,275.111 144.394 C 275.050 144.245,273.623 144.500,271.941 144.961 M132.062 186.277 C 131.814 187.554,131.711 188.973,131.833 189.428 C 132.369 191.424,131.714 191.390,115.788 188.600 C 107.494 187.148,100.630 186.037,100.534 186.132 C 100.039 186.627,101.078 188.555,102.541 189.857 C 103.942 191.104,108.870 195.726,126.110 211.965 L 128.419 214.140 134.910 214.859 C 144.133 215.881,144.610 215.789,142.865 213.327 C 142.426 212.707,140.048 205.990,137.581 198.400 C 132.506 182.782,132.670 183.144,132.062 186.277 M45.836 192.822 C 5.921 195.330,7.276 195.169,7.826 197.361 C 8.196 198.835,7.929 198.694,24.200 206.013 C 37.585 212.033,80.227 231.248,85.200 233.500 C 86.410 234.048,88.151 234.822,89.068 235.220 L 90.736 235.944 98.735 227.072 C 103.135 222.192,106.758 218.021,106.787 217.802 C 106.816 217.584,104.895 217.009,102.520 216.526 C 66.961 209.287,62.571 208.330,62.099 207.706 C 61.255 206.591,62.061 206.426,65.400 207.029 C 67.160 207.346,76.790 208.499,86.800 209.590 C 96.810 210.681,105.480 211.636,106.066 211.713 C 107.277 211.870,108.092 212.940,95.918 198.400 L 89.388 190.600 86.194 190.543 C 84.437 190.511,66.276 191.537,45.836 192.822 M268.939 203.234 L 260.478 203.544 257.439 206.072 C 255.768 207.462,254.400 208.875,254.400 209.212 C 254.400 209.796,266.761 230.060,267.751 231.099 C 268.126 231.493,269.875 230.756,276.115 227.573 L 284.004 223.549 283.035 221.874 C 282.501 220.953,280.528 217.542,278.648 214.292 L 275.231 208.385 278.316 205.951 C 280.012 204.613,281.571 203.356,281.780 203.159 C 282.197 202.765,281.662 202.768,268.939 203.234 M119.068 231.491 C 112.871 237.106,107.474 242.010,107.075 242.387 C 106.383 243.041,106.556 243.163,110.788 245.013 C 114.001 246.417,115.167 247.110,115.009 247.521 C 114.877 247.865,114.990 248.019,115.295 247.912 C 115.573 247.814,121.145 246.219,127.677 244.367 L 139.554 241.000 141.228 236.600 C 142.149 234.180,143.533 230.592,144.303 228.626 C 146.038 224.198,145.924 224.046,140.139 223.074 C 137.973 222.710,134.881 222.158,133.268 221.847 L 130.337 221.281 119.068 231.491 M280.899 235.547 C 276.664 237.661,273.200 239.554,273.200 239.755 C 273.200 239.956,274.884 242.838,276.941 246.160 C 278.999 249.482,283.949 257.465,287.941 263.900 C 291.934 270.335,295.200 275.668,295.200 275.751 C 295.200 275.833,289.440 273.949,282.400 271.563 C 270.229 267.438,269.600 267.269,269.608 268.113 C 269.625 270.031,271.553 289.286,271.747 289.481 C 271.927 289.660,286.631 295.306,323.301 309.276 C 331.105 312.249,332.910 312.807,333.401 312.399 C 334.059 311.853,334.204 310.573,333.648 310.230 C 333.454 310.110,333.217 309.604,333.121 309.106 C 333.025 308.608,325.506 295.330,316.412 279.600 C 307.318 263.870,297.539 246.950,294.680 242.000 C 291.822 237.050,289.284 232.708,289.040 232.352 C 288.650 231.781,287.685 232.159,280.899 235.547 M186.308 244.900 C 156.468 297.182,155.520 298.762,154.279 298.286 C 152.473 297.592,152.392 296.281,153.418 284.290 C 153.949 278.081,154.387 272.461,154.392 271.802 C 154.399 270.722,152.545 272.449,135.700 289.208 C 125.415 299.441,116.042 308.711,114.871 309.807 L 112.742 311.800 113.359 310.200 C 118.058 298.019,135.130 252.597,135.042 252.509 C 134.810 252.277,110.591 260.859,110.164 261.325 C 109.924 261.586,107.462 268.010,104.691 275.600 C 101.921 283.190,93.514 306.130,86.008 326.577 C 78.356 347.423,72.414 364.186,72.481 364.737 C 72.780 367.205,73.532 366.840,81.654 360.290 C 100.598 345.012,105.377 341.156,111.200 336.449 C 121.818 327.867,127.112 323.594,135.800 316.592 C 140.420 312.868,146.180 308.217,148.600 306.256 C 151.020 304.294,156.420 299.933,160.600 296.564 C 164.780 293.195,170.806 288.337,173.992 285.767 L 179.784 281.096 180.048 282.448 C 180.193 283.192,182.429 302.790,185.017 326.000 C 188.313 355.548,189.887 368.378,190.269 368.793 C 191.534 370.168,192.059 368.822,194.405 358.183 C 195.665 352.472,200.615 329.980,205.406 308.200 C 210.197 286.420,214.264 268.436,214.444 268.235 C 214.635 268.021,217.460 268.897,221.244 270.343 C 224.804 271.703,227.797 272.736,227.895 272.638 C 228.197 272.336,211.109 247.200,210.601 247.200 C 209.462 247.200,208.584 249.715,202.758 269.670 C 199.374 281.258,196.567 290.701,196.520 290.653 C 196.188 290.321,190.424 239.600,190.618 238.717 C 191.051 236.747,190.554 237.460,186.308 244.900 M230.085 254.895 C 230.931 256.012,239.643 267.828,247.142 278.029 L 249.369 281.057 254.763 283.117 C 257.730 284.249,260.222 285.111,260.302 285.032 C 260.569 284.764,259.584 264.224,259.290 263.952 C 259.131 263.804,252.272 261.412,244.049 258.637 L 229.098 253.590 230.085 254.895 " stroke="none" fill="#f4dc84" fill-rule="evenodd"></path><path id="path1" d="M148.031 49.763 C 147.548 50.344,147.103 52.848,133.433 131.941 C 128.933 157.979,125.181 179.352,125.096 179.438 C 125.010 179.523,113.293 176.862,99.057 173.524 C 74.603 167.790,73.136 167.493,72.487 168.141 C 71.464 169.164,71.287 168.932,91.397 192.995 L 109.677 214.867 108.902 215.733 C 108.475 216.210,97.263 228.660,83.986 243.400 C 70.709 258.140,58.530 271.661,56.923 273.446 C 53.244 277.531,53.172 278.387,56.454 279.000 C 57.690 279.231,60.691 278.300,76.454 272.796 C 86.654 269.234,106.070 262.456,119.600 257.733 C 133.130 253.010,146.973 248.166,150.362 246.968 C 153.750 245.770,156.557 244.837,156.598 244.895 C 156.639 244.953,155.728 256.390,154.572 270.310 C 152.646 293.523,152.522 295.722,153.080 296.840 C 154.698 300.084,154.782 299.973,167.814 277.200 C 173.920 266.530,182.435 251.680,186.736 244.200 C 191.037 236.720,195.084 229.639,195.728 228.464 C 197.182 225.812,195.036 223.143,212.875 249.800 C 276.778 345.293,272.504 338.970,273.234 339.104 C 273.545 339.161,274.294 338.801,274.898 338.304 L 275.995 337.400 271.603 290.015 C 269.186 263.953,267.343 242.501,267.505 242.342 C 267.667 242.183,288.950 231.578,314.800 218.774 C 365.120 193.850,362.800 195.047,362.800 193.995 C 362.800 191.599,365.858 191.853,315.217 190.030 C 289.816 189.115,268.967 188.301,268.887 188.220 C 268.807 188.140,276.522 172.641,286.032 153.779 C 299.476 127.113,303.233 119.341,302.921 118.842 C 302.100 117.530,300.122 117.860,294.663 120.218 C 279.847 126.621,255.564 137.100,244.200 141.995 C 237.160 145.028,223.660 150.845,214.200 154.922 C 204.740 158.999,196.766 162.395,196.479 162.468 C 195.974 162.596,193.939 157.607,161.055 75.629 C 149.700 47.320,149.835 47.589,148.031 49.763 M160.905 105.400 C 164.753 113.980,172.581 131.440,178.300 144.200 C 184.020 156.960,188.916 168.300,189.180 169.400 C 190.178 173.558,190.407 173.574,200.000 170.165 C 217.237 164.038,275.204 143.600,275.344 143.600 C 275.428 143.600,271.270 156.155,266.105 171.500 C 255.599 202.710,255.725 202.296,256.531 203.102 C 257.031 203.603,308.398 202.353,324.131 201.458 L 326.862 201.302 321.331 204.176 C 318.289 205.757,306.080 212.072,294.200 218.211 C 260.348 235.702,260.319 235.717,259.466 236.881 C 258.688 237.941,259.166 259.996,260.652 291.600 L 260.887 296.600 258.369 293.200 C 251.939 284.518,242.632 271.897,230.199 255.000 C 222.752 244.880,213.670 232.550,210.016 227.600 C 198.807 212.417,197.407 210.447,197.191 209.546 C 196.847 208.114,195.745 207.670,194.856 208.606 C 194.441 209.042,187.753 219.710,179.996 232.312 C 172.238 244.914,165.787 255.121,165.661 254.995 C 165.159 254.492,163.378 237.296,163.765 236.683 C 164.289 235.853,163.391 234.800,162.160 234.800 C 161.425 234.800,100.562 251.950,95.400 253.611 C 94.212 253.993,94.209 253.990,95.061 253.299 C 98.593 250.432,132.800 218.961,132.800 218.579 C 132.800 218.312,132.035 217.410,131.100 216.576 C 129.490 215.139,106.871 193.922,101.099 188.435 C 99.614 187.023,98.461 185.806,98.537 185.730 C 98.612 185.654,105.917 186.864,114.768 188.419 C 131.872 191.423,132.350 191.450,131.826 189.360 C 131.564 188.316,153.395 89.235,153.792 89.670 C 153.857 89.741,157.058 96.820,160.905 105.400 " stroke="none" fill="#cca44c" fill-rule="evenodd"></path></g></svg>